<?xml version="1.0" standalone="no"?>
<!DOCTYPE svg PUBLIC "-//W3C//DTD SVG 1.1//EN" "http://www.w3.org/Graphics/SVG/1.1/DTD/svg11.dtd" >
<svg>
<metadata>
Created by FontForge 20090622 at Tue Nov 21 10:58:28 2017
 By deploy user
Copyright (c) 2008-2013 by M?rio Feliciano. All rights reserved.
</metadata>
<defs>
<font id="GrotzecCond-Bold" horiz-adv-x="420" >
  <font-face 
    font-family="Grotzec Cond Bold"
    font-weight="600"
    font-stretch="normal"
    units-per-em="1000"
    panose-1="2 0 0 0 0 0 0 0 0 0"
    ascent="800"
    descent="-200"
    x-height="518"
    cap-height="700"
    bbox="-359 -237 1195 971"
    underline-thickness="80"
    underline-position="-9"
    unicode-range="U+000D-U+FB02"
  />
<missing-glyph horiz-adv-x="775" 
d="M116 0v664h543v-664h-543zM221 93h333v478h-333v-478z" />
    <glyph glyph-name="fi" unicode="fi" horiz-adv-x="479" 
d="M311 0v518h133v-518h-133zM311 566v134h133v-134h-133zM66 0v405h-49v110h49v57q0 135 130 135q44 0 70 -7v-101q-26 2 -39 2q-28 0 -28 -33v-53h59v-110h-59v-405h-133z" />
    <glyph glyph-name="fl" unicode="fl" horiz-adv-x="479" 
d="M311 0v700h133v-700h-133zM66 0v405h-49v110h49v57q0 135 130 135q44 0 70 -7v-101q-26 2 -39 2q-28 0 -28 -33v-53h59v-110h-59v-405h-133z" />
    <glyph glyph-name=".notdef" horiz-adv-x="775" 
d="M116 0v664h543v-664h-543zM221 93h333v478h-333v-478z" />
    <glyph glyph-name=".null" horiz-adv-x="0" 
 />
    <glyph glyph-name=".null" horiz-adv-x="0" 
 />
    <glyph glyph-name="nonmarkingreturn" horiz-adv-x="333" 
 />
    <glyph glyph-name="CR" unicode="&#xd;" horiz-adv-x="146" 
 />
    <glyph glyph-name="space" unicode=" " horiz-adv-x="146" 
 />
    <glyph glyph-name="exclam" unicode="!" horiz-adv-x="262" 
d="M67 0v143h128v-143h-128zM92 205l-30 250v245h138v-245l-29 -250h-79z" />
    <glyph glyph-name="quotedbl" unicode="&#x22;" horiz-adv-x="376" 
d="M64 425l-27 145v130h119v-130l-25 -145h-67zM246 425l-27 145v130h119v-130l-25 -145h-67z" />
    <glyph glyph-name="numbersign" unicode="#" horiz-adv-x="432" 
d="M76 0l15 156h-62l10 81h60l22 228h-67l9 81h65l14 154h75l-15 -154h68l15 154h74l-14 -154h62l-7 -81h-63l-22 -228h67l-6 -81h-69l-16 -156h-73l16 156h-70l-16 -156h-72zM173 237h69l21 228h-69z" />
    <glyph glyph-name="dollar" unicode="$" horiz-adv-x="414" 
d="M179 -70v84q-65 5 -108 46t-43 127v31h129v-18q0 -74 47 -74q42 0 42 60q0 45 -51 86l-62 51q-22 18 -35 30.5t-31.5 36.5t-27.5 54.5t-9 67.5v4q0 73 40.5 120.5t108.5 57.5v74h63v-75q66 -8 102.5 -51.5t36.5 -118.5v-31h-128v32q0 58 -49 58q-23 0 -35 -16.5
t-12 -39.5q0 -8 2 -16t7.5 -16.5t10 -14.5t13.5 -14.5l13 -12.5t14.5 -12.5t12.5 -10.5l59 -52q94 -79 94 -181v-3q0 -73 -36 -120.5t-105 -57.5v-85h-63z" />
    <glyph glyph-name="percent" unicode="%" horiz-adv-x="531" 
d="M133 377q-46 0 -73 24.5t-27 63.5v146q0 44 26 70t74 26t74 -25t26 -67v-150q0 -37 -27.5 -62.5t-72.5 -25.5zM133 442q23 0 23 27v147q0 26 -23 26t-23 -26v-147q0 -27 23 -27zM398 -9q-45 0 -72.5 24.5t-27.5 64.5v141q0 44 26 70t74 26t74.5 -25t26.5 -67v-145
q0 -38 -28 -63.5t-73 -25.5zM398 56q24 0 24 27v144q0 25 -24 25q-23 0 -23 -25v-144q0 -27 23 -27zM146 -11l-48 15l289 708l46 -15z" />
    <glyph glyph-name="ampersand" unicode="&#x26;" horiz-adv-x="514" 
d="M205 -12q-84 0 -129.5 57t-45.5 138q0 136 117 210q-29 53 -41.5 86.5t-12.5 72.5q0 73 42 116.5t121 43.5q81 0 121 -42.5t40 -108.5q0 -54 -27 -107t-84 -87l67 -129q10 32 21 103l97 -11q-12 -105 -60 -202l71 -128h-145l-21 42q-65 -54 -131 -54zM234 98q27 0 57 30
l-92 175q-35 -31 -35 -103q0 -39 18.5 -70.5t51.5 -31.5zM263 447q42 37 42 105q0 25 -11.5 44t-33.5 19q-40 0 -40 -53q0 -33 43 -115z" />
    <glyph glyph-name="quotesingle" unicode="'" horiz-adv-x="194" 
d="M64 425l-27 145v130h120v-130l-26 -145h-67z" />
    <glyph glyph-name="parenleft" unicode="(" horiz-adv-x="252" 
d="M155 -166q-60 81 -90.5 204t-30.5 239q0 119 29.5 237t91.5 201l93 -15q-39 -106 -52.5 -150t-24 -113t-10.5 -161q0 -113 21 -211t66 -218z" />
    <glyph glyph-name="parenright" unicode=")" horiz-adv-x="252" 
d="M98 -166l-94 13q45 120 66 218t21 211q0 131 -16.5 203.5t-70.5 220.5l94 15q62 -83 91 -201t29 -237q0 -116 -30 -239t-90 -204z" />
    <glyph glyph-name="asterisk" unicode="*" horiz-adv-x="391" 
d="M126 359l-70 47l69 104l-104 59l42 73l91 -52v110h84v-110l90 52l42 -73l-103 -59l69 -104l-70 -47l-70 104z" />
    <glyph glyph-name="plus" unicode="+" 
d="M169 190v128h-128v83h128v129h82v-129h128v-83h-128v-128h-82z" />
    <glyph glyph-name="comma" unicode="," horiz-adv-x="212" 
d="M46 -125l47 125h-50v143h127v-131l-61 -137h-63z" />
    <glyph glyph-name="hyphen" unicode="-" horiz-adv-x="275" 
d="M23 219v107h230v-107h-230z" />
    <glyph glyph-name="period" unicode="." horiz-adv-x="212" 
d="M42 0v143h128v-143h-128z" />
    <glyph glyph-name="slash" unicode="/" horiz-adv-x="279" 
d="M-8 -156l166 856h102l-164 -856h-104z" />
    <glyph glyph-name="zero" unicode="0" horiz-adv-x="429" 
d="M216 -12q-86 0 -133.5 43t-47.5 119v395q0 77 50.5 122t126.5 45q81 0 131.5 -42.5t50.5 -118.5v-400q0 -72 -49 -117.5t-129 -45.5zM215 101q19 0 30 12.5t11 32.5v410q0 19 -12 31t-31 12t-29.5 -12t-10.5 -32v-409q0 -19 12 -32t30 -13z" />
    <glyph glyph-name="one" unicode="1" horiz-adv-x="305" 
d="M100 0v543h-49v106q69 0 78 51h109v-700h-138z" />
    <glyph glyph-name="two" unicode="2" horiz-adv-x="414" 
d="M43 0v96q117 199 159 288t42 138q0 37 -9 56.5t-37 19.5q-41 0 -41 -60v-41h-127v48q0 77 45 122t132 45t130 -47.5t43 -124.5v-12q0 -17 -2.5 -34.5t-5 -31.5t-10 -34.5t-11.5 -33.5t-17 -38l-19 -37t-23.5 -43l-25.5 -44.5l-30 -51.5t-32 -54h172v-126h-333z" />
    <glyph glyph-name="three" unicode="3" horiz-adv-x="418" 
d="M208 -14q-95 0 -135 50.5t-40 128.5v41h132v-44q0 -61 44 -61q26 0 35 16.5t9 51.5v55q0 74 -60 74h-64v116h61q35 0 48 16.5t13 56.5v51q0 59 -45 59q-42 0 -42 -57v-44h-127v44q0 81 46 126.5t122 45.5q87 0 132.5 -47.5t45.5 -129.5v-8q0 -55 -21.5 -100t-66.5 -62v-4
q100 -31 100 -161v-6q0 -110 -54.5 -159t-132.5 -49z" />
    <glyph glyph-name="four" unicode="4" 
d="M214 0v170h-191v105l165 425h157v-410h51v-120h-50v-170h-132zM129 290h85v213h-5z" />
    <glyph glyph-name="five" unicode="5" horiz-adv-x="421" 
d="M211 -12q-85 0 -131 42t-46 122v60h133v-58q0 -53 44 -53q40 0 40 58v134q0 25 -10 37t-33 12q-32 0 -45 -41h-125l14 399h316l-6 -122h-191l-6 -165q38 40 95 40q129 0 129 -134v-155q0 -90 -52 -133t-126 -43z" />
    <glyph glyph-name="six" unicode="6" horiz-adv-x="429" 
d="M216 -12q-98 0 -139.5 48t-41.5 119v376q0 82 46 131.5t134 49.5q81 0 127 -43.5t46 -119.5v-52h-128v51q0 51 -43 51q-44 0 -44 -56v-149q15 18 42 28.5t52 10.5q65 0 96 -34.5t31 -92.5v-149q0 -70 -44 -119.5t-134 -49.5zM214 102q42 0 42 46v136q0 41 -36 41
q-22 0 -34.5 -16t-12.5 -37v-124q0 -46 41 -46z" />
    <glyph glyph-name="seven" unicode="7" horiz-adv-x="381" 
d="M50 0l180 578h-208v122h337v-107l-162 -593h-147z" />
    <glyph glyph-name="eight" unicode="8" horiz-adv-x="429" 
d="M213 -12q-78 0 -128 40.5t-50 120.5v68q0 93 64 139q-57 30 -57 120v69q0 80 47.5 123.5t123.5 43.5q78 0 126 -42.5t48 -124.5v-71q0 -40 -15 -72.5t-46 -45.5q33 -17 50.5 -54.5t17.5 -79.5v-63q0 -83 -50 -127t-131 -44zM214 96q42 0 42 48v117q0 20 -11.5 31.5
t-31.5 11.5q-40 0 -40 -48v-112q0 -48 41 -48zM215 401q39 0 39 53v105q0 45 -41 45q-38 0 -38 -46v-104q0 -23 10.5 -38t29.5 -15z" />
    <glyph glyph-name="nine" unicode="9" horiz-adv-x="429" 
d="M214 -12q-82 0 -128 43t-46 120v56h129v-55q0 -51 43 -51q44 0 44 56v150q-36 -36 -85 -36q-66 0 -101 35.5t-35 91.5v147q0 70 44.5 118.5t134.5 48.5q98 0 139 -47.5t41 -118.5v-377q0 -82 -46.5 -131.5t-133.5 -49.5zM211 379q22 0 33.5 15.5t11.5 35.5v123
q0 45 -41 45q-42 0 -42 -44v-134q0 -41 38 -41z" />
    <glyph glyph-name="colon" unicode=":" horiz-adv-x="212" 
d="M42 375v143h128v-143h-128zM42 0v143h128v-143h-128z" />
    <glyph glyph-name="semicolon" unicode=";" horiz-adv-x="212" 
d="M46 -125l47 125h-50v143h127v-131l-61 -137h-63zM42 375v143h128v-143h-128z" />
    <glyph glyph-name="less" unicode="&#x3c;" 
d="M333 173l-286 151v61l288 149l40 -72l-213 -108l211 -109z" />
    <glyph glyph-name="equal" unicode="=" 
d="M41 235v82h338v-82h-338zM41 393v83h338v-83h-338z" />
    <glyph glyph-name="greater" unicode="&#x3e;" 
d="M88 173l-41 72l212 109l-213 108l40 72l287 -149v-61z" />
    <glyph glyph-name="question" unicode="?" horiz-adv-x="384" 
d="M125 0v143h128v-143h-128zM132 205v80q0 45 15.5 81.5t33.5 57t33.5 51t15.5 63.5q0 18 -1.5 28.5t-11 21.5t-27.5 11q-37 0 -37 -48v-47h-124v43q0 76 44 120t122 44q76 0 119.5 -45.5t43.5 -116.5q0 -54 -18 -96.5t-39 -65t-39 -51.5t-18 -60v-71h-112z" />
    <glyph glyph-name="at" unicode="@" horiz-adv-x="683" 
d="M340 -130q-155 0 -230 94t-75 269q0 125 36 222.5t112 156.5t183 59q138 0 210.5 -81.5t72.5 -234.5q0 -135 -55 -231.5t-148 -96.5q-30 0 -51 20.5t-26 53.5q-43 -76 -94 -76q-41 0 -69 42.5t-28 123.5q0 58 11 115t33 109t61.5 84t91.5 32q69 0 123 -33l-37 -341
q-1 -4 -1 -19q0 -32 24 -32q40 0 66 77t26 176q0 121 -52.5 185t-155.5 64q-130 0 -194 -100t-64 -277q0 -136 58 -217.5t174 -81.5q98 0 201 41l17 -48q-88 -55 -220 -55zM317 131q19 0 36 22q28 275 28 278q-12 4 -18 4q-35 0 -54.5 -81.5t-19.5 -164.5q0 -26 7.5 -42
t20.5 -16z" />
    <glyph glyph-name="A" unicode="A" horiz-adv-x="480" 
d="M13 0l138 704h176l140 -704h-144l-27 147h-133l-26 -147h-124zM184 262h92l-45 251h-5z" />
    <glyph glyph-name="B" unicode="B" horiz-adv-x="447" 
d="M38 0v700h214q75 0 119 -42.5t44 -134.5v-6q0 -118 -87 -157v-3q43 -16 67 -56.5t24 -94.5v-7q0 -96 -41 -147.5t-108 -51.5h-232zM177 124h45q55 0 55 64v53q0 27 -15.5 43t-41.5 16h-43v-176zM177 412h47q20 0 33.5 13.5t13.5 38.5v56q0 30 -11 43t-37 13h-46v-164z
" />
    <glyph glyph-name="C" unicode="C" horiz-adv-x="433" 
d="M222 -12q-94 0 -140.5 45.5t-46.5 143.5v340q0 97 53 146t140 49q82 0 128 -52t46 -140v-73h-132v76q0 60 -48 60t-48 -60v-344q0 -62 47 -62q49 0 49 60v76h132v-74q0 -85 -48 -138t-132 -53z" />
    <glyph glyph-name="D" unicode="D" horiz-adv-x="447" 
d="M38 0v700h208q166 0 166 -170v-358q0 -172 -165 -172h-209zM177 121h45q29 0 40 13t11 41v350q0 54 -51 54h-45v-458z" />
    <glyph glyph-name="E" unicode="E" horiz-adv-x="383" 
d="M38 0v700h316v-121h-177v-156h142v-123h-142v-179h177v-121h-316z" />
    <glyph glyph-name="F" unicode="F" horiz-adv-x="371" 
d="M38 0v700h316v-127h-177v-146h142v-127h-142v-300h-139z" />
    <glyph glyph-name="G" unicode="G" horiz-adv-x="440" 
d="M191 -12q-156 0 -156 182v349q0 94 53 143.5t136 49.5q80 0 129.5 -49.5t49.5 -135.5v-80h-133v77q0 59 -48 59t-48 -60v-350q0 -59 46 -59q25 0 37 15.5t13 37.5v102h-60v104h193v-373h-66l-21 43q-38 -55 -125 -55z" />
    <glyph glyph-name="H" unicode="H" horiz-adv-x="450" 
d="M38 0v700h139v-280h96v280h139v-700h-139v293h-96v-293h-139z" />
    <glyph glyph-name="I" unicode="I" horiz-adv-x="215" 
d="M38 0v700h139v-700h-139z" />
    <glyph glyph-name="J" unicode="J" horiz-adv-x="426" 
d="M206 -12q-86 0 -134 45t-48 130v71h137v-69q0 -51 46 -51q45 0 45 56v530h139v-525q0 -93 -52.5 -140t-132.5 -47z" />
    <glyph glyph-name="K" unicode="K" horiz-adv-x="448" 
d="M38 0v700h139v-286h4l123 286h129l-111 -250l120 -450h-147l-75 296l-43 -79v-217h-139z" />
    <glyph glyph-name="L" unicode="L" horiz-adv-x="378" 
d="M38 0v700h139v-573h177v-127h-316z" />
    <glyph glyph-name="M" unicode="M" horiz-adv-x="638" 
d="M38 0v700h215l62 -452h3l58 452h224v-700h-140v546h-4l-83 -546h-133l-83 546h-4v-546h-115z" />
    <glyph glyph-name="N" unicode="N" horiz-adv-x="459" 
d="M38 0v700h138l123 -368h3v368h119v-700h-121l-141 401h-2v-401h-119z" />
    <glyph glyph-name="O" unicode="O" horiz-adv-x="444" 
d="M221 117q49 0 49 57v352q0 24 -12.5 40.5t-36.5 16.5q-47 0 -47 -57v-352q0 -57 47 -57zM221 -12q-93 0 -139.5 49t-46.5 136v355q0 83 51.5 133.5t136.5 50.5t135.5 -51.5t50.5 -137.5v-351q0 -81 -52 -132.5t-136 -51.5z" />
    <glyph glyph-name="P" unicode="P" horiz-adv-x="436" 
d="M38 0v700h185q101 0 146 -51.5t45 -156.5v-8q0 -100 -45.5 -159.5t-135.5 -59.5h-56v-265h-139zM177 381h46q48 0 48 58v79q0 58 -49 58h-45v-195z" />
    <glyph glyph-name="Q" unicode="Q" horiz-adv-x="444" 
d="M327 -152q-55 0 -87.5 39t-32.5 101q-86 4 -129 52.5t-43 132.5v355q0 83 51.5 133.5t136.5 50.5t135.5 -51.5t50.5 -137.5v-351q0 -57 -26 -100t-72 -63v-10q0 -38 42 -38q21 0 46 5v-107q-30 -11 -72 -11zM221 117q49 0 49 57v352q0 24 -12.5 40.5t-36.5 16.5
q-47 0 -47 -57v-352q0 -57 47 -57z" />
    <glyph glyph-name="R" unicode="R" horiz-adv-x="454" 
d="M38 0v700h195q182 0 182 -177v-7q0 -57 -26 -99.5t-69 -58.5v-2q51 -12 68.5 -46t18.5 -94l4 -140q2 -43 17 -70v-6h-138q-15 25 -17 75l-4 132q-1 34 -14.5 51t-46.5 17h-31v-275h-139zM177 381h44q52 0 52 63v69q0 26 -12.5 44t-39.5 18h-44v-194z" />
    <glyph glyph-name="S" unicode="S" horiz-adv-x="411" 
d="M204 -12q-32 0 -61 8.5t-56.5 28.5t-43.5 58t-16 91v32h130v-18q0 -75 48 -75q43 0 43 60q0 46 -52 90l-63 54q-30 26 -47.5 44.5t-36.5 61.5t-19 95v4q0 86 50 138t130 52q81 0 126.5 -47t45.5 -136v-33h-128v34q0 58 -48 58q-45 0 -45 -57q0 -19 14 -41t23 -30l33 -30
l59 -55q94 -83 94 -192v-4q0 -88 -45.5 -139.5t-134.5 -51.5z" />
    <glyph glyph-name="T" unicode="T" horiz-adv-x="405" 
d="M133 0v573h-115v127h369v-127h-115v-573h-139z" />
    <glyph glyph-name="U" unicode="U" horiz-adv-x="439" 
d="M220 -12q-88 0 -136 46.5t-48 139.5v526h139v-526q0 -24 11.5 -42t36.5 -18q48 0 48 62v524h133v-520q0 -90 -46.5 -141t-137.5 -51z" />
    <glyph glyph-name="V" unicode="V" horiz-adv-x="408" 
d="M139 -4l-135 704h140l66 -441h3l66 441h126l-133 -704h-133z" />
    <glyph glyph-name="W" unicode="W" horiz-adv-x="673" 
d="M135 -4l-126 704h140l60 -388h3l61 388h144l62 -388h3l63 388h119l-125 -704h-120l-79 484h-3l-80 -484h-122z" />
    <glyph glyph-name="X" unicode="X" horiz-adv-x="426" 
d="M2 0l135 343l-130 357h148l66 -208l73 208h129l-135 -341l133 -359h-141l-73 216l-76 -216h-129z" />
    <glyph glyph-name="Y" unicode="Y" horiz-adv-x="408" 
d="M136 0v293l-133 407h142l69 -242h1l66 242h123l-129 -407v-293h-139z" />
    <glyph glyph-name="Z" unicode="Z" horiz-adv-x="393" 
d="M25 0v58l171 515h-165v127h338v-58l-177 -515h174v-127h-341z" />
    <glyph glyph-name="bracketleft" unicode="[" horiz-adv-x="252" 
d="M47 -156v856h185v-80h-69v-697h69v-79h-185z" />
    <glyph glyph-name="backslash" unicode="\" horiz-adv-x="279" 
d="M178 -132l-160 832h102l162 -832h-104z" />
    <glyph glyph-name="bracketright" unicode="]" horiz-adv-x="252" 
d="M20 -156v80h69v697h-69v79h185v-856h-185z" />
    <glyph glyph-name="asciicircum" unicode="^" 
d="M94 210l-74 41l160 285h62l157 -288l-72 -39l-116 212z" />
    <glyph glyph-name="underscore" unicode="_" horiz-adv-x="346" 
d="M0 -129v80h346v-80h-346z" />
    <glyph glyph-name="grave" unicode="`" horiz-adv-x="407" 
d="M212 563l-106 145h122l73 -145h-89z" />
    <glyph glyph-name="a" unicode="a" horiz-adv-x="404" 
d="M141 -11q-53 0 -85.5 34t-32.5 92v9q0 78 62.5 132t149.5 75v51q0 42 -39 42t-39 -40v-47h-123v41q0 67 47 109.5t120 42.5q79 0 123 -38.5t44 -116.5v-227q0 -30 1 -65.5t2.5 -58.5t1.5 -24h-123q-4 38 -5 55h-4q-16 -32 -43 -49t-57 -17zM191 94q20 0 32 16t12 38v91
q-80 -24 -80 -92v-12q0 -19 10 -30t26 -11z" />
    <glyph glyph-name="b" unicode="b" horiz-adv-x="410" 
d="M250 -12q-77 0 -112 61h-2l-18 -50h-83v701h133v-236q39 66 104 66q57 0 82.5 -36.5t25.5 -82.5v-284q0 -63 -37.5 -101t-92.5 -38zM211 98q18 0 27 13t9 32v234q0 40 -38 40q-17 0 -29 -14t-12 -35v-252q18 -18 43 -18z" />
    <glyph glyph-name="c" unicode="c" horiz-adv-x="396" 
d="M202 -12q-83 0 -127.5 41.5t-44.5 121.5v214q0 76 49 120.5t121 44.5q74 0 121 -37t47 -108v-66h-124v55q0 20 -11 33.5t-30 13.5t-29.5 -13t-10.5 -31v-236q0 -18 10 -30.5t31 -12.5q16 0 28 12t12 28v62h124v-62q0 -74 -46.5 -112t-119.5 -38z" />
    <glyph glyph-name="d" unicode="d" horiz-adv-x="410" 
d="M149 -12q-58 0 -88.5 35.5t-30.5 98.5v270q0 53 32 95.5t93 42.5q10 0 18.5 -1t16.5 -4t14 -5.5t12.5 -7l9.5 -6.5t10 -8l6 -5v207h133v-700h-125v53h-4q-15 -31 -41 -48t-56 -17zM201 101q20 0 30.5 13.5t10.5 33.5v248q-16 21 -41 21q-38 0 -38 -45v-231q0 -40 38 -40z
" />
    <glyph glyph-name="e" unicode="e" horiz-adv-x="402" 
d="M205 -12q-83 0 -129 42t-46 120v217q0 71 48.5 117t128.5 46q78 0 122.5 -44.5t44.5 -117.5v-138h-211v-87q0 -48 42 -48q19 0 30.5 11t11.5 32v35h126v-35q0 -68 -45.5 -109t-122.5 -41zM163 322h81v66q0 19 -11 30.5t-29 11.5q-19 0 -30 -12t-11 -34v-62z" />
    <glyph glyph-name="f" unicode="f" horiz-adv-x="276" 
d="M66 0v405h-49v110h49v57q0 135 130 135q44 0 70 -7v-101q-26 2 -39 2q-28 0 -28 -33v-53h59v-110h-59v-405h-133z" />
    <glyph glyph-name="g" unicode="g" horiz-adv-x="397" 
d="M176 -167q-165 0 -165 117q0 26 17.5 51t42.5 39v1q-27 22 -27 65q0 25 18.5 50t45.5 38v2q-33 13 -54 45t-21 72v71q0 64 41.5 105t112.5 41q54 0 87 -16h112v-97l-54 19l-1 -1q17 -26 17 -56v-61q0 -60 -41 -99t-111 -39h-14q-17 -10 -17 -29t40 -26l53 -9
q116 -20 116 -123q0 -75 -55 -117.5t-143 -42.5zM191 274q36 0 36 42v68q0 43 -37 43q-35 0 -35 -44v-67q0 -42 36 -42zM178 -72q28 0 49.5 10.5t21.5 33.5q0 27 -46 34q-41 5 -67 11q-27 -19 -27 -42q0 -47 69 -47z" />
    <glyph glyph-name="h" unicode="h" horiz-adv-x="413" 
d="M35 0v700h133v-242h1q38 72 108 72q48 0 75.5 -29.5t27.5 -72.5v-428h-133v367q0 47 -39 47q-21 0 -30.5 -16.5t-9.5 -36.5v-361h-133z" />
    <glyph glyph-name="i" unicode="i" horiz-adv-x="203" 
d="M35 0v518h133v-518h-133zM35 566v134h133v-134h-133z" />
    <glyph glyph-name="j" unicode="j" horiz-adv-x="204" 
d="M42 -162q-24 0 -51 7v108q10 -2 20 -2q26 0 26 39v528h133v-527q0 -153 -128 -153zM37 566v134h133v-134h-133z" />
    <glyph glyph-name="k" unicode="k" horiz-adv-x="401" 
d="M32 0v700h133v-379h2l94 197h128l-94 -184l100 -334h-139l-60 222l-31 -64v-158h-133z" />
    <glyph glyph-name="l" unicode="l" horiz-adv-x="203" 
d="M35 0v700h133v-700h-133z" />
    <glyph glyph-name="m" unicode="m" horiz-adv-x="625" 
d="M35 0v518h129v-60h2q15 34 44 53t66 19q40 0 66 -21.5t34 -57.5q34 79 114 79q46 0 74 -32.5t28 -76.5v-421h-133v367q0 47 -38 47q-41 0 -41 -58v-356h-133v369q0 45 -39 45q-40 0 -40 -56v-358h-133z" />
    <glyph glyph-name="n" unicode="n" horiz-adv-x="413" 
d="M35 0v518h129v-60h2q32 72 109 72q51 0 78 -33t27 -82v-415h-133v367q0 47 -39 47q-21 0 -30.5 -16.5t-9.5 -36.5v-361h-133z" />
    <glyph glyph-name="o" unicode="o" horiz-adv-x="407" 
d="M203 -12q-84 0 -128.5 45t-44.5 122v209q0 76 49 121t125 45t124.5 -45t48.5 -119v-204q0 -82 -46 -128t-128 -46zM203 98q41 0 41 42v238q0 19 -11 30.5t-30 11.5q-40 0 -40 -43v-237q0 -19 10.5 -30.5t29.5 -11.5z" />
    <glyph glyph-name="p" unicode="p" horiz-adv-x="410" 
d="M35 -156v674h129v-60q18 38 49 55t58 17q56 0 82.5 -35t26.5 -86v-290q0 -50 -28 -90.5t-88 -40.5q-28 0 -54.5 13.5t-39.5 34.5h-2v-192h-133zM210 98q37 0 37 46v233q0 40 -37 40q-18 0 -30 -14.5t-12 -34.5v-252q18 -18 42 -18z" />
    <glyph glyph-name="q" unicode="q" horiz-adv-x="410" 
d="M242 -156v200q-34 -56 -96 -56q-61 0 -88.5 35t-27.5 84v281q0 59 34 100.5t98 41.5q59 0 98 -47l14 42h101v-681h-133zM201 101q20 0 30.5 13.5t10.5 33.5v248q-16 21 -41 21q-38 0 -38 -45v-231q0 -40 38 -40z" />
    <glyph glyph-name="r" unicode="r" horiz-adv-x="311" 
d="M35 0v518h124v-94h3q15 42 43 70t61 28q19 0 28 -2v-137q-14 2 -23 2q-44 0 -73.5 -27t-29.5 -70v-288h-133z" />
    <glyph glyph-name="s" unicode="s" horiz-adv-x="384" 
d="M196 -12q-78 0 -123.5 34.5t-45.5 101.5v35h123v-21q0 -46 41 -46q39 0 39 42q0 18 -12 30t-42 32l-59 37q-82 52 -82 142q0 70 43.5 112.5t120.5 42.5q66 0 110.5 -35.5t44.5 -93.5v-40h-118v24q0 44 -39 44q-19 0 -28.5 -11.5t-9.5 -27.5q0 -29 49 -59l64 -41
q86 -54 86 -146q0 -69 -43 -112.5t-119 -43.5z" />
    <glyph glyph-name="t" unicode="t" horiz-adv-x="311" 
d="M194 -9q-124 0 -124 123v289h-53v108l53 5v110l133 44v-154h81v-113h-81v-255q0 -18 6.5 -27t25.5 -9q20 0 41 6v-114q-40 -13 -82 -13z" />
    <glyph glyph-name="u" unicode="u" horiz-adv-x="413" 
d="M138 -12q-51 0 -78 33.5t-27 81.5v415h133v-361q0 -52 37 -52q42 0 42 58v355h133v-518h-128v62h-3q-33 -74 -109 -74z" />
    <glyph glyph-name="v" unicode="v" horiz-adv-x="384" 
d="M124 -4l-119 522h137l55 -321h4l58 321h121l-119 -522h-137z" />
    <glyph glyph-name="w" unicode="w" horiz-adv-x="572" 
d="M119 -2l-113 520h130l48 -273h4l53 273h119l46 -273h3l50 273h107l-113 -520h-97l-63 303h-3l-65 -303h-106z" />
    <glyph glyph-name="x" unicode="x" horiz-adv-x="356" 
d="M-3 0l113 258l-108 260h132l53 -134l51 134h115l-108 -240l114 -278h-131l-59 150l-59 -150h-113z" />
    <glyph glyph-name="y" unicode="y" horiz-adv-x="384" 
d="M102 -167q-42 0 -67 8v108q27 -5 53 -5q36 0 40 33l3 14l-127 527h138l54 -323h3l59 323h122l-119 -516q-21 -91 -60 -130t-99 -39z" />
    <glyph glyph-name="z" unicode="z" horiz-adv-x="350" 
d="M16 0v16l151 389h-137v113h305v-12l-149 -385h135v-121h-305z" />
    <glyph glyph-name="braceleft" unicode="{" horiz-adv-x="259" 
d="M158 -156q-46 0 -73.5 30.5t-27.5 90.5v224q0 38 -9 54.5t-35 20.5v74q29 6 36.5 17t7.5 41v181q0 61 27.5 92t73.5 31h79v-78h-42q-24 0 -24 -27v-173q0 -50 -13 -77t-46 -40v-6q36 -14 47.5 -37.5t11.5 -77.5v-236q0 -26 23 -26h43v-78h-79z" />
    <glyph glyph-name="bar" unicode="|" horiz-adv-x="248" 
d="M76 -78v779h96v-779h-96z" />
    <glyph glyph-name="braceright" unicode="}" horiz-adv-x="259" 
d="M23 -156v78h42q24 0 24 26v236q0 54 11.5 77.5t47.5 37.5v6q-33 13 -46 40t-13 77v173q0 27 -24 27h-42v78h79q46 0 73 -30.5t27 -92.5v-181q0 -30 8 -41t37 -17v-74q-26 -4 -35.5 -20t-9.5 -55v-224q0 -60 -27.5 -90.5t-73.5 -30.5h-78z" />
    <glyph glyph-name="asciitilde" unicode="~" 
d="M115 287l-91 14q10 113 111 113q24 0 76 -11.5t72 -11.5q18 0 20 30l93 -13q-8 -114 -103 -114q-26 0 -78.5 13t-73.5 13t-26 -33z" />
    <glyph glyph-name="uni00A0" unicode="&#xa0;" horiz-adv-x="146" 
 />
    <glyph glyph-name="exclamdown" unicode="&#xa1;" horiz-adv-x="262" 
d="M62 -159v245l29 250h80l29 -250v-245h-138zM67 398v143h128v-143h-128z" />
    <glyph glyph-name="cent" unicode="&#xa2;" horiz-adv-x="396" 
d="M171 -82v83q-141 17 -141 162v214q0 67 39.5 110t101.5 52v86h64v-86q61 -8 97 -44t36 -99v-65h-124v54q0 20 -11 34t-30 14q-18 0 -29 -13.5t-11 -30.5v-236q0 -43 41 -43q16 0 28 11.5t12 27.5v62h124v-62q0 -65 -36.5 -102t-96.5 -45v-84h-64z" />
    <glyph glyph-name="sterling" unicode="&#xa3;" horiz-adv-x="440" 
d="M26 0v115h51v199h-50v74h50v138q0 93 49 139.5t130 46.5q76 0 116 -44.5t40 -125.5v-48h-119v59q0 47 -42 47q-41 0 -41 -47v-165h141v-74h-141v-199h203l-24 -115h-363z" />
    <glyph glyph-name="currency" unicode="&#xa4;" horiz-adv-x="458" 
d="M103 130l-66 64l47 46q-24 37 -24 85q0 41 19 81l-48 48l67 63l45 -46q46 25 86 25q41 0 80 -22l48 50l66 -66l-47 -46q26 -44 26 -87q0 -44 -22 -81l47 -46l-62 -65l-48 46q-43 -23 -87 -23q-35 0 -79 21zM230 243q37 0 57 23.5t20 58.5q0 37 -21 60.5t-56 23.5
q-36 0 -56 -23.5t-20 -60.5q0 -34 20.5 -58t55.5 -24z" />
    <glyph glyph-name="yen" unicode="&#xa5;" horiz-adv-x="408" 
d="M136 0v211h-109v73h105l-13 43h-92v75h69l-93 298h142l69 -250h1l66 250h123l-89 -299l66 1v-75h-89l-13 -43h102v-73h-106v-211h-139z" />
    <glyph glyph-name="brokenbar" unicode="&#xa6;" horiz-adv-x="272" 
d="M95 -56v371h82v-371h-82zM95 371v330h82v-330h-82z" />
    <glyph glyph-name="section" unicode="&#xa7;" horiz-adv-x="445" 
d="M221 -159q-80 0 -128 41t-48 117v52h111v-32q0 -77 61 -77q52 0 52 62q0 16 -12.5 32.5t-21.5 23.5l-31 23l-57 39q-51 34 -76.5 67t-25.5 83q0 86 86 133q-84 60 -84 136q0 78 49 121.5t127 43.5q73 0 120.5 -41t47.5 -110v-46h-112v31q0 65 -58 65q-23 0 -36 -14.5
t-13 -39.5q0 -13 12.5 -29t23 -24.5t34.5 -25.5l60 -41q51 -37 75 -68t24 -81q0 -82 -85 -134q79 -60 79 -138q0 -76 -49.5 -122.5t-124.5 -46.5zM241 204q43 16 43 63q0 27 -25 45l-55 40q-22 -7 -33 -25.5t-11 -38.5q0 -32 46 -61z" />
    <glyph glyph-name="dieresis" unicode="&#xa8;" horiz-adv-x="407" 
d="M70 568v129h111v-129h-111zM227 568v129h110v-129h-110z" />
    <glyph glyph-name="copyright" unicode="&#xa9;" horiz-adv-x="669" 
d="M335 -38q-81 0 -140.5 29t-92.5 81.5t-48.5 117t-15.5 144.5q0 78 17 144t52 118t93 81.5t135 29.5q79 0 138 -29t92.5 -81.5t49.5 -118t16 -144.5t-16.5 -144t-50.5 -117.5t-92.5 -81.5t-136.5 -29zM335 19q126 0 180.5 79.5t54.5 235.5q0 318 -235 318
q-126 0 -180.5 -80.5t-54.5 -237.5q0 -155 56.5 -235t178.5 -80zM335 72q-72 0 -115.5 38.5t-43.5 106.5v244q0 67 46.5 104.5t112.5 37.5t106.5 -37t40.5 -102v-49h-108v49q0 42 -41 42q-40 0 -40 -42v-253q0 -41 42 -41q17 0 28 10.5t11 24.5v55h108v-50q0 -62 -42 -100
t-105 -38z" />
    <glyph glyph-name="ordfeminine" unicode="&#xaa;" horiz-adv-x="322" 
d="M55 219v71h217v-71h-217zM123 332q-40 0 -62.5 23t-22.5 65q0 57 42.5 92t106.5 51v43q0 28 -29 28q-27 0 -27 -26v-38h-86v37q0 44 33 73.5t87 29.5t84 -27t30 -79v-173q0 -18 1.5 -39.5l2.5 -36.5t1 -16h-87q-2 9 -4 29q-25 -36 -70 -36zM154 405q14 0 23.5 11t9.5 28
v54q-57 -18 -57 -66q0 -27 24 -27z" />
    <glyph glyph-name="guillemotleft" unicode="&#xab;" horiz-adv-x="402" 
d="M94 140l-72 142v17l74 142h108l-75 -151l72 -150h-107zM269 140l-72 142v17l74 142h108l-75 -151l72 -150h-107z" />
    <glyph glyph-name="logicalnot" unicode="&#xac;" 
d="M319 209v108h-300v86h381v-194h-81z" />
    <glyph glyph-name="uni00AD" unicode="&#xad;" horiz-adv-x="275" 
d="M23 219v107h230v-107h-230z" />
    <glyph glyph-name="registered" unicode="&#xae;" horiz-adv-x="391" 
d="M194 283q-89 0 -130 60.5t-41 155.5q0 93 44 154t129 61q88 0 130.5 -60t42.5 -155q0 -93 -44 -154.5t-131 -61.5zM196 317q71 0 102 46.5t31 135.5q0 184 -133 184q-74 0 -103.5 -46.5t-29.5 -137.5q0 -182 133 -182zM118 364v275h84q76 0 76 -69v-4q0 -22 -11 -38.5
t-30 -22.5v-1q22 -4 29.5 -18t8.5 -38l2 -53q2 -20 6 -29v-2h-60q-6 10 -6 30l-2 51q0 26 -25 26h-11v-107h-61zM179 514h17q19 0 19 23v28q0 23 -19 23h-17v-74z" />
    <glyph glyph-name="macron" unicode="&#xaf;" horiz-adv-x="407" 
d="M80 577v87h246v-87h-246z" />
    <glyph glyph-name="degree" unicode="&#xb0;" horiz-adv-x="275" 
d="M138 528q-44 0 -71 28.5t-27 70.5t27.5 70.5t70.5 28.5t70.5 -28.5t27.5 -70.5t-27.5 -70.5t-70.5 -28.5zM138 585q17 0 27 11.5t10 30.5t-10 30.5t-27 11.5t-27.5 -11.5t-10.5 -30.5t10.5 -30.5t27.5 -11.5z" />
    <glyph glyph-name="plusminus" unicode="&#xb1;" 
d="M169 243v128h-128v83h128v129h82v-129h128v-83h-128v-128h-82zM41 103v83h338v-83h-338z" />
    <glyph glyph-name="twosuperior" unicode="&#xb2;" horiz-adv-x="268" 
d="M35 400v63q74 109 96 151.5t22 69.5q0 13 -1 20t-6.5 13t-15.5 6q-23 0 -23 -34v-20h-85v27q0 104 114 104q54 0 81 -28t27 -72v-3q0 -44 -19.5 -83t-79.5 -131h99v-83h-209z" />
    <glyph glyph-name="threesuperior" unicode="&#xb3;" horiz-adv-x="268" 
d="M130 389q-58 0 -83 28.5t-25 72.5v28h85v-26q0 -31 25 -31q23 0 23 34v29q0 39 -35 39h-40v68h39q21 0 28 8.5t7 29.5v21q0 32 -25 32q-23 0 -23 -31v-24h-81v32q0 46 28.5 72.5t74.5 26.5q53 0 82 -27t29 -73v-5q0 -70 -54 -91v-2q60 -18 60 -91v-3q0 -62 -33.5 -89.5
t-81.5 -27.5z" />
    <glyph glyph-name="acute" unicode="&#xb4;" horiz-adv-x="407" 
d="M106 563l72 145h122l-105 -145h-89z" />
    <glyph glyph-name="mu" unicode="&#xb5;" horiz-adv-x="430" 
d="M31 -178v696h133v-366q0 -46 36 -46q41 0 41 54v358h134v-325q0 -27 1.5 -36t9.5 -18t27 -15v-125q-94 5 -111 59q-22 -69 -90 -69q-22 0 -45 17.5t-30 53.5l-6 -2l24 -205z" />
    <glyph glyph-name="paragraph" unicode="&#xb6;" horiz-adv-x="518" 
d="M180 -156v359q-67 20 -103.5 80t-36.5 147q0 125 57 198t172 73h215v-85h-61v-772h-86v772h-71v-772h-86z" />
    <glyph glyph-name="periodcentered" unicode="&#xb7;" horiz-adv-x="212" 
d="M42 300v143h128v-143h-128z" />
    <glyph glyph-name="cedilla" unicode="&#xb8;" horiz-adv-x="407" 
d="M189 -175q-46 0 -82 9l8 52q33 -6 58 -6q34 0 34 22q0 24 -54 27l22 84h45l-12 -49q91 -7 91 -63q0 -35 -31 -55.5t-79 -20.5z" />
    <glyph glyph-name="onesuperior" unicode="&#xb9;" horiz-adv-x="268" 
d="M100 400v299h-27v66q38 0 44 29h77v-394h-94z" />
    <glyph glyph-name="ordmasculine" unicode="&#xba;" horiz-adv-x="322" 
d="M52 219v71h218v-71h-218zM160 331q-59 0 -91 31.5t-32 87.5v138q0 56 35 89.5t90 33.5t89 -30.5t34 -85.5v-141q0 -55 -33.5 -89t-91.5 -34zM161 413q31 0 31 33v152q0 31 -31 31t-31 -32v-153q0 -31 31 -31z" />
    <glyph glyph-name="guillemotright" unicode="&#xbb;" horiz-adv-x="402" 
d="M26 140l72 150l-75 151h108l74 -142v-17l-72 -142h-107zM201 140l72 150l-75 151h108l74 -142v-17l-72 -142h-107z" />
    <glyph glyph-name="onequarter" unicode="&#xbc;" horiz-adv-x="612" 
d="M75 312v299h-27v66q38 0 44 29h77v-394h-94zM168 -11l-48 15l289 708l46 -15zM453 0v94h-119v62l100 238h103v-229h30v-71h-30v-94h-84zM403 165h50v115h-3z" />
    <glyph glyph-name="onehalf" unicode="&#xbd;" horiz-adv-x="612" 
d="M364 0v63q74 109 96 151.5t22 69.5q0 13 -1 20t-6.5 13t-15.5 6q-23 0 -23 -34v-20h-85v27q0 104 114 104q54 0 81 -28t27 -72v-3q0 -44 -19.5 -83t-79.5 -131h99v-83h-209zM73 312v299h-27v66q38 0 44 29h77v-394h-94zM168 -11l-48 15l289 708l46 -15z" />
    <glyph glyph-name="threequarters" unicode="&#xbe;" horiz-adv-x="612" 
d="M130 301q-58 0 -83 28.5t-25 72.5v28h85v-26q0 -31 25 -31q23 0 23 34v29q0 39 -35 39h-40v68h39q21 0 28 8.5t7 29.5v21q0 32 -25 32q-23 0 -23 -31v-24h-81v32q0 46 28.5 72.5t74.5 26.5q53 0 82 -27t29 -73v-5q0 -70 -54 -91v-2q60 -18 60 -91v-3q0 -62 -33.5 -89.5
t-81.5 -27.5zM192 -11l-48 15l289 708l46 -15zM462 0v94h-119v62l100 238h103v-229h30v-71h-30v-94h-84zM412 165h50v115h-3z" />
    <glyph glyph-name="questiondown" unicode="&#xbf;" horiz-adv-x="384" 
d="M191 -170q-75 0 -118.5 45t-43.5 117q0 54 18 96.5t39 65t39 51.5t18 60v71h112v-80q0 -45 -15.5 -81.5t-33.5 -57t-33.5 -51t-15.5 -63.5q0 -18 1.5 -28.5t11 -21.5t27.5 -11q37 0 37 49v46h124v-43q0 -76 -44.5 -120t-122.5 -44zM134 398v143h128v-143h-128z" />
    <glyph glyph-name="Agrave" unicode="&#xc0;" horiz-adv-x="480" 
d="M13 0l138 704h176l140 -704h-144l-27 147h-133l-26 -147h-124zM184 262h92l-45 251h-5zM182 739l-105 145h122l72 -145h-89z" />
    <glyph glyph-name="Aacute" unicode="&#xc1;" horiz-adv-x="480" 
d="M13 0l138 704h176l140 -704h-144l-27 147h-133l-26 -147h-124zM184 262h92l-45 251h-5zM193 739l72 145h122l-105 -145h-89z" />
    <glyph glyph-name="Acircumflex" unicode="&#xc2;" horiz-adv-x="480" 
d="M13 0l138 704h176l140 -704h-144l-27 147h-133l-26 -147h-124zM184 262h92l-45 251h-5zM101 739l92 145h95l91 -145h-97l-42 66l-41 -66h-98z" />
    <glyph glyph-name="Atilde" unicode="&#xc3;" horiz-adv-x="480" 
d="M13 0l138 704h176l140 -704h-144l-27 147h-133l-26 -147h-124zM184 262h92l-45 251h-5zM301 739q-24 0 -62 16t-49 16q-19 0 -26 -39l-80 15q8 57 29.5 84t62.5 27q21 0 59 -14t48 -14q17 0 23 32l81 -13q-6 -110 -86 -110z" />
    <glyph glyph-name="Adieresis" unicode="&#xc4;" horiz-adv-x="480" 
d="M13 0l138 704h176l140 -704h-144l-27 147h-133l-26 -147h-124zM184 262h92l-45 251h-5zM107 747v129h111v-129h-111zM264 747v129h110v-129h-110z" />
    <glyph glyph-name="Aring" unicode="&#xc5;" horiz-adv-x="480" 
d="M13 0l138 704h176l140 -704h-144l-27 147h-133l-26 -147h-124zM184 262h92l-45 251h-5zM240 733q-38 0 -62.5 24.5t-24.5 59.5q0 34 25.5 58.5t61.5 24.5q37 0 62.5 -24t25.5 -58q0 -36 -25.5 -60.5t-62.5 -24.5zM240 779q16 0 25.5 11t9.5 27t-9 26.5t-26 10.5
q-33 0 -33 -37q0 -17 9 -27.5t24 -10.5z" />
    <glyph glyph-name="AE" unicode="&#xc6;" horiz-adv-x="631" 
d="M3 0l191 700h408v-127h-177v-146h142v-127h-142v-173h177v-127h-316v191h-102l-48 -191h-133zM211 307h75v266h-7z" />
    <glyph glyph-name="Ccedilla" unicode="&#xc7;" horiz-adv-x="433" 
d="M222 -175q-46 0 -82 9l8 52q33 -6 58 -6q34 0 34 22q0 24 -54 27l15 60q-166 9 -166 188v340q0 97 53 146t140 49q82 0 128 -52t46 -140v-73h-132v76q0 60 -48 60t-48 -60v-344q0 -62 47 -62q49 0 49 60v76h132v-74q0 -79 -41 -130.5t-114 -58.5l-6 -26q91 -7 91 -63
q0 -35 -31 -55.5t-79 -20.5z" />
    <glyph glyph-name="Egrave" unicode="&#xc8;" horiz-adv-x="383" 
d="M38 0v700h316v-121h-177v-156h142v-123h-142v-179h177v-121h-316zM138 739l-105 145h122l72 -145h-89z" />
    <glyph glyph-name="Eacute" unicode="&#xc9;" horiz-adv-x="383" 
d="M38 0v700h316v-121h-177v-156h142v-123h-142v-179h177v-121h-316zM149 739l72 145h122l-105 -145h-89z" />
    <glyph glyph-name="Ecircumflex" unicode="&#xca;" horiz-adv-x="383" 
d="M38 0v700h316v-121h-177v-156h142v-123h-142v-179h177v-121h-316zM57 739l92 145h95l91 -145h-97l-42 66l-41 -66h-98z" />
    <glyph glyph-name="Edieresis" unicode="&#xcb;" horiz-adv-x="383" 
d="M38 0v700h316v-121h-177v-156h142v-123h-142v-179h177v-121h-316zM63 747v129h111v-129h-111zM220 747v129h110v-129h-110z" />
    <glyph glyph-name="Igrave" unicode="&#xcc;" horiz-adv-x="215" 
d="M38 0v700h139v-700h-139zM49 739l-105 145h122l72 -145h-89z" />
    <glyph glyph-name="Iacute" unicode="&#xcd;" horiz-adv-x="215" 
d="M38 0v700h139v-700h-139zM60 739l72 145h122l-105 -145h-89z" />
    <glyph glyph-name="Icircumflex" unicode="&#xce;" horiz-adv-x="215" 
d="M38 0v700h139v-700h-139zM-32 739l92 145h95l91 -145h-97l-42 66l-41 -66h-98z" />
    <glyph glyph-name="Idieresis" unicode="&#xcf;" horiz-adv-x="215" 
d="M38 0v700h139v-700h-139zM-26 747v129h111v-129h-111zM131 747v129h110v-129h-110z" />
    <glyph glyph-name="Eth" unicode="&#xd0;" horiz-adv-x="465" 
d="M20 307v98h36v295h208q166 0 166 -170v-358q0 -172 -165 -172h-209v307h-36zM195 121h45q29 0 40 13t11 41v350q0 54 -51 54h-45v-174h53v-98h-53v-186z" />
    <glyph glyph-name="Ntilde" unicode="&#xd1;" horiz-adv-x="459" 
d="M38 0v700h138l123 -368h3v368h119v-700h-121l-141 401h-2v-401h-119zM302 739q-24 0 -62 16t-49 16q-19 0 -26 -39l-80 15q8 57 29.5 84t62.5 27q21 0 59 -14t48 -14q17 0 23 32l81 -13q-6 -110 -86 -110z" />
    <glyph glyph-name="Ograve" unicode="&#xd2;" horiz-adv-x="444" 
d="M221 117q49 0 49 57v352q0 24 -12.5 40.5t-36.5 16.5q-47 0 -47 -57v-352q0 -57 47 -57zM221 -12q-93 0 -139.5 49t-46.5 136v355q0 83 51.5 133.5t136.5 50.5t135.5 -51.5t50.5 -137.5v-351q0 -81 -52 -132.5t-136 -51.5zM164 739l-105 145h122l72 -145h-89z" />
    <glyph glyph-name="Oacute" unicode="&#xd3;" horiz-adv-x="444" 
d="M221 117q49 0 49 57v352q0 24 -12.5 40.5t-36.5 16.5q-47 0 -47 -57v-352q0 -57 47 -57zM221 -12q-93 0 -139.5 49t-46.5 136v355q0 83 51.5 133.5t136.5 50.5t135.5 -51.5t50.5 -137.5v-351q0 -81 -52 -132.5t-136 -51.5zM175 739l72 145h122l-105 -145h-89z" />
    <glyph glyph-name="Ocircumflex" unicode="&#xd4;" horiz-adv-x="444" 
d="M221 117q49 0 49 57v352q0 24 -12.5 40.5t-36.5 16.5q-47 0 -47 -57v-352q0 -57 47 -57zM221 -12q-93 0 -139.5 49t-46.5 136v355q0 83 51.5 133.5t136.5 50.5t135.5 -51.5t50.5 -137.5v-351q0 -81 -52 -132.5t-136 -51.5zM83 739l92 145h95l91 -145h-97l-42 66l-41 -66
h-98z" />
    <glyph glyph-name="Otilde" unicode="&#xd5;" horiz-adv-x="444" 
d="M221 117q49 0 49 57v352q0 24 -12.5 40.5t-36.5 16.5q-47 0 -47 -57v-352q0 -57 47 -57zM221 -12q-93 0 -139.5 49t-46.5 136v355q0 83 51.5 133.5t136.5 50.5t135.5 -51.5t50.5 -137.5v-351q0 -81 -52 -132.5t-136 -51.5zM283 739q-24 0 -62 16t-49 16q-19 0 -26 -39
l-80 15q8 57 29.5 84t62.5 27q21 0 59 -14t48 -14q17 0 23 32l81 -13q-6 -110 -86 -110z" />
    <glyph glyph-name="Odieresis" unicode="&#xd6;" horiz-adv-x="444" 
d="M221 117q49 0 49 57v352q0 24 -12.5 40.5t-36.5 16.5q-47 0 -47 -57v-352q0 -57 47 -57zM221 -12q-93 0 -139.5 49t-46.5 136v355q0 83 51.5 133.5t136.5 50.5t135.5 -51.5t50.5 -137.5v-351q0 -81 -52 -132.5t-136 -51.5zM89 747v129h111v-129h-111zM246 747v129h110
v-129h-110z" />
    <glyph glyph-name="multiply" unicode="&#xd7;" 
d="M105 193l-60 59l107 105l-107 107l59 58l105 -106l107 106l59 -58l-107 -107l107 -105l-59 -59l-106 106z" />
    <glyph glyph-name="Oslash" unicode="&#xd8;" horiz-adv-x="444" 
d="M153 -62l-73 15l18 69q-63 47 -63 151v355q0 83 51.5 133.5t136.5 50.5q29 0 53 -6l14 52l73 -14l-19 -71q65 -52 65 -150v-351q0 -81 -52 -132.5t-136 -51.5q-27 0 -54 5zM174 309l69 269q-10 5 -22 5q-47 0 -47 -57v-217zM221 117q49 0 49 57v213l-70 -267q9 -3 21 -3z
" />
    <glyph glyph-name="Ugrave" unicode="&#xd9;" horiz-adv-x="439" 
d="M220 -12q-88 0 -136 46.5t-48 139.5v526h139v-526q0 -24 11.5 -42t36.5 -18q48 0 48 62v524h133v-520q0 -90 -46.5 -141t-137.5 -51zM183 739l-105 145h122l72 -145h-89z" />
    <glyph glyph-name="Uacute" unicode="&#xda;" horiz-adv-x="439" 
d="M220 -12q-88 0 -136 46.5t-48 139.5v526h139v-526q0 -24 11.5 -42t36.5 -18q48 0 48 62v524h133v-520q0 -90 -46.5 -141t-137.5 -51zM173 739l72 145h122l-105 -145h-89z" />
    <glyph glyph-name="Ucircumflex" unicode="&#xdb;" horiz-adv-x="439" 
d="M220 -12q-88 0 -136 46.5t-48 139.5v526h139v-526q0 -24 11.5 -42t36.5 -18q48 0 48 62v524h133v-520q0 -90 -46.5 -141t-137.5 -51zM81 739l92 145h95l91 -145h-97l-42 66l-41 -66h-98z" />
    <glyph glyph-name="Udieresis" unicode="&#xdc;" horiz-adv-x="439" 
d="M220 -12q-88 0 -136 46.5t-48 139.5v526h139v-526q0 -24 11.5 -42t36.5 -18q48 0 48 62v524h133v-520q0 -90 -46.5 -141t-137.5 -51zM87 747v129h111v-129h-111zM244 747v129h110v-129h-110z" />
    <glyph glyph-name="Yacute" unicode="&#xdd;" horiz-adv-x="408" 
d="M136 0v293l-133 407h142l69 -242h1l66 242h123l-129 -407v-293h-139zM156 739l72 145h122l-105 -145h-89z" />
    <glyph glyph-name="Thorn" unicode="&#xde;" horiz-adv-x="436" 
d="M38 0v700h139v-114h46q101 0 146 -51.5t45 -156.5v-8q0 -100 -45.5 -159.5t-135.5 -59.5h-56v-151h-139zM177 267h46q48 0 48 57v80q0 58 -49 58h-45v-195z" />
    <glyph glyph-name="germandbls" unicode="&#xdf;" horiz-adv-x="479" 
d="M66 0v405h-49v110h49v18q0 178 192 178q47 0 82.5 -15.5t55 -39.5t28.5 -49t9 -49q0 -58 -31 -122q-4 -9 -10.5 -21t-9.5 -18t-5.5 -15t-2.5 -18q0 -19 23 -60l5 -9q51 -100 51 -157q0 -60 -36 -102.5t-100 -42.5q-55 0 -90 12l16 103q20 -4 35 -4q23 0 35 12t12 30
q0 9 -2.5 19.5t-5.5 19t-10 23.5t-11 22l-14 25t-13 24q-21 38 -21 74q0 24 14 55q34 79 34 135q0 58 -51 58q-46 0 -46 -56v-545h-133z" />
    <glyph glyph-name="agrave" unicode="&#xe0;" horiz-adv-x="404" 
d="M141 -11q-53 0 -85.5 34t-32.5 92v9q0 78 62.5 132t149.5 75v51q0 42 -39 42t-39 -40v-47h-123v41q0 67 47 109.5t120 42.5q79 0 123 -38.5t44 -116.5v-227q0 -30 1 -65.5t2.5 -58.5t1.5 -24h-123q-4 38 -5 55h-4q-16 -32 -43 -49t-57 -17zM191 94q20 0 32 16t12 38v91
q-80 -24 -80 -92v-12q0 -19 10 -30t26 -11zM153 563l-106 145h122l73 -145h-89z" />
    <glyph glyph-name="aacute" unicode="&#xe1;" horiz-adv-x="404" 
d="M141 -11q-53 0 -85.5 34t-32.5 92v9q0 78 62.5 132t149.5 75v51q0 42 -39 42t-39 -40v-47h-123v41q0 67 47 109.5t120 42.5q79 0 123 -38.5t44 -116.5v-227q0 -30 1 -65.5t2.5 -58.5t1.5 -24h-123q-4 38 -5 55h-4q-16 -32 -43 -49t-57 -17zM191 94q20 0 32 16t12 38v91
q-80 -24 -80 -92v-12q0 -19 10 -30t26 -11zM151 563l72 145h122l-105 -145h-89z" />
    <glyph glyph-name="acircumflex" unicode="&#xe2;" horiz-adv-x="404" 
d="M141 -11q-53 0 -85.5 34t-32.5 92v9q0 78 62.5 132t149.5 75v51q0 42 -39 42t-39 -40v-47h-123v41q0 67 47 109.5t120 42.5q79 0 123 -38.5t44 -116.5v-227q0 -30 1 -65.5t2.5 -58.5t1.5 -24h-123q-4 38 -5 55h-4q-16 -32 -43 -49t-57 -17zM191 94q20 0 32 16t12 38v91
q-80 -24 -80 -92v-12q0 -19 10 -30t26 -11zM59 563l92 145h95l91 -145h-97l-42 66l-41 -66h-98z" />
    <glyph glyph-name="atilde" unicode="&#xe3;" horiz-adv-x="404" 
d="M141 -11q-53 0 -85.5 34t-32.5 92v9q0 78 62.5 132t149.5 75v51q0 42 -39 42t-39 -40v-47h-123v41q0 67 47 109.5t120 42.5q79 0 123 -38.5t44 -116.5v-227q0 -30 1 -65.5t2.5 -58.5t1.5 -24h-123q-4 38 -5 55h-4q-16 -32 -43 -49t-57 -17zM191 94q20 0 32 16t12 38v91
q-80 -24 -80 -92v-12q0 -19 10 -30t26 -11zM264 571q-24 0 -62 16t-49 16q-19 0 -26 -39l-80 15q8 57 29.5 84t62.5 27q21 0 59 -14t48 -14q17 0 23 32l81 -13q-6 -110 -86 -110z" />
    <glyph glyph-name="adieresis" unicode="&#xe4;" horiz-adv-x="404" 
d="M141 -11q-53 0 -85.5 34t-32.5 92v9q0 78 62.5 132t149.5 75v51q0 42 -39 42t-39 -40v-47h-123v41q0 67 47 109.5t120 42.5q79 0 123 -38.5t44 -116.5v-227q0 -30 1 -65.5t2.5 -58.5t1.5 -24h-123q-4 38 -5 55h-4q-16 -32 -43 -49t-57 -17zM191 94q20 0 32 16t12 38v91
q-80 -24 -80 -92v-12q0 -19 10 -30t26 -11zM65 568v129h111v-129h-111zM222 568v129h110v-129h-110z" />
    <glyph glyph-name="aring" unicode="&#xe5;" horiz-adv-x="404" 
d="M141 -11q-53 0 -85.5 34t-32.5 92v9q0 78 62.5 132t149.5 75v51q0 42 -39 42t-39 -40v-47h-123v41q0 67 47 109.5t120 42.5q79 0 123 -38.5t44 -116.5v-227q0 -30 1 -65.5t2.5 -58.5t1.5 -24h-123q-4 38 -5 55h-4q-16 -32 -43 -49t-57 -17zM191 94q20 0 32 16t12 38v91
q-80 -24 -80 -92v-12q0 -19 10 -30t26 -11zM198 556q-38 0 -62.5 24.5t-24.5 59.5q0 34 25.5 58.5t61.5 24.5q37 0 62.5 -24t25.5 -58q0 -35 -25.5 -60t-62.5 -25zM198 602q16 0 25.5 11t9.5 27t-9 26.5t-26 10.5q-33 0 -33 -37q0 -16 9 -27t24 -11z" />
    <glyph glyph-name="ae" unicode="&#xe6;" horiz-adv-x="606" 
d="M150 -12q-56 0 -91.5 34.5t-35.5 92.5v4q0 140 211 203v56q0 41 -40 41q-38 0 -38 -39v-43h-123v41q0 67 47 109.5t120 42.5t107 -31q39 31 104 31q78 0 122 -44.5t44 -117.5v-140h-211v-89q0 -20 11.5 -32t31.5 -12q18 0 30 11.5t12 29.5v34h125v-27q0 -70 -42 -112.5
t-118 -42.5q-83 0 -132 64q-24 -31 -60.5 -47.5t-73.5 -16.5zM189 94q21 0 33 16t12 38v82q-79 -23 -79 -92v-3q0 -19 9.5 -30t24.5 -11zM366 320h82v67q0 19 -11 30.5t-30 11.5t-30 -12t-11 -34v-63z" />
    <glyph glyph-name="ccedilla" unicode="&#xe7;" horiz-adv-x="396" 
d="M203 -175q-46 0 -82 9l8 52q33 -6 58 -6q34 0 34 22q0 24 -54 27l15 60q-74 5 -113 46t-39 116v214q0 76 49 120.5t121 44.5q74 0 121 -37t47 -108v-66h-124v55q0 20 -11 33.5t-30 13.5q-18 0 -28.5 -13t-10.5 -31l-1 -236q0 -18 10 -30.5t31 -12.5q16 0 28 12t12 28v62
h124v-62q0 -67 -38.5 -104.5t-101.5 -43.5l-6 -26q91 -7 91 -63q0 -35 -31 -55.5t-79 -20.5z" />
    <glyph glyph-name="egrave" unicode="&#xe8;" horiz-adv-x="402" 
d="M205 -12q-83 0 -129 42t-46 120v217q0 71 48.5 117t128.5 46q78 0 122.5 -44.5t44.5 -117.5v-138h-211v-87q0 -48 42 -48q19 0 30.5 11t11.5 32v35h126v-35q0 -68 -45.5 -109t-122.5 -41zM163 322h81v66q0 19 -11 30.5t-29 11.5q-19 0 -30 -12t-11 -34v-62zM157 563
l-106 145h122l73 -145h-89z" />
    <glyph glyph-name="eacute" unicode="&#xe9;" horiz-adv-x="402" 
d="M205 -12q-83 0 -129 42t-46 120v217q0 71 48.5 117t128.5 46q78 0 122.5 -44.5t44.5 -117.5v-138h-211v-87q0 -48 42 -48q19 0 30.5 11t11.5 32v35h126v-35q0 -68 -45.5 -109t-122.5 -41zM163 322h81v66q0 19 -11 30.5t-29 11.5q-19 0 -30 -12t-11 -34v-62zM155 563
l72 145h122l-105 -145h-89z" />
    <glyph glyph-name="ecircumflex" unicode="&#xea;" horiz-adv-x="402" 
d="M205 -12q-83 0 -129 42t-46 120v217q0 71 48.5 117t128.5 46q78 0 122.5 -44.5t44.5 -117.5v-138h-211v-87q0 -48 42 -48q19 0 30.5 11t11.5 32v35h126v-35q0 -68 -45.5 -109t-122.5 -41zM163 322h81v66q0 19 -11 30.5t-29 11.5q-19 0 -30 -12t-11 -34v-62zM63 563
l92 145h95l91 -145h-97l-42 66l-41 -66h-98z" />
    <glyph glyph-name="edieresis" unicode="&#xeb;" horiz-adv-x="402" 
d="M205 -12q-83 0 -129 42t-46 120v217q0 71 48.5 117t128.5 46q78 0 122.5 -44.5t44.5 -117.5v-138h-211v-87q0 -48 42 -48q19 0 30.5 11t11.5 32v35h126v-35q0 -68 -45.5 -109t-122.5 -41zM163 322h81v66q0 19 -11 30.5t-29 11.5q-19 0 -30 -12t-11 -34v-62zM69 568v129
h111v-129h-111zM226 568v129h110v-129h-110z" />
    <glyph glyph-name="igrave" unicode="&#xec;" horiz-adv-x="203" 
d="M35 0v518h133v-518h-133zM56 563l-106 145h122l73 -145h-89z" />
    <glyph glyph-name="iacute" unicode="&#xed;" horiz-adv-x="203" 
d="M35 0v518h133v-518h-133zM54 563l72 145h122l-105 -145h-89z" />
    <glyph glyph-name="icircumflex" unicode="&#xee;" horiz-adv-x="203" 
d="M35 0v518h133v-518h-133zM-38 563l92 145h95l91 -145h-97l-42 66l-41 -66h-98z" />
    <glyph glyph-name="idieresis" unicode="&#xef;" horiz-adv-x="203" 
d="M35 0v518h133v-518h-133zM-32 568v129h111v-129h-111zM125 568v129h110v-129h-110z" />
    <glyph glyph-name="eth" unicode="&#xf0;" horiz-adv-x="407" 
d="M53 535v80l68 15l-41 70h142l22 -42l98 23l-1 -79l-60 -14l71 -134q25 -37 25 -88v-204q0 -82 -46 -128t-128 -46q-84 0 -128.5 45t-44.5 122v209q0 69 40 112.5t107 51.5h4l-19 32zM203 98q41 0 41 42v238q0 19 -11 30.5t-30 11.5q-40 0 -40 -43v-237q0 -19 10.5 -30.5
t29.5 -11.5z" />
    <glyph glyph-name="ntilde" unicode="&#xf1;" horiz-adv-x="413" 
d="M35 0v518h129v-60h2q32 72 109 72q51 0 78 -33t27 -82v-415h-133v367q0 47 -39 47q-21 0 -30.5 -16.5t-9.5 -36.5v-361h-133zM273 571q-24 0 -62 16t-49 16q-19 0 -26 -39l-80 15q8 57 29.5 84t62.5 27q21 0 59 -14t48 -14q17 0 23 32l81 -13q-6 -110 -86 -110z" />
    <glyph glyph-name="ograve" unicode="&#xf2;" horiz-adv-x="407" 
d="M203 -12q-84 0 -128.5 45t-44.5 122v209q0 76 49 121t125 45t124.5 -45t48.5 -119v-204q0 -82 -46 -128t-128 -46zM203 98q41 0 41 42v238q0 19 -11 30.5t-30 11.5q-40 0 -40 -43v-237q0 -19 10.5 -30.5t29.5 -11.5zM158 563l-106 145h122l73 -145h-89z" />
    <glyph glyph-name="oacute" unicode="&#xf3;" horiz-adv-x="407" 
d="M203 -12q-84 0 -128.5 45t-44.5 122v209q0 76 49 121t125 45t124.5 -45t48.5 -119v-204q0 -82 -46 -128t-128 -46zM203 98q41 0 41 42v238q0 19 -11 30.5t-30 11.5q-40 0 -40 -43v-237q0 -19 10.5 -30.5t29.5 -11.5zM156 563l72 145h122l-105 -145h-89z" />
    <glyph glyph-name="ocircumflex" unicode="&#xf4;" horiz-adv-x="407" 
d="M203 -12q-84 0 -128.5 45t-44.5 122v209q0 76 49 121t125 45t124.5 -45t48.5 -119v-204q0 -82 -46 -128t-128 -46zM203 98q41 0 41 42v238q0 19 -11 30.5t-30 11.5q-40 0 -40 -43v-237q0 -19 10.5 -30.5t29.5 -11.5zM64 563l92 145h95l91 -145h-97l-42 66l-41 -66h-98z
" />
    <glyph glyph-name="otilde" unicode="&#xf5;" horiz-adv-x="407" 
d="M203 -12q-84 0 -128.5 45t-44.5 122v209q0 76 49 121t125 45t124.5 -45t48.5 -119v-204q0 -82 -46 -128t-128 -46zM203 98q41 0 41 42v238q0 19 -11 30.5t-30 11.5q-40 0 -40 -43v-237q0 -19 10.5 -30.5t29.5 -11.5zM269 571q-24 0 -62 16t-49 16q-19 0 -26 -39l-80 15
q8 57 29.5 84t62.5 27q21 0 59 -14t48 -14q17 0 23 32l81 -13q-6 -110 -86 -110z" />
    <glyph glyph-name="odieresis" unicode="&#xf6;" horiz-adv-x="407" 
d="M203 -12q-84 0 -128.5 45t-44.5 122v209q0 76 49 121t125 45t124.5 -45t48.5 -119v-204q0 -82 -46 -128t-128 -46zM203 98q41 0 41 42v238q0 19 -11 30.5t-30 11.5q-40 0 -40 -43v-237q0 -19 10.5 -30.5t29.5 -11.5zM70 568v129h111v-129h-111zM227 568v129h110v-129
h-110z" />
    <glyph glyph-name="divide" unicode="&#xf7;" 
d="M162 170v96h97v-96h-97zM41 318v83h338v-83h-338zM160 454v96h98v-96h-98z" />
    <glyph glyph-name="oslash" unicode="&#xf8;" horiz-adv-x="407" 
d="M135 -57l-46 12l16 55q-75 40 -75 145v209q0 76 49 121t125 45q29 0 53 -7l14 48l46 -12l-16 -54q76 -45 76 -139v-204q0 -82 -46 -128t-128 -46q-29 0 -53 6zM163 206l62 209q-10 5 -22 5q-40 0 -40 -43v-171zM203 98q41 0 41 42v171l-62 -208q10 -5 21 -5z" />
    <glyph glyph-name="ugrave" unicode="&#xf9;" horiz-adv-x="413" 
d="M138 -12q-51 0 -78 33.5t-27 81.5v415h133v-361q0 -52 37 -52q42 0 42 58v355h133v-518h-128v62h-3q-33 -74 -109 -74zM160 563l-106 145h122l73 -145h-89z" />
    <glyph glyph-name="uacute" unicode="&#xfa;" horiz-adv-x="413" 
d="M138 -12q-51 0 -78 33.5t-27 81.5v415h133v-361q0 -52 37 -52q42 0 42 58v355h133v-518h-128v62h-3q-33 -74 -109 -74zM158 563l72 145h122l-105 -145h-89z" />
    <glyph glyph-name="ucircumflex" unicode="&#xfb;" horiz-adv-x="413" 
d="M138 -12q-51 0 -78 33.5t-27 81.5v415h133v-361q0 -52 37 -52q42 0 42 58v355h133v-518h-128v62h-3q-33 -74 -109 -74zM66 563l92 145h95l91 -145h-97l-42 66l-41 -66h-98z" />
    <glyph glyph-name="udieresis" unicode="&#xfc;" horiz-adv-x="413" 
d="M138 -12q-51 0 -78 33.5t-27 81.5v415h133v-361q0 -52 37 -52q42 0 42 58v355h133v-518h-128v62h-3q-33 -74 -109 -74zM72 568v129h111v-129h-111zM229 568v129h110v-129h-110z" />
    <glyph glyph-name="yacute" unicode="&#xfd;" horiz-adv-x="384" 
d="M102 -167q-42 0 -67 8v108q27 -5 53 -5q36 0 40 33l3 14l-127 527h138l54 -323h3l59 323h122l-119 -516q-21 -91 -60 -130t-99 -39zM145 563l72 145h122l-105 -145h-89z" />
    <glyph glyph-name="thorn" unicode="&#xfe;" horiz-adv-x="410" 
d="M35 -156v856h133v-241q18 37 47 54t56 17q56 0 82.5 -35t26.5 -86v-290q0 -50 -28 -90.5t-88 -40.5q-28 0 -54.5 13.5t-39.5 34.5h-2v-192h-133zM210 98q37 0 37 46v233q0 40 -37 40q-18 0 -30 -14.5t-12 -34.5v-252q18 -18 42 -18z" />
    <glyph glyph-name="ydieresis" unicode="&#xff;" horiz-adv-x="384" 
d="M102 -167q-42 0 -67 8v108q27 -5 53 -5q36 0 40 33l3 14l-127 527h138l54 -323h3l59 323h122l-119 -516q-21 -91 -60 -130t-99 -39zM59 568v129h111v-129h-111zM216 568v129h110v-129h-110z" />
    <glyph glyph-name="Amacron" unicode="&#x100;" horiz-adv-x="480" 
d="M13 0l138 704h176l140 -704h-144l-27 147h-133l-26 -147h-124zM184 262h92l-45 251h-5zM117 749v87h246v-87h-246z" />
    <glyph glyph-name="amacron" unicode="&#x101;" horiz-adv-x="404" 
d="M141 -11q-53 0 -85.5 34t-32.5 92v9q0 78 62.5 132t149.5 75v51q0 42 -39 42t-39 -40v-47h-123v41q0 67 47 109.5t120 42.5q79 0 123 -38.5t44 -116.5v-227q0 -30 1 -65.5t2.5 -58.5t1.5 -24h-123q-4 38 -5 55h-4q-16 -32 -43 -49t-57 -17zM191 94q20 0 32 16t12 38v91
q-80 -24 -80 -92v-12q0 -19 10 -30t26 -11zM75 577v87h246v-87h-246z" />
    <glyph glyph-name="Abreve" unicode="&#x102;" horiz-adv-x="480" 
d="M13 0l138 704h176l140 -704h-144l-27 147h-133l-26 -147h-124zM184 262h92l-45 251h-5zM239 737q-53 0 -88 36t-35 103h72q5 -32 16.5 -50.5t38.5 -18.5q45 0 50 69h71q-1 -71 -36.5 -105t-88.5 -34z" />
    <glyph glyph-name="abreve" unicode="&#x103;" horiz-adv-x="404" 
d="M141 -11q-53 0 -85.5 34t-32.5 92v9q0 78 62.5 132t149.5 75v51q0 42 -39 42t-39 -40v-47h-123v41q0 67 47 109.5t120 42.5q79 0 123 -38.5t44 -116.5v-227q0 -30 1 -65.5t2.5 -58.5t1.5 -24h-123q-4 38 -5 55h-4q-16 -32 -43 -49t-57 -17zM191 94q20 0 32 16t12 38v91
q-80 -24 -80 -92v-12q0 -19 10 -30t26 -11zM197 563q-53 0 -88 36t-35 103h72q5 -32 16.5 -50.5t38.5 -18.5q45 0 50 69h71q-1 -71 -36.5 -105t-88.5 -34z" />
    <glyph glyph-name="Aogonek" unicode="&#x104;" horiz-adv-x="480" 
d="M413 -175q-43 0 -69.5 19.5t-26.5 55.5q0 29 14 52l-35 195h-133l-26 -147h-124l138 704h176l140 -704q-73 -24 -73 -67q0 -31 36 -31q25 0 41 7l18 -71q-34 -13 -76 -13zM184 262h92l-45 251h-5z" />
    <glyph glyph-name="aogonek" unicode="&#x105;" horiz-adv-x="404" 
d="M307 -175q-43 0 -69.5 19.5t-26.5 55.5q0 46 41 84l-7 71h-4q-16 -32 -43 -49t-57 -17q-53 0 -85.5 34t-32.5 92v9q0 78 62.5 132t149.5 75v51q0 42 -39 42t-39 -40v-47h-123v41q0 67 47 109.5t120 42.5q79 0 123 -38.5t44 -116.5v-227q0 -30 1 -65.5t2.5 -58.5t1.5 -24
q-85 -26 -85 -67q0 -31 36 -31q25 0 41 7l18 -71q-34 -13 -76 -13zM191 94q20 0 32 16t12 38v91q-80 -24 -80 -92v-12q0 -19 10 -30t26 -11z" />
    <glyph glyph-name="Cacute" unicode="&#x106;" horiz-adv-x="433" 
d="M222 -12q-94 0 -140.5 45.5t-46.5 143.5v340q0 97 53 146t140 49q82 0 128 -52t46 -140v-73h-132v76q0 60 -48 60t-48 -60v-344q0 -62 47 -62q49 0 49 60v76h132v-74q0 -85 -48 -138t-132 -53zM171 739l72 145h122l-105 -145h-89z" />
    <glyph glyph-name="cacute" unicode="&#x107;" horiz-adv-x="396" 
d="M202 -12q-83 0 -127.5 41.5t-44.5 121.5v214q0 76 49 120.5t121 44.5q74 0 121 -37t47 -108v-66h-124v55q0 20 -11 33.5t-30 13.5t-29.5 -13t-10.5 -31v-236q0 -18 10 -30.5t31 -12.5q16 0 28 12t12 28v62h124v-62q0 -74 -46.5 -112t-119.5 -38zM152 563l72 145h122
l-105 -145h-89z" />
    <glyph glyph-name="Ccircumflex" unicode="&#x108;" horiz-adv-x="433" 
d="M222 -12q-94 0 -140.5 45.5t-46.5 143.5v340q0 97 53 146t140 49q82 0 128 -52t46 -140v-73h-132v76q0 60 -48 60t-48 -60v-344q0 -62 47 -62q49 0 49 60v76h132v-74q0 -85 -48 -138t-132 -53zM79 739l92 145h95l91 -145h-97l-42 66l-41 -66h-98z" />
    <glyph glyph-name="ccircumflex" unicode="&#x109;" horiz-adv-x="396" 
d="M202 -12q-83 0 -127.5 41.5t-44.5 121.5v214q0 76 49 120.5t121 44.5q74 0 121 -37t47 -108v-66h-124v55q0 20 -11 33.5t-30 13.5t-29.5 -13t-10.5 -31v-236q0 -18 10 -30.5t31 -12.5q16 0 28 12t12 28v62h124v-62q0 -74 -46.5 -112t-119.5 -38zM60 563l92 145h95
l91 -145h-97l-42 66l-41 -66h-98z" />
    <glyph glyph-name="Cdotaccent" unicode="&#x10a;" horiz-adv-x="433" 
d="M222 -12q-94 0 -140.5 45.5t-46.5 143.5v340q0 97 53 146t140 49q82 0 128 -52t46 -140v-73h-132v76q0 60 -48 60t-48 -60v-344q0 -62 47 -62q49 0 49 60v76h132v-74q0 -85 -48 -138t-132 -53zM163 747v129h111v-129h-111z" />
    <glyph glyph-name="cdotaccent" unicode="&#x10b;" horiz-adv-x="396" 
d="M202 -12q-83 0 -127.5 41.5t-44.5 121.5v214q0 76 49 120.5t121 44.5q74 0 121 -37t47 -108v-66h-124v55q0 20 -11 33.5t-30 13.5t-29.5 -13t-10.5 -31v-236q0 -18 10 -30.5t31 -12.5q16 0 28 12t12 28v62h124v-62q0 -74 -46.5 -112t-119.5 -38zM133 566v134h133v-134
h-133z" />
    <glyph glyph-name="Ccaron" unicode="&#x10c;" horiz-adv-x="433" 
d="M222 -12q-94 0 -140.5 45.5t-46.5 143.5v340q0 97 53 146t140 49q82 0 128 -52t46 -140v-73h-132v76q0 60 -48 60t-48 -60v-344q0 -62 47 -62q49 0 49 60v76h132v-74q0 -85 -48 -138t-132 -53zM171 739l-91 145h97l42 -66l41 66h98l-92 -145h-95z" />
    <glyph glyph-name="ccaron" unicode="&#x10d;" horiz-adv-x="396" 
d="M202 -12q-83 0 -127.5 41.5t-44.5 121.5v214q0 76 49 120.5t121 44.5q74 0 121 -37t47 -108v-66h-124v55q0 20 -11 33.5t-30 13.5t-29.5 -13t-10.5 -31v-236q0 -18 10 -30.5t31 -12.5q16 0 28 12t12 28v62h124v-62q0 -74 -46.5 -112t-119.5 -38zM152 563l-91 145h97
l42 -66l41 66h98l-92 -145h-95z" />
    <glyph glyph-name="Dcaron" unicode="&#x10e;" horiz-adv-x="447" 
d="M38 0v700h208q166 0 166 -170v-358q0 -172 -165 -172h-209zM177 121h45q29 0 40 13t11 41v350q0 54 -51 54h-45v-458zM161 739l-91 145h97l42 -66l41 66h98l-92 -145h-95z" />
    <glyph glyph-name="dcaron" unicode="&#x10f;" horiz-adv-x="514" 
d="M408 515v185h112v-80l-49 -105h-63zM149 -12q-58 0 -88.5 35.5t-30.5 98.5v270q0 53 32 95.5t93 42.5q10 0 18.5 -1t16.5 -4t14 -5.5t12.5 -7l9.5 -6.5t10 -8l6 -5v207h133v-700h-125v53h-4q-15 -31 -41 -48t-56 -17zM201 101q20 0 30.5 13.5t10.5 33.5v248
q-16 21 -41 21q-38 0 -38 -45v-231q0 -40 38 -40z" />
    <glyph glyph-name="Dcroat" unicode="&#x110;" horiz-adv-x="465" 
d="M20 307v98h36v295h208q166 0 166 -170v-358q0 -172 -165 -172h-209v307h-36zM195 121h45q29 0 40 13t11 41v350q0 54 -51 54h-45v-174h53v-98h-53v-186z" />
    <glyph glyph-name="dcroat" unicode="&#x111;" horiz-adv-x="416" 
d="M150 567v79h92v54h133v-54h47v-79h-47v-567h-125v53h-4q-15 -31 -41 -48t-56 -17q-58 0 -88.5 35.5t-30.5 98.5v270q0 53 32 95.5t93 42.5q10 0 18.5 -1t16.5 -4t14 -5.5t12.5 -7l9.5 -6.5t10 -8l6 -5v74h-92zM201 101q20 0 30.5 13.5t10.5 33.5v248q-16 21 -41 21
q-38 0 -38 -45v-231q0 -40 38 -40z" />
    <glyph glyph-name="Emacron" unicode="&#x112;" horiz-adv-x="383" 
d="M38 0v700h316v-121h-177v-156h142v-123h-142v-179h177v-121h-316zM73 749v87h246v-87h-246z" />
    <glyph glyph-name="emacron" unicode="&#x113;" horiz-adv-x="402" 
d="M205 -12q-83 0 -129 42t-46 120v217q0 71 48.5 117t128.5 46q78 0 122.5 -44.5t44.5 -117.5v-138h-211v-87q0 -48 42 -48q19 0 30.5 11t11.5 32v35h126v-35q0 -68 -45.5 -109t-122.5 -41zM163 322h81v66q0 19 -11 30.5t-29 11.5q-19 0 -30 -12t-11 -34v-62zM79 577v87
h246v-87h-246z" />
    <glyph glyph-name="Ebreve" unicode="&#x114;" horiz-adv-x="383" 
d="M38 0v700h316v-121h-177v-156h142v-123h-142v-179h177v-121h-316zM195 737q-53 0 -88 36t-35 103h72q5 -32 16.5 -50.5t38.5 -18.5q45 0 50 69h71q-1 -71 -36.5 -105t-88.5 -34z" />
    <glyph glyph-name="ebreve" unicode="&#x115;" horiz-adv-x="402" 
d="M205 -12q-83 0 -129 42t-46 120v217q0 71 48.5 117t128.5 46q78 0 122.5 -44.5t44.5 -117.5v-138h-211v-87q0 -48 42 -48q19 0 30.5 11t11.5 32v35h126v-35q0 -68 -45.5 -109t-122.5 -41zM163 322h81v66q0 19 -11 30.5t-29 11.5q-19 0 -30 -12t-11 -34v-62zM201 563
q-53 0 -88 36t-35 103h72q5 -32 16.5 -50.5t38.5 -18.5q45 0 50 69h71q-1 -71 -36.5 -105t-88.5 -34z" />
    <glyph glyph-name="Edotaccent" unicode="&#x116;" horiz-adv-x="383" 
d="M38 0v700h316v-121h-177v-156h142v-123h-142v-179h177v-121h-316zM141 747v129h111v-129h-111z" />
    <glyph glyph-name="edotaccent" unicode="&#x117;" horiz-adv-x="402" 
d="M205 -12q-83 0 -129 42t-46 120v217q0 71 48.5 117t128.5 46q78 0 122.5 -44.5t44.5 -117.5v-138h-211v-87q0 -48 42 -48q19 0 30.5 11t11.5 32v35h126v-35q0 -68 -45.5 -109t-122.5 -41zM163 322h81v66q0 19 -11 30.5t-29 11.5q-19 0 -30 -12t-11 -34v-62zM136 566v134
h133v-134h-133z" />
    <glyph glyph-name="Eogonek" unicode="&#x118;" horiz-adv-x="383" 
d="M38 0v700h316v-121h-177v-156h142v-123h-142v-179h177v-121q-33 -9 -56 -26t-23 -41q0 -31 36 -31q25 0 41 7l18 -71q-34 -13 -76 -13q-44 0 -70 19.5t-26 55.5q0 57 61 100h-221z" />
    <glyph glyph-name="eogonek" unicode="&#x119;" horiz-adv-x="402" 
d="M205 -12q-83 0 -129 42t-46 120v217q0 71 48.5 117t128.5 46q78 0 122.5 -44.5t44.5 -117.5v-138h-211v-87q0 -48 42 -48q19 0 30.5 11t11.5 32v35h126v-35q0 -74 -53 -115q-41 -40 -41 -90q0 -31 36 -31q25 0 41 7l18 -71q-34 -13 -76 -13q-44 0 -70 19.5t-26 55.5
q0 48 28 89q-8 -1 -25 -1zM163 322h81v66q0 19 -11 30.5t-29 11.5q-19 0 -30 -12t-11 -34v-62z" />
    <glyph glyph-name="Ecaron" unicode="&#x11a;" horiz-adv-x="383" 
d="M38 0v700h316v-121h-177v-156h142v-123h-142v-179h177v-121h-316zM149 739l-91 145h97l42 -66l41 66h98l-92 -145h-95z" />
    <glyph glyph-name="ecaron" unicode="&#x11b;" horiz-adv-x="402" 
d="M205 -12q-83 0 -129 42t-46 120v217q0 71 48.5 117t128.5 46q78 0 122.5 -44.5t44.5 -117.5v-138h-211v-87q0 -48 42 -48q19 0 30.5 11t11.5 32v35h126v-35q0 -68 -45.5 -109t-122.5 -41zM163 322h81v66q0 19 -11 30.5t-29 11.5q-19 0 -30 -12t-11 -34v-62zM155 563
l-91 145h97l42 -66l41 66h98l-92 -145h-95z" />
    <glyph glyph-name="Gcircumflex" unicode="&#x11c;" horiz-adv-x="440" 
d="M191 -12q-156 0 -156 182v349q0 94 53 143.5t136 49.5q80 0 129.5 -49.5t49.5 -135.5v-80h-133v77q0 59 -48 59t-48 -60v-350q0 -59 46 -59q25 0 37 15.5t13 37.5v102h-60v104h193v-373h-66l-21 43q-38 -55 -125 -55zM80 739l92 145h95l91 -145h-97l-42 66l-41 -66h-98z
" />
    <glyph glyph-name="gcircumflex" unicode="&#x11d;" horiz-adv-x="397" 
d="M176 -167q-165 0 -165 117q0 26 17.5 51t42.5 39v1q-27 22 -27 65q0 25 18.5 50t45.5 38v2q-33 13 -54 45t-21 72v71q0 64 41.5 105t112.5 41q54 0 87 -16h112v-97l-54 19l-1 -1q17 -26 17 -56v-61q0 -60 -41 -99t-111 -39h-14q-17 -10 -17 -29t40 -26l53 -9
q116 -20 116 -123q0 -75 -55 -117.5t-143 -42.5zM191 274q36 0 36 42v68q0 43 -37 43q-35 0 -35 -44v-67q0 -42 36 -42zM178 -72q28 0 49.5 10.5t21.5 33.5q0 27 -46 34q-41 5 -67 11q-27 -19 -27 -42q0 -47 69 -47zM48 563l92 145h95l91 -145h-97l-42 66l-41 -66h-98z" />
    <glyph glyph-name="Gbreve" unicode="&#x11e;" horiz-adv-x="440" 
d="M191 -12q-156 0 -156 182v349q0 94 53 143.5t136 49.5q80 0 129.5 -49.5t49.5 -135.5v-80h-133v77q0 59 -48 59t-48 -60v-350q0 -59 46 -59q25 0 37 15.5t13 37.5v102h-60v104h193v-373h-66l-21 43q-38 -55 -125 -55zM218 737q-53 0 -88 36t-35 103h72q5 -32 16.5 -50.5
t38.5 -18.5q45 0 50 69h71q-1 -71 -36.5 -105t-88.5 -34z" />
    <glyph glyph-name="gbreve" unicode="&#x11f;" horiz-adv-x="397" 
d="M176 -167q-165 0 -165 117q0 26 17.5 51t42.5 39v1q-27 22 -27 65q0 25 18.5 50t45.5 38v2q-33 13 -54 45t-21 72v71q0 64 41.5 105t112.5 41q54 0 87 -16h112v-97l-54 19l-1 -1q17 -26 17 -56v-61q0 -60 -41 -99t-111 -39h-14q-17 -10 -17 -29t40 -26l53 -9
q116 -20 116 -123q0 -75 -55 -117.5t-143 -42.5zM191 274q36 0 36 42v68q0 43 -37 43q-35 0 -35 -44v-67q0 -42 36 -42zM178 -72q28 0 49.5 10.5t21.5 33.5q0 27 -46 34q-41 5 -67 11q-27 -19 -27 -42q0 -47 69 -47zM186 563q-53 0 -88 36t-35 103h72q5 -32 16.5 -50.5
t38.5 -18.5q45 0 50 69h71q-1 -71 -36.5 -105t-88.5 -34z" />
    <glyph glyph-name="Gdotaccent" unicode="&#x120;" horiz-adv-x="440" 
d="M191 -12q-156 0 -156 182v349q0 94 53 143.5t136 49.5q80 0 129.5 -49.5t49.5 -135.5v-80h-133v77q0 59 -48 59t-48 -60v-350q0 -59 46 -59q25 0 37 15.5t13 37.5v102h-60v104h193v-373h-66l-21 43q-38 -55 -125 -55zM164 747v129h111v-129h-111z" />
    <glyph glyph-name="gdotaccent" unicode="&#x121;" horiz-adv-x="397" 
d="M176 -167q-165 0 -165 117q0 26 17.5 51t42.5 39v1q-27 22 -27 65q0 25 18.5 50t45.5 38v2q-33 13 -54 45t-21 72v71q0 64 41.5 105t112.5 41q54 0 87 -16h112v-97l-54 19l-1 -1q17 -26 17 -56v-61q0 -60 -41 -99t-111 -39h-14q-17 -10 -17 -29t40 -26l53 -9
q116 -20 116 -123q0 -75 -55 -117.5t-143 -42.5zM191 274q36 0 36 42v68q0 43 -37 43q-35 0 -35 -44v-67q0 -42 36 -42zM178 -72q28 0 49.5 10.5t21.5 33.5q0 27 -46 34q-41 5 -67 11q-27 -19 -27 -42q0 -47 69 -47zM121 566v134h133v-134h-133z" />
    <glyph glyph-name="Gcommaaccent" unicode="&#x122;" horiz-adv-x="440" 
d="M191 -12q-156 0 -156 182v349q0 94 53 143.5t136 49.5q80 0 129.5 -49.5t49.5 -135.5v-80h-133v77q0 59 -48 59t-48 -60v-350q0 -59 46 -59q25 0 37 15.5t13 37.5v102h-60v104h193v-373h-66l-21 43q-38 -55 -125 -55zM176 -175v137h108v-76l-39 -61h-69z" />
    <glyph glyph-name="gcommaaccent" unicode="&#x123;" horiz-adv-x="397" 
d="M176 -167q-165 0 -165 117q0 26 17.5 51t42.5 39v1q-27 22 -27 65q0 25 18.5 50t45.5 38v2q-33 13 -54 45t-21 72v71q0 64 41.5 105t112.5 41q54 0 87 -16h112v-97l-54 19l-1 -1q17 -26 17 -56v-61q0 -60 -41 -99t-111 -39h-14q-17 -10 -17 -29t40 -26l53 -9
q116 -20 116 -123q0 -75 -55 -117.5t-143 -42.5zM191 274q36 0 36 42v68q0 43 -37 43q-35 0 -35 -44v-67q0 -42 36 -42zM178 -72q28 0 49.5 10.5t21.5 33.5q0 27 -46 34q-41 5 -67 11q-27 -19 -27 -42q0 -47 69 -47zM243 728v-163h-112v75l42 88h70z" />
    <glyph glyph-name="Hcircumflex" unicode="&#x124;" horiz-adv-x="450" 
d="M38 0v700h139v-280h96v280h139v-700h-139v293h-96v-293h-139zM86 739l92 145h95l91 -145h-97l-42 66l-41 -66h-98z" />
    <glyph glyph-name="hcircumflex" unicode="&#x125;" horiz-adv-x="413" 
d="M35 0v700h133v-242h1q38 72 108 72q48 0 75.5 -29.5t27.5 -72.5v-428h-133v367q0 47 -39 47q-21 0 -30.5 -16.5t-9.5 -36.5v-361h-133zM-35 733l92 145h95l91 -145h-97l-42 66l-41 -66h-98z" />
    <glyph glyph-name="Hbar" unicode="&#x126;" horiz-adv-x="450" 
d="M10 503v98h28v99h139v-99h96v99h139v-99h29v-98h-29v-503h-139v293h-96v-293h-139v503h-28zM177 420h96v83h-96v-83z" />
    <glyph glyph-name="hbar" unicode="&#x127;" horiz-adv-x="416" 
d="M-6 567v79h44v54h133v-54h96v-79h-96v-109h1q38 72 108 72q48 0 75.5 -29.5t27.5 -72.5v-428h-133v367q0 47 -39 47q-21 0 -30.5 -16.5t-9.5 -36.5v-361h-133v567h-44z" />
    <glyph glyph-name="Itilde" unicode="&#x128;" horiz-adv-x="215" 
d="M38 0v700h139v-700h-139zM168 739q-24 0 -62 16t-49 16q-19 0 -26 -39l-80 15q8 57 29.5 84t62.5 27q21 0 59 -14t48 -14q17 0 23 32l81 -13q-6 -110 -86 -110z" />
    <glyph glyph-name="itilde" unicode="&#x129;" horiz-adv-x="203" 
d="M35 0v518h133v-518h-133zM167 571q-24 0 -62 16t-49 16q-19 0 -26 -39l-80 15q8 57 29.5 84t62.5 27q21 0 59 -14t48 -14q17 0 23 32l81 -13q-6 -110 -86 -110z" />
    <glyph glyph-name="Imacron" unicode="&#x12a;" horiz-adv-x="215" 
d="M38 0v700h139v-700h-139zM-16 749v87h246v-87h-246z" />
    <glyph glyph-name="imacron" unicode="&#x12b;" horiz-adv-x="203" 
d="M35 0v518h133v-518h-133zM-22 577v87h246v-87h-246z" />
    <glyph glyph-name="Ibreve" unicode="&#x12c;" horiz-adv-x="215" 
d="M38 0v700h139v-700h-139zM106 737q-53 0 -88 36t-35 103h72q5 -32 16.5 -50.5t38.5 -18.5q45 0 50 69h71q-1 -71 -36.5 -105t-88.5 -34z" />
    <glyph glyph-name="ibreve" unicode="&#x12d;" horiz-adv-x="203" 
d="M35 0v518h133v-518h-133zM100 563q-53 0 -88 36t-35 103h72q5 -32 16.5 -50.5t38.5 -18.5q45 0 50 69h71q-1 -71 -36.5 -105t-88.5 -34z" />
    <glyph glyph-name="Iogonek" unicode="&#x12e;" horiz-adv-x="215" 
d="M124 -175q-44 0 -70 19.5t-26 55.5q0 21 10 43v757h139v-700q-72 -24 -72 -67q0 -31 36 -31q25 0 41 7l18 -71q-34 -13 -76 -13z" />
    <glyph glyph-name="iogonek" unicode="&#x12f;" horiz-adv-x="203" 
d="M114 -175q-44 0 -70 19.5t-26 55.5q0 31 17 56v562h133v-518q-73 -24 -73 -67q0 -31 36 -31q25 0 41 7l18 -71q-34 -13 -76 -13zM35 566v134h133v-134h-133z" />
    <glyph glyph-name="Idotaccent" unicode="&#x130;" horiz-adv-x="215" 
d="M38 0v700h139v-700h-139zM52 747v129h111v-129h-111z" />
    <glyph glyph-name="dotlessi" unicode="&#x131;" horiz-adv-x="203" 
d="M35 0v518h133v-518h-133z" />
    <glyph glyph-name="Jcircumflex" unicode="&#x134;" horiz-adv-x="426" 
d="M206 -12q-86 0 -134 45t-48 130v71h137v-69q0 -51 46 -51q45 0 45 56v530h139v-525q0 -93 -52.5 -140t-132.5 -47zM187 739l92 145h95l91 -145h-97l-42 66l-41 -66h-98z" />
    <glyph glyph-name="jcircumflex" unicode="&#x135;" horiz-adv-x="204" 
d="M42 -162q-24 0 -51 7v108q10 -2 20 -2q26 0 26 39v528h133v-527q0 -153 -128 -153zM-34 563l92 145h95l91 -145h-97l-42 66l-41 -66h-98z" />
    <glyph glyph-name="Kcommaaccent" unicode="&#x136;" horiz-adv-x="448" 
d="M38 0v700h139v-286h4l123 286h129l-111 -250l120 -450h-147l-75 296l-43 -79v-217h-139zM180 -175v137h108v-76l-39 -61h-69z" />
    <glyph glyph-name="kcommaaccent" unicode="&#x137;" horiz-adv-x="401" 
d="M32 0v700h133v-379h2l94 197h128l-94 -184l100 -334h-139l-60 222l-31 -64v-158h-133zM158 -175v137h108v-76l-39 -61h-69z" />
    <glyph glyph-name="kgreenlandic" unicode="&#x138;" horiz-adv-x="401" 
d="M32 0v518h133v-197h2l94 197h128l-94 -184l100 -334h-139l-60 222l-31 -64v-158h-133z" />
    <glyph glyph-name="Lacute" unicode="&#x139;" horiz-adv-x="378" 
d="M38 0v700h139v-573h177v-127h-316zM59 739l72 145h122l-105 -145h-89z" />
    <glyph glyph-name="lacute" unicode="&#x13a;" horiz-adv-x="203" 
d="M35 0v700h133v-700h-133zM57 733l72 145h122l-105 -145h-89z" />
    <glyph glyph-name="Lcommaaccent" unicode="&#x13b;" horiz-adv-x="378" 
d="M38 0v700h139v-573h177v-127h-316zM141 -175v137h108v-76l-39 -61h-69z" />
    <glyph glyph-name="lcommaaccent" unicode="&#x13c;" horiz-adv-x="203" 
d="M35 0v700h133v-700h-133zM47 -175v137h108v-76l-39 -61h-69z" />
    <glyph glyph-name="Lcaron" unicode="&#x13d;" horiz-adv-x="378" 
d="M225 515v185h112v-80l-49 -105h-63zM38 0v700h139v-573h177v-127h-316z" />
    <glyph glyph-name="lcaron" unicode="&#x13e;" horiz-adv-x="306" 
d="M200 515v185h112v-80l-49 -105h-63zM35 0v700h133v-700h-133z" />
    <glyph glyph-name="Ldot" unicode="&#x13f;" horiz-adv-x="378" 
d="M38 0v700h139v-573h177v-127h-316zM235 314v132h118v-132h-118z" />
    <glyph glyph-name="ldot" unicode="&#x140;" horiz-adv-x="337" 
d="M35 0v700h133v-700h-133zM205 300v143h128v-143h-128z" />
    <glyph glyph-name="Lslash" unicode="&#x141;" horiz-adv-x="393" 
d="M18 219v105l35 28v348h139v-234l70 57v-107l-70 -57v-232h177v-127h-316v247z" />
    <glyph glyph-name="lslash" unicode="&#x142;" horiz-adv-x="219" 
d="M8 229v101l34 30v340h133v-223l36 32v-101l-36 -32v-376h-133v259z" />
    <glyph glyph-name="Nacute" unicode="&#x143;" horiz-adv-x="459" 
d="M38 0v700h138l123 -368h3v368h119v-700h-121l-141 401h-2v-401h-119zM182 739l72 145h122l-105 -145h-89z" />
    <glyph glyph-name="nacute" unicode="&#x144;" horiz-adv-x="413" 
d="M35 0v518h129v-60h2q32 72 109 72q51 0 78 -33t27 -82v-415h-133v367q0 47 -39 47q-21 0 -30.5 -16.5t-9.5 -36.5v-361h-133zM160 563l72 145h122l-105 -145h-89z" />
    <glyph glyph-name="Ncommaaccent" unicode="&#x145;" horiz-adv-x="459" 
d="M38 0v700h138l123 -368h3v368h119v-700h-121l-141 401h-2v-401h-119zM189 -175v137h108v-76l-39 -61h-69z" />
    <glyph glyph-name="ncommaaccent" unicode="&#x146;" horiz-adv-x="413" 
d="M35 0v518h129v-60h2q32 72 109 72q51 0 78 -33t27 -82v-415h-133v367q0 47 -39 47q-21 0 -30.5 -16.5t-9.5 -36.5v-361h-133zM152 -175v137h108v-76l-39 -61h-69z" />
    <glyph glyph-name="Ncaron" unicode="&#x147;" horiz-adv-x="459" 
d="M38 0v700h138l123 -368h3v368h119v-700h-121l-141 401h-2v-401h-119zM182 739l-91 145h97l42 -66l41 66h98l-92 -145h-95z" />
    <glyph glyph-name="ncaron" unicode="&#x148;" horiz-adv-x="413" 
d="M35 0v518h129v-60h2q32 72 109 72q51 0 78 -33t27 -82v-415h-133v367q0 47 -39 47q-21 0 -30.5 -16.5t-9.5 -36.5v-361h-133zM160 563l-91 145h97l42 -66l41 66h98l-92 -145h-95z" />
    <glyph glyph-name="napostrophe" unicode="&#x149;" horiz-adv-x="413" 
d="M-37 548v152h112v-80l-49 -72h-63zM35 0v518h129v-60h2q32 72 109 72q51 0 78 -33t27 -82v-415h-133v367q0 47 -39 47q-21 0 -30.5 -16.5t-9.5 -36.5v-361h-133z" />
    <glyph glyph-name="Eng" unicode="&#x14a;" horiz-adv-x="459" 
d="M304 -162q-23 0 -51 7v108q12 -2 20 -2q27 0 27 39v10l-141 401h-2v-401h-119v700h138l123 -368h3v368h119v-709q0 -76 -25 -114.5t-92 -38.5z" />
    <glyph glyph-name="eng" unicode="&#x14b;" horiz-adv-x="413" 
d="M252 -162q-26 0 -51 4v100q5 -1 20 -1q26 0 26 39v387q0 47 -39 47q-21 0 -30.5 -16.5t-9.5 -36.5v-361h-133v518h129v-60h2q32 72 109 72q51 0 78 -33t27 -82v-424q0 -153 -128 -153z" />
    <glyph glyph-name="Omacron" unicode="&#x14c;" horiz-adv-x="444" 
d="M221 117q49 0 49 57v352q0 24 -12.5 40.5t-36.5 16.5q-47 0 -47 -57v-352q0 -57 47 -57zM221 -12q-93 0 -139.5 49t-46.5 136v355q0 83 51.5 133.5t136.5 50.5t135.5 -51.5t50.5 -137.5v-351q0 -81 -52 -132.5t-136 -51.5zM99 749v87h246v-87h-246z" />
    <glyph glyph-name="omacron" unicode="&#x14d;" horiz-adv-x="407" 
d="M203 -12q-84 0 -128.5 45t-44.5 122v209q0 76 49 121t125 45t124.5 -45t48.5 -119v-204q0 -82 -46 -128t-128 -46zM203 98q41 0 41 42v238q0 19 -11 30.5t-30 11.5q-40 0 -40 -43v-237q0 -19 10.5 -30.5t29.5 -11.5zM80 577v87h246v-87h-246z" />
    <glyph glyph-name="Obreve" unicode="&#x14e;" horiz-adv-x="444" 
d="M221 117q49 0 49 57v352q0 24 -12.5 40.5t-36.5 16.5q-47 0 -47 -57v-352q0 -57 47 -57zM221 -12q-93 0 -139.5 49t-46.5 136v355q0 83 51.5 133.5t136.5 50.5t135.5 -51.5t50.5 -137.5v-351q0 -81 -52 -132.5t-136 -51.5zM221 737q-53 0 -88 36t-35 103h72
q5 -32 16.5 -50.5t38.5 -18.5q45 0 50 69h71q-1 -71 -36.5 -105t-88.5 -34z" />
    <glyph glyph-name="obreve" unicode="&#x14f;" horiz-adv-x="407" 
d="M203 -12q-84 0 -128.5 45t-44.5 122v209q0 76 49 121t125 45t124.5 -45t48.5 -119v-204q0 -82 -46 -128t-128 -46zM203 98q41 0 41 42v238q0 19 -11 30.5t-30 11.5q-40 0 -40 -43v-237q0 -19 10.5 -30.5t29.5 -11.5zM202 563q-53 0 -88 36t-35 103h72q5 -32 16.5 -50.5
t38.5 -18.5q45 0 50 69h71q-1 -71 -36.5 -105t-88.5 -34z" />
    <glyph glyph-name="Ohungarumlaut" unicode="&#x150;" horiz-adv-x="444" 
d="M221 117q49 0 49 57v352q0 24 -12.5 40.5t-36.5 16.5q-47 0 -47 -57v-352q0 -57 47 -57zM221 -12q-93 0 -139.5 49t-46.5 136v355q0 83 51.5 133.5t136.5 50.5t135.5 -51.5t50.5 -137.5v-351q0 -81 -52 -132.5t-136 -51.5zM103 738l49 145h104l-71 -145h-82zM245 738
l56 145h104l-79 -145h-81z" />
    <glyph glyph-name="ohungarumlaut" unicode="&#x151;" horiz-adv-x="407" 
d="M203 -12q-84 0 -128.5 45t-44.5 122v209q0 76 49 121t125 45t124.5 -45t48.5 -119v-204q0 -82 -46 -128t-128 -46zM203 98q41 0 41 42v238q0 19 -11 30.5t-30 11.5q-40 0 -40 -43v-237q0 -19 10.5 -30.5t29.5 -11.5zM91 563l49 145h104l-71 -145h-82zM233 563l56 145h104
l-79 -145h-81z" />
    <glyph glyph-name="OE" unicode="&#x152;" horiz-adv-x="615" 
d="M224 0q-91 0 -140 47.5t-49 137.5v331q0 83 53.5 133.5t137.5 50.5h360v-127h-177v-146h142v-127h-142v-173h177v-127h-362zM226 128h44v445h-46q-24 0 -37 -16.5t-13 -40.5v-331q0 -26 13.5 -41.5t38.5 -15.5z" />
    <glyph glyph-name="oe" unicode="&#x153;" horiz-adv-x="617" 
d="M203 -12q-84 0 -128.5 45t-44.5 122v209q0 76 49 121t125 45q62 0 107 -31q47 31 110 31q78 0 122.5 -44.5t44.5 -117.5v-138h-211v-87q0 -48 42 -48q19 0 30.5 11t11.5 32v35h126v-35q0 -68 -45.5 -109t-122.5 -41q-67 0 -111 28q-44 -28 -105 -28zM203 98q41 0 41 42
v238q0 19 -11 30.5t-30 11.5q-40 0 -40 -43v-237q0 -19 10.5 -30.5t29.5 -11.5zM377 322h81v66q0 19 -11 30.5t-29 11.5q-19 0 -30 -12t-11 -34v-62z" />
    <glyph glyph-name="Racute" unicode="&#x154;" horiz-adv-x="454" 
d="M38 0v700h195q182 0 182 -177v-7q0 -57 -26 -99.5t-69 -58.5v-2q51 -12 68.5 -46t18.5 -94l4 -140q2 -43 17 -70v-6h-138q-15 25 -17 75l-4 132q-1 34 -14.5 51t-46.5 17h-31v-275h-139zM177 381h44q52 0 52 63v69q0 26 -12.5 44t-39.5 18h-44v-194zM152 739l72 145h122
l-105 -145h-89z" />
    <glyph glyph-name="racute" unicode="&#x155;" horiz-adv-x="311" 
d="M35 0v518h124v-94h3q15 42 43 70t61 28q19 0 28 -2v-137q-14 2 -23 2q-44 0 -73.5 -27t-29.5 -70v-288h-133zM117 563l72 145h122l-105 -145h-89z" />
    <glyph glyph-name="Rcommaaccent" unicode="&#x156;" horiz-adv-x="454" 
d="M38 0v700h195q182 0 182 -177v-7q0 -57 -26 -99.5t-69 -58.5v-2q51 -12 68.5 -46t18.5 -94l4 -140q2 -43 17 -70v-6h-138q-15 25 -17 75l-4 132q-1 34 -14.5 51t-46.5 17h-31v-275h-139zM177 381h44q52 0 52 63v69q0 26 -12.5 44t-39.5 18h-44v-194zM176 -175v137h108
v-76l-39 -61h-69z" />
    <glyph glyph-name="rcommaaccent" unicode="&#x157;" horiz-adv-x="311" 
d="M35 0v518h124v-94h3q15 42 43 70t61 28q19 0 28 -2v-137q-14 2 -23 2q-44 0 -73.5 -27t-29.5 -70v-288h-133zM48 -175v137h108v-76l-39 -61h-69z" />
    <glyph glyph-name="Rcaron" unicode="&#x158;" horiz-adv-x="454" 
d="M38 0v700h195q182 0 182 -177v-7q0 -57 -26 -99.5t-69 -58.5v-2q51 -12 68.5 -46t18.5 -94l4 -140q2 -43 17 -70v-6h-138q-15 25 -17 75l-4 132q-1 34 -14.5 51t-46.5 17h-31v-275h-139zM177 381h44q52 0 52 63v69q0 26 -12.5 44t-39.5 18h-44v-194zM165 739l-91 145h97
l42 -66l41 66h98l-92 -145h-95z" />
    <glyph glyph-name="rcaron" unicode="&#x159;" horiz-adv-x="311" 
d="M35 0v518h124v-94h3q15 42 43 70t61 28q19 0 28 -2v-137q-14 2 -23 2q-44 0 -73.5 -27t-29.5 -70v-288h-133zM117 563l-91 145h97l42 -66l41 66h98l-92 -145h-95z" />
    <glyph glyph-name="Sacute" unicode="&#x15a;" horiz-adv-x="411" 
d="M204 -12q-32 0 -61 8.5t-56.5 28.5t-43.5 58t-16 91v32h130v-18q0 -75 48 -75q43 0 43 60q0 46 -52 90l-63 54q-30 26 -47.5 44.5t-36.5 61.5t-19 95v4q0 86 50 138t130 52q81 0 126.5 -47t45.5 -136v-33h-128v34q0 58 -48 58q-45 0 -45 -57q0 -19 14 -41t23 -30l33 -30
l59 -55q94 -83 94 -192v-4q0 -88 -45.5 -139.5t-134.5 -51.5zM158 739l72 145h122l-105 -145h-89z" />
    <glyph glyph-name="sacute" unicode="&#x15b;" horiz-adv-x="384" 
d="M196 -12q-78 0 -123.5 34.5t-45.5 101.5v35h123v-21q0 -46 41 -46q39 0 39 42q0 18 -12 30t-42 32l-59 37q-82 52 -82 142q0 70 43.5 112.5t120.5 42.5q66 0 110.5 -35.5t44.5 -93.5v-40h-118v24q0 44 -39 44q-19 0 -28.5 -11.5t-9.5 -27.5q0 -29 49 -59l64 -41
q86 -54 86 -146q0 -69 -43 -112.5t-119 -43.5zM145 563l72 145h122l-105 -145h-89z" />
    <glyph glyph-name="Scircumflex" unicode="&#x15c;" horiz-adv-x="411" 
d="M204 -12q-32 0 -61 8.5t-56.5 28.5t-43.5 58t-16 91v32h130v-18q0 -75 48 -75q43 0 43 60q0 46 -52 90l-63 54q-30 26 -47.5 44.5t-36.5 61.5t-19 95v4q0 86 50 138t130 52q81 0 126.5 -47t45.5 -136v-33h-128v34q0 58 -48 58q-45 0 -45 -57q0 -19 14 -41t23 -30l33 -30
l59 -55q94 -83 94 -192v-4q0 -88 -45.5 -139.5t-134.5 -51.5zM66 739l92 145h95l91 -145h-97l-42 66l-41 -66h-98z" />
    <glyph glyph-name="scircumflex" unicode="&#x15d;" horiz-adv-x="384" 
d="M196 -12q-78 0 -123.5 34.5t-45.5 101.5v35h123v-21q0 -46 41 -46q39 0 39 42q0 18 -12 30t-42 32l-59 37q-82 52 -82 142q0 70 43.5 112.5t120.5 42.5q66 0 110.5 -35.5t44.5 -93.5v-40h-118v24q0 44 -39 44q-19 0 -28.5 -11.5t-9.5 -27.5q0 -29 49 -59l64 -41
q86 -54 86 -146q0 -69 -43 -112.5t-119 -43.5zM53 563l92 145h95l91 -145h-97l-42 66l-41 -66h-98z" />
    <glyph glyph-name="Scedilla" unicode="&#x15e;" horiz-adv-x="411" 
d="M211 -175q-46 0 -82 9l8 52q33 -6 58 -6q34 0 34 22q0 24 -54 27l15 60q-68 4 -115.5 46.5t-47.5 138.5v32h130v-18q0 -75 48 -75q43 0 43 60q0 46 -52 90l-63 54q-30 26 -47.5 44.5t-36.5 61.5t-19 95v4q0 86 50 138t130 52q81 0 126.5 -47t45.5 -136v-33h-128v34
q0 58 -48 58q-45 0 -45 -57q0 -19 14 -41t23 -30l33 -30l59 -55q94 -83 94 -192v-4q0 -79 -37.5 -129t-110.5 -60l-6 -26q91 -7 91 -63q0 -35 -31 -55.5t-79 -20.5z" />
    <glyph glyph-name="scedilla" unicode="&#x15f;" horiz-adv-x="384" 
d="M196 -175q-46 0 -82 9l8 52q33 -6 58 -6q34 0 34 22q0 24 -54 27l15 60q-69 4 -108.5 38t-39.5 97v35h123v-21q0 -46 41 -46q39 0 39 42q0 18 -12 30t-42 32l-59 37q-82 52 -82 142q0 70 43.5 112.5t120.5 42.5q66 0 110.5 -35.5t44.5 -93.5v-40h-118v24q0 44 -39 44
q-19 0 -28.5 -11.5t-9.5 -27.5q0 -29 49 -59l64 -41q86 -54 86 -146q0 -63 -36.5 -105t-100.5 -49l-6 -26q91 -7 91 -63q0 -35 -31 -55.5t-79 -20.5z" />
    <glyph glyph-name="Scaron" unicode="&#x160;" horiz-adv-x="411" 
d="M204 -12q-32 0 -61 8.5t-56.5 28.5t-43.5 58t-16 91v32h130v-18q0 -75 48 -75q43 0 43 60q0 46 -52 90l-63 54q-30 26 -47.5 44.5t-36.5 61.5t-19 95v4q0 86 50 138t130 52q81 0 126.5 -47t45.5 -136v-33h-128v34q0 58 -48 58q-45 0 -45 -57q0 -19 14 -41t23 -30l33 -30
l59 -55q94 -83 94 -192v-4q0 -88 -45.5 -139.5t-134.5 -51.5zM158 739l-91 145h97l42 -66l41 66h98l-92 -145h-95z" />
    <glyph glyph-name="scaron" unicode="&#x161;" horiz-adv-x="384" 
d="M196 -12q-78 0 -123.5 34.5t-45.5 101.5v35h123v-21q0 -46 41 -46q39 0 39 42q0 18 -12 30t-42 32l-59 37q-82 52 -82 142q0 70 43.5 112.5t120.5 42.5q66 0 110.5 -35.5t44.5 -93.5v-40h-118v24q0 44 -39 44q-19 0 -28.5 -11.5t-9.5 -27.5q0 -29 49 -59l64 -41
q86 -54 86 -146q0 -69 -43 -112.5t-119 -43.5zM145 563l-91 145h97l42 -66l41 66h98l-92 -145h-95z" />
    <glyph glyph-name="Tcommaaccent" unicode="&#x162;" horiz-adv-x="405" 
d="M133 0v573h-115v127h369v-127h-115v-573h-43l-9 -36q91 -7 91 -63q0 -35 -31 -55.5t-79 -20.5q-46 0 -82 9l8 52q33 -6 58 -6q34 0 34 22q0 24 -54 27l18 71h-50z" />
    <glyph glyph-name="tcommaaccent" unicode="&#x163;" horiz-adv-x="311" 
d="M176 -175q-46 0 -82 9l8 52q33 -6 58 -6q34 0 34 22q0 24 -54 27l17 65q-87 16 -87 120v289h-53v108l53 5v110l133 44v-154h81v-113h-81v-255q0 -18 6.5 -27t25.5 -9q20 0 41 6v-114q-37 -11 -75 -13l-6 -27q91 -7 91 -63q0 -35 -31 -55.5t-79 -20.5z" />
    <glyph glyph-name="Tcaron" unicode="&#x164;" horiz-adv-x="405" 
d="M133 0v573h-115v127h369v-127h-115v-573h-139zM155 739l-91 145h97l42 -66l41 66h98l-92 -145h-95z" />
    <glyph glyph-name="tcaron" unicode="&#x165;" horiz-adv-x="311" 
d="M244 550v151h118v-60l-51 -91h-67zM194 -9q-124 0 -124 123v289h-53v108l53 5v110l133 44v-154h81v-113h-81v-255q0 -18 6.5 -27t25.5 -9q20 0 41 6v-114q-40 -13 -82 -13z" />
    <glyph glyph-name="Tbar" unicode="&#x166;" horiz-adv-x="405" 
d="M59 307v98h74v168h-115v127h369v-127h-115v-168h76v-98h-76v-307h-139v307h-74z" />
    <glyph glyph-name="tbar" unicode="&#x167;" horiz-adv-x="311" 
d="M32 229v79h38v95h-53v108l53 5v110l133 44v-154h81v-113h-81v-95h59v-79h-59v-81q0 -18 6.5 -27t25.5 -9q20 0 41 6v-114q-40 -13 -82 -13q-124 0 -124 123v115h-38z" />
    <glyph glyph-name="Utilde" unicode="&#x168;" horiz-adv-x="439" 
d="M220 -12q-88 0 -136 46.5t-48 139.5v526h139v-526q0 -24 11.5 -42t36.5 -18q48 0 48 62v524h133v-520q0 -90 -46.5 -141t-137.5 -51zM288 739q-24 0 -62 16t-49 16q-19 0 -26 -39l-80 15q8 57 29.5 84t62.5 27q21 0 59 -14t48 -14q17 0 23 32l81 -13q-6 -110 -86 -110z
" />
    <glyph glyph-name="utilde" unicode="&#x169;" horiz-adv-x="413" 
d="M138 -12q-51 0 -78 33.5t-27 81.5v415h133v-361q0 -52 37 -52q42 0 42 58v355h133v-518h-128v62h-3q-33 -74 -109 -74zM271 571q-24 0 -62 16t-49 16q-19 0 -26 -39l-80 15q8 57 29.5 84t62.5 27q21 0 59 -14t48 -14q17 0 23 32l81 -13q-6 -110 -86 -110z" />
    <glyph glyph-name="Umacron" unicode="&#x16a;" horiz-adv-x="439" 
d="M220 -12q-88 0 -136 46.5t-48 139.5v526h139v-526q0 -24 11.5 -42t36.5 -18q48 0 48 62v524h133v-520q0 -90 -46.5 -141t-137.5 -51zM97 749v87h246v-87h-246z" />
    <glyph glyph-name="umacron" unicode="&#x16b;" horiz-adv-x="413" 
d="M138 -12q-51 0 -78 33.5t-27 81.5v415h133v-361q0 -52 37 -52q42 0 42 58v355h133v-518h-128v62h-3q-33 -74 -109 -74zM82 577v87h246v-87h-246z" />
    <glyph glyph-name="Ubreve" unicode="&#x16c;" horiz-adv-x="439" 
d="M220 -12q-88 0 -136 46.5t-48 139.5v526h139v-526q0 -24 11.5 -42t36.5 -18q48 0 48 62v524h133v-520q0 -90 -46.5 -141t-137.5 -51zM219 737q-53 0 -88 36t-35 103h72q5 -32 16.5 -50.5t38.5 -18.5q45 0 50 69h71q-1 -71 -36.5 -105t-88.5 -34z" />
    <glyph glyph-name="ubreve" unicode="&#x16d;" horiz-adv-x="413" 
d="M138 -12q-51 0 -78 33.5t-27 81.5v415h133v-361q0 -52 37 -52q42 0 42 58v355h133v-518h-128v62h-3q-33 -74 -109 -74zM204 563q-53 0 -88 36t-35 103h72q5 -32 16.5 -50.5t38.5 -18.5q45 0 50 69h71q-1 -71 -36.5 -105t-88.5 -34z" />
    <glyph glyph-name="Uring" unicode="&#x16e;" horiz-adv-x="439" 
d="M220 -12q-88 0 -136 46.5t-48 139.5v526h139v-526q0 -24 11.5 -42t36.5 -18q48 0 48 62v524h133v-520q0 -90 -46.5 -141t-137.5 -51zM220 733q-38 0 -62.5 24.5t-24.5 59.5q0 34 25.5 58.5t61.5 24.5q37 0 62.5 -24t25.5 -58q0 -36 -25.5 -60.5t-62.5 -24.5zM220 779
q16 0 25.5 11t9.5 27t-9 26.5t-26 10.5q-33 0 -33 -37q0 -17 9 -27.5t24 -10.5z" />
    <glyph glyph-name="uring" unicode="&#x16f;" horiz-adv-x="413" 
d="M138 -12q-51 0 -78 33.5t-27 81.5v415h133v-361q0 -52 37 -52q42 0 42 58v355h133v-518h-128v62h-3q-33 -74 -109 -74zM205 556q-38 0 -62.5 24.5t-24.5 59.5q0 34 25.5 58.5t61.5 24.5q37 0 62.5 -24t25.5 -58q0 -35 -25.5 -60t-62.5 -25zM205 602q16 0 25.5 11t9.5 27
t-9 26.5t-26 10.5q-33 0 -33 -37q0 -16 9 -27t24 -11z" />
    <glyph glyph-name="Uhungarumlaut" unicode="&#x170;" horiz-adv-x="439" 
d="M220 -12q-88 0 -136 46.5t-48 139.5v526h139v-526q0 -24 11.5 -42t36.5 -18q48 0 48 62v524h133v-520q0 -90 -46.5 -141t-137.5 -51zM101 738l49 145h104l-71 -145h-82zM243 738l56 145h104l-79 -145h-81z" />
    <glyph glyph-name="uhungarumlaut" unicode="&#x171;" horiz-adv-x="413" 
d="M138 -12q-51 0 -78 33.5t-27 81.5v415h133v-361q0 -52 37 -52q42 0 42 58v355h133v-518h-128v62h-3q-33 -74 -109 -74zM93 563l49 145h104l-71 -145h-82zM235 563l56 145h104l-79 -145h-81z" />
    <glyph glyph-name="Uogonek" unicode="&#x172;" horiz-adv-x="439" 
d="M260 -175q-44 0 -70 19.5t-26 55.5q0 49 46 88q-84 3 -129 49.5t-45 136.5v526h139v-526q0 -24 11.5 -42t36.5 -18q48 0 48 62v524h133v-520q0 -142 -108 -180q-55 -29 -55 -67q0 -31 36 -31q25 0 41 7l18 -71q-34 -13 -76 -13z" />
    <glyph glyph-name="uogonek" unicode="&#x173;" horiz-adv-x="413" 
d="M325 -175q-43 0 -69.5 19.5t-26.5 55.5q0 34 22 62v100h-3q-33 -74 -110 -74q-51 0 -78 33.5t-27 81.5v415h133v-361q0 -52 37 -52q42 0 42 58v355h133v-518q-72 -24 -72 -67q0 -31 36 -31q25 0 41 7l18 -71q-34 -13 -76 -13z" />
    <glyph glyph-name="Wcircumflex" unicode="&#x174;" horiz-adv-x="673" 
d="M135 -4l-126 704h140l60 -388h3l61 388h144l62 -388h3l63 388h119l-125 -704h-120l-79 484h-3l-80 -484h-122zM199 739l92 145h95l91 -145h-97l-42 66l-41 -66h-98z" />
    <glyph glyph-name="wcircumflex" unicode="&#x175;" horiz-adv-x="572" 
d="M119 -2l-113 520h130l48 -273h4l53 273h119l46 -273h3l50 273h107l-113 -520h-97l-63 303h-3l-65 -303h-106zM147 563l92 145h95l91 -145h-97l-42 66l-41 -66h-98z" />
    <glyph glyph-name="Ycircumflex" unicode="&#x176;" horiz-adv-x="408" 
d="M136 0v293l-133 407h142l69 -242h1l66 242h123l-129 -407v-293h-139zM73 739l92 145h95l91 -145h-97l-42 66l-41 -66h-98z" />
    <glyph glyph-name="ycircumflex" unicode="&#x177;" horiz-adv-x="384" 
d="M102 -167q-42 0 -67 8v108q27 -5 53 -5q36 0 40 33l3 14l-127 527h138l54 -323h3l59 323h122l-119 -516q-21 -91 -60 -130t-99 -39zM53 563l92 145h95l91 -145h-97l-42 66l-41 -66h-98z" />
    <glyph glyph-name="Ydieresis" unicode="&#x178;" horiz-adv-x="408" 
d="M136 0v293l-133 407h142l69 -242h1l66 242h123l-129 -407v-293h-139zM70 747v129h111v-129h-111zM227 747v129h110v-129h-110z" />
    <glyph glyph-name="Zacute" unicode="&#x179;" horiz-adv-x="393" 
d="M25 0v58l171 515h-165v127h338v-58l-177 -515h174v-127h-341zM150 739l72 145h122l-105 -145h-89z" />
    <glyph glyph-name="zacute" unicode="&#x17a;" horiz-adv-x="350" 
d="M16 0v16l151 389h-137v113h305v-12l-149 -385h135v-121h-305zM128 563l72 145h122l-105 -145h-89z" />
    <glyph glyph-name="Zdotaccent" unicode="&#x17b;" horiz-adv-x="393" 
d="M25 0v58l171 515h-165v127h338v-58l-177 -515h174v-127h-341zM142 747v129h111v-129h-111z" />
    <glyph glyph-name="zdotaccent" unicode="&#x17c;" horiz-adv-x="350" 
d="M16 0v16l151 389h-137v113h305v-12l-149 -385h135v-121h-305zM109 566v134h133v-134h-133z" />
    <glyph glyph-name="Zcaron" unicode="&#x17d;" horiz-adv-x="393" 
d="M25 0v58l171 515h-165v127h338v-58l-177 -515h174v-127h-341zM156 739l-91 145h97l42 -66l41 66h98l-92 -145h-95z" />
    <glyph glyph-name="zcaron" unicode="&#x17e;" horiz-adv-x="350" 
d="M16 0v16l151 389h-137v113h305v-12l-149 -385h135v-121h-305zM131 563l-91 145h97l42 -66l41 66h98l-92 -145h-95z" />
    <glyph glyph-name="florin" unicode="&#x192;" horiz-adv-x="301" 
d="M84 -167q-26 0 -51 8v105q10 -2 19 -2q27 0 27 39v398h-49v109h49v82q0 135 131 135q43 0 69 -7v-101q-26 2 -39 2q-28 0 -28 -33v-78h58v-109h-58v-394q0 -154 -128 -154z" />
    <glyph glyph-name="Aringacute" unicode="&#x1fa;" horiz-adv-x="480" 
d="M193 850l58 121h122l-91 -121h-89zM13 0l138 634h176l140 -634h-144l-27 132h-133l-26 -132h-124zM184 236h92l-45 226h-5zM240 660q-38 0 -62.5 24.5t-24.5 59.5q0 34 25.5 58.5t61.5 24.5q37 0 62.5 -24t25.5 -58q0 -36 -25.5 -60.5t-62.5 -24.5zM240 706q16 0 25.5 11
t9.5 27t-9 26.5t-26 10.5q-33 0 -33 -37q0 -17 9 -27.5t24 -10.5z" />
    <glyph glyph-name="aringacute" unicode="&#x1fb;" horiz-adv-x="404" 
d="M152 743l49 117h122l-82 -117h-89zM141 -11q-53 0 -85.5 34t-32.5 92v9q0 78 62.5 132t149.5 75v51q0 42 -39 42t-39 -40v-47h-123v41q0 67 47 109.5t120 42.5q79 0 123 -38.5t44 -116.5v-227q0 -30 1 -65.5t2.5 -58.5t1.5 -24h-123q-4 38 -5 55h-4q-16 -32 -43 -49
t-57 -17zM191 94q20 0 32 16t12 38v91q-80 -24 -80 -92v-12q0 -19 10 -30t26 -11zM195 553q-38 0 -62.5 24.5t-24.5 59.5q0 34 25.5 58.5t61.5 24.5q37 0 62.5 -24t25.5 -58q0 -35 -25.5 -60t-62.5 -25zM195 599q16 0 25.5 11t9.5 27t-9 26.5t-26 10.5q-33 0 -33 -37
q0 -16 9 -27t24 -11z" />
    <glyph glyph-name="AEacute" unicode="&#x1fc;" horiz-adv-x="631" 
d="M3 0l191 700h408v-127h-177v-146h142v-127h-142v-173h177v-127h-316v191h-102l-48 -191h-133zM211 307h75v266h-7zM312 739l72 145h122l-105 -145h-89z" />
    <glyph glyph-name="aeacute" unicode="&#x1fd;" horiz-adv-x="606" 
d="M150 -12q-56 0 -91.5 34.5t-35.5 92.5v4q0 140 211 203v56q0 41 -40 41q-38 0 -38 -39v-43h-123v41q0 67 47 109.5t120 42.5t107 -31q39 31 104 31q78 0 122 -44.5t44 -117.5v-140h-211v-89q0 -20 11.5 -32t31.5 -12q18 0 30 11.5t12 29.5v34h125v-27q0 -70 -42 -112.5
t-118 -42.5q-83 0 -132 64q-24 -31 -60.5 -47.5t-73.5 -16.5zM189 94q21 0 33 16t12 38v82q-79 -23 -79 -92v-3q0 -19 9.5 -30t24.5 -11zM366 320h82v67q0 19 -11 30.5t-30 11.5t-30 -12t-11 -34v-63zM253 563l72 145h122l-105 -145h-89z" />
    <glyph glyph-name="Oslashacute" unicode="&#x1fe;" horiz-adv-x="444" 
d="M153 -62l-73 15l18 69q-63 47 -63 151v355q0 83 51.5 133.5t136.5 50.5q29 0 53 -6l14 52l73 -14l-19 -71q65 -52 65 -150v-351q0 -81 -52 -132.5t-136 -51.5q-27 0 -54 5zM174 309l69 269q-10 5 -22 5q-47 0 -47 -57v-217zM221 117q49 0 49 57v213l-70 -267q9 -3 21 -3z
M175 739l72 145h122l-105 -145h-89z" />
    <glyph glyph-name="oslashacute" unicode="&#x1ff;" horiz-adv-x="407" 
d="M135 -57l-46 12l16 55q-75 40 -75 145v209q0 76 49 121t125 45q29 0 53 -7l14 48l46 -12l-16 -54q76 -45 76 -139v-204q0 -82 -46 -128t-128 -46q-29 0 -53 6zM163 206l62 209q-10 5 -22 5q-40 0 -40 -43v-171zM203 98q41 0 41 42v171l-62 -208q10 -5 21 -5zM149 563
l72 145h122l-105 -145h-89z" />
    <glyph glyph-name="Scommaaccent" unicode="&#x218;" horiz-adv-x="411" 
d="M204 -12q-32 0 -61 8.5t-56.5 28.5t-43.5 58t-16 91v32h130v-18q0 -75 48 -75q43 0 43 60q0 46 -52 90l-63 54q-30 26 -47.5 44.5t-36.5 61.5t-19 95v4q0 86 50 138t130 52q81 0 126.5 -47t45.5 -136v-33h-128v34q0 58 -48 58q-45 0 -45 -57q0 -19 14 -41t23 -30l33 -30
l59 -55q94 -83 94 -192v-4q0 -88 -45.5 -139.5t-134.5 -51.5zM151 -175v137h108v-76l-39 -61h-69z" />
    <glyph glyph-name="scommaaccent" unicode="&#x219;" horiz-adv-x="384" 
d="M196 -12q-78 0 -123.5 34.5t-45.5 101.5v35h123v-21q0 -46 41 -46q39 0 39 42q0 18 -12 30t-42 32l-59 37q-82 52 -82 142q0 70 43.5 112.5t120.5 42.5q66 0 110.5 -35.5t44.5 -93.5v-40h-118v24q0 44 -39 44q-19 0 -28.5 -11.5t-9.5 -27.5q0 -29 49 -59l64 -41
q86 -54 86 -146q0 -69 -43 -112.5t-119 -43.5zM138 -175v137h108v-76l-39 -61h-69z" />
    <glyph glyph-name="uni021A" unicode="&#x21a;" horiz-adv-x="405" 
d="M133 0v573h-115v127h369v-127h-115v-573h-139zM148 -175v137h108v-76l-39 -61h-69z" />
    <glyph glyph-name="uni021B" unicode="&#x21b;" horiz-adv-x="311" 
d="M194 -9q-124 0 -124 123v289h-53v108l53 5v110l133 44v-154h81v-113h-81v-255q0 -18 6.5 -27t25.5 -9q20 0 41 6v-114q-40 -13 -82 -13zM131 -175v137h108v-76l-39 -61h-69z" />
    <glyph glyph-name="dotlessj" unicode="&#x237;" horiz-adv-x="204" 
d="M42 -162q-24 0 -51 7v108q10 -2 20 -2q26 0 26 39v528h133v-527q0 -153 -128 -153z" />
    <glyph glyph-name="circumflex" unicode="&#x2c6;" horiz-adv-x="407" 
d="M64 563l92 145h95l91 -145h-97l-42 66l-41 -66h-98z" />
    <glyph glyph-name="caron" unicode="&#x2c7;" horiz-adv-x="407" 
d="M156 563l-91 145h97l42 -66l41 66h98l-92 -145h-95z" />
    <glyph glyph-name="breve" unicode="&#x2d8;" horiz-adv-x="407" 
d="M202 563q-53 0 -88 36t-35 103h72q5 -32 16.5 -50.5t38.5 -18.5q45 0 50 69h71q-1 -71 -36.5 -105t-88.5 -34z" />
    <glyph glyph-name="dotaccent" unicode="&#x2d9;" horiz-adv-x="407" 
d="M137 566v134h133v-134h-133z" />
    <glyph glyph-name="ring" unicode="&#x2da;" horiz-adv-x="407" 
d="M203 556q-38 0 -62.5 24.5t-24.5 59.5q0 34 25.5 58.5t61.5 24.5q37 0 62.5 -24t25.5 -58q0 -35 -25.5 -60t-62.5 -25zM203 602q16 0 25.5 11t9.5 27t-9 26.5t-26 10.5q-33 0 -33 -37q0 -16 9 -27t24 -11z" />
    <glyph glyph-name="ogonek" unicode="&#x2db;" horiz-adv-x="407" 
d="M213 -175q-43 0 -69.5 19.5t-26.5 55.5q0 44 34 76.5t78 50.5l33 -27q-68 -26 -68 -67q0 -31 36 -31q25 0 41 7l18 -71q-34 -13 -76 -13z" />
    <glyph glyph-name="tilde" unicode="&#x2dc;" horiz-adv-x="407" 
d="M269 571q-24 0 -62 16t-49 16q-19 0 -26 -39l-80 15q8 57 29.5 84t62.5 27q21 0 59 -14t48 -14q17 0 23 32l81 -13q-6 -110 -86 -110z" />
    <glyph glyph-name="hungarumlaut" unicode="&#x2dd;" horiz-adv-x="407" 
d="M55 563l49 145h104l-71 -145h-82zM197 563l56 145h104l-79 -145h-81z" />
    <glyph glyph-name="gravecomb" unicode="&#x300;" horiz-adv-x="1" 
d="M-128 563l-106 145h122l73 -145h-89z" />
    <glyph glyph-name="acutecomb" unicode="&#x301;" horiz-adv-x="1" 
d="M-245 563l72 145h122l-105 -145h-89z" />
    <glyph glyph-name="uni0302" unicode="&#x302;" horiz-adv-x="1" 
d="M-323 563l92 145h95l91 -145h-97l-42 66l-41 -66h-98z" />
    <glyph glyph-name="tildecomb" unicode="&#x303;" horiz-adv-x="1" 
d="M-130 571q-24 0 -62 16t-49 16q-19 0 -26 -39l-80 15q8 57 29.5 84t62.5 27q21 0 59 -14t48 -14q17 0 23 32l81 -13q-6 -110 -86 -110z" />
    <glyph glyph-name="uni0304" unicode="&#x304;" horiz-adv-x="1" 
d="M-283 577v87h246v-87h-246z" />
    <glyph glyph-name="uni0306" unicode="&#x306;" horiz-adv-x="1" 
d="M-167 563q-53 0 -88 36t-35 103h72q5 -32 16.5 -50.5t38.5 -18.5q45 0 50 69h71q-1 -71 -36.5 -105t-88.5 -34z" />
    <glyph glyph-name="uni0307" unicode="&#x307;" horiz-adv-x="1" 
d="M-184 566v134h133v-134h-133z" />
    <glyph glyph-name="uni0308" unicode="&#x308;" horiz-adv-x="1" 
d="M-329 568v129h111v-129h-111zM-172 568v129h110v-129h-110z" />
    <glyph glyph-name="uni030A" unicode="&#x30a;" horiz-adv-x="1" 
d="M-118 556q-38 0 -62.5 24.5t-24.5 59.5q0 34 25.5 58.5t61.5 24.5q37 0 62.5 -24t25.5 -58q0 -35 -25.5 -60t-62.5 -25zM-118 602q16 0 25.5 11t9.5 27t-9 26.5t-26 10.5q-33 0 -33 -37q0 -16 9 -27t24 -11z" />
    <glyph glyph-name="uni030B" unicode="&#x30b;" horiz-adv-x="1" 
d="M-325 563l49 145h104l-71 -145h-82zM-183 563l56 145h104l-79 -145h-81z" />
    <glyph glyph-name="uni030C" unicode="&#x30c;" horiz-adv-x="1" 
d="M-268 563l-91 145h97l42 -66l41 66h98l-92 -145h-95z" />
    <glyph glyph-name="uni0312" unicode="&#x312;" horiz-adv-x="1" 
d="M-73 728v-163h-112v75l42 88h70z" />
    <glyph glyph-name="uni0313" unicode="&#x313;" horiz-adv-x="1" 
d="M-165 515v185h112v-80l-49 -105h-63z" />
    <glyph glyph-name="uni0326" unicode="&#x326;" horiz-adv-x="1" 
d="M-154 -175v137h108v-76l-39 -61h-69z" />
    <glyph glyph-name="uni0327" unicode="&#x327;" horiz-adv-x="1" 
d="M-174 -175q-46 0 -82 9l8 52q33 -6 58 -6q34 0 34 22q0 24 -54 27l22 84h45l-12 -49q91 -7 91 -63q0 -35 -31 -55.5t-79 -20.5z" />
    <glyph glyph-name="uni0328" unicode="&#x328;" horiz-adv-x="1" 
d="M-163 -175q-43 0 -69.5 19.5t-26.5 55.5q0 44 34 76.5t78 50.5l33 -27q-68 -26 -68 -67q0 -31 36 -31q25 0 41 7l18 -71q-34 -13 -76 -13z" />
    <glyph glyph-name="uni0394" unicode="&#x394;" horiz-adv-x="493" 
d="M27 0v73l138 628h158l143 -627v-74h-439zM167 124h149l-73 368h-4z" />
    <glyph glyph-name="uni03A9" unicode="&#x3a9;" horiz-adv-x="445" 
d="M38 0v124l96 -6v10q-42 32 -72 101t-31 181q0 151 45.5 226.5t145.5 75.5q103 0 147.5 -76.5t45.5 -225.5q0 -110 -31 -182.5t-71 -99.5v-10l95 6v-124h-172v125q35 86 35 230v163q0 65 -49 65q-48 0 -48 -64v-163q0 -59 5.5 -104t11.5 -67.5t19 -59.5v-125h-172z" />
    <glyph glyph-name="uni03BC" unicode="&#x3bc;" horiz-adv-x="430" 
d="M31 -178v696h133v-366q0 -46 36 -46q41 0 41 54v358h134v-325q0 -27 1.5 -36t9.5 -18t27 -15v-125q-94 5 -111 59q-22 -69 -90 -69q-22 0 -45 17.5t-30 53.5l-6 -2l24 -205z" />
    <glyph glyph-name="pi" unicode="&#x3c0;" horiz-adv-x="456" 
d="M365 -6q-106 0 -106 116v292h-64q-14 -338 -19 -402h-134q21 227 25 402h-51l13 116h402v-116l-43 1v-244q0 -43 23 -43q8 0 18 2v-113q-30 -11 -64 -11z" />
    <glyph glyph-name="Wgrave" unicode="&#x1e80;" horiz-adv-x="673" 
d="M135 -4l-126 704h140l60 -388h3l61 388h144l62 -388h3l63 388h119l-125 -704h-120l-79 484h-3l-80 -484h-122zM300 739l-105 145h122l72 -145h-89z" />
    <glyph glyph-name="wgrave" unicode="&#x1e81;" horiz-adv-x="572" 
d="M119 -2l-113 520h130l48 -273h4l53 273h119l46 -273h3l50 273h107l-113 -520h-97l-63 303h-3l-65 -303h-106zM257 563l-106 145h122l73 -145h-89z" />
    <glyph glyph-name="Wacute" unicode="&#x1e82;" horiz-adv-x="673" 
d="M135 -4l-126 704h140l60 -388h3l61 388h144l62 -388h3l63 388h119l-125 -704h-120l-79 484h-3l-80 -484h-122zM303 739l72 145h122l-105 -145h-89z" />
    <glyph glyph-name="wacute" unicode="&#x1e83;" horiz-adv-x="572" 
d="M119 -2l-113 520h130l48 -273h4l53 273h119l46 -273h3l50 273h107l-113 -520h-97l-63 303h-3l-65 -303h-106zM259 563l72 145h122l-105 -145h-89z" />
    <glyph glyph-name="Wdieresis" unicode="&#x1e84;" horiz-adv-x="673" 
d="M135 -4l-126 704h140l60 -388h3l61 388h144l62 -388h3l63 388h119l-125 -704h-120l-79 484h-3l-80 -484h-122zM210 747v129h111v-129h-111zM367 747v129h110v-129h-110z" />
    <glyph glyph-name="wdieresis" unicode="&#x1e85;" horiz-adv-x="572" 
d="M119 -2l-113 520h130l48 -273h4l53 273h119l46 -273h3l50 273h107l-113 -520h-97l-63 303h-3l-65 -303h-106zM153 568v129h111v-129h-111zM310 568v129h110v-129h-110z" />
    <glyph glyph-name="uni1E8A" unicode="&#x1e8a;" horiz-adv-x="426" 
d="M2 0l135 343l-130 357h148l66 -208l73 208h129l-135 -341l133 -359h-141l-73 216l-76 -216h-129zM166 747v129h111v-129h-111z" />
    <glyph glyph-name="uni1E8B" unicode="&#x1e8b;" horiz-adv-x="356" 
d="M-3 0l113 258l-108 260h132l53 -134l51 134h115l-108 -240l114 -278h-131l-59 150l-59 -150h-113zM112 566v134h133v-134h-133z" />
    <glyph glyph-name="Ygrave" unicode="&#x1ef2;" horiz-adv-x="408" 
d="M136 0v293l-133 407h142l69 -242h1l66 242h123l-129 -407v-293h-139zM171 739l-105 145h122l72 -145h-89z" />
    <glyph glyph-name="ygrave" unicode="&#x1ef3;" horiz-adv-x="384" 
d="M102 -167q-42 0 -67 8v108q27 -5 53 -5q36 0 40 33l3 14l-127 527h138l54 -323h3l59 323h122l-119 -516q-21 -91 -60 -130t-99 -39zM147 563l-106 145h122l73 -145h-89z" />
    <glyph glyph-name="enspace" unicode="&#x2002;" horiz-adv-x="349" 
 />
    <glyph glyph-name="emspace" unicode="&#x2003;" horiz-adv-x="840" 
 />
    <glyph glyph-name="threeperemspace" unicode="&#x2004;" horiz-adv-x="140" 
 />
    <glyph glyph-name="fourperemspace" unicode="&#x2005;" horiz-adv-x="105" 
 />
    <glyph glyph-name="sixperemspace" unicode="&#x2006;" horiz-adv-x="90" 
 />
    <glyph glyph-name="figurespace" unicode="&#x2007;" 
 />
    <glyph glyph-name="punctuationspace" unicode="&#x2008;" horiz-adv-x="220" 
 />
    <glyph glyph-name="thinspace" unicode="&#x2009;" horiz-adv-x="200" 
 />
    <glyph glyph-name="hairspace" unicode="&#x200a;" horiz-adv-x="100" 
 />
    <glyph glyph-name="zerowidthspace" unicode="&#x200b;" horiz-adv-x="0" 
 />
    <glyph glyph-name="endash" unicode="&#x2013;" horiz-adv-x="346" 
d="M0 233v83h346v-83h-346z" />
    <glyph glyph-name="emdash" unicode="&#x2014;" horiz-adv-x="673" 
d="M0 233v83h673v-83h-673z" />
    <glyph glyph-name="quoteleft" unicode="&#x2018;" horiz-adv-x="204" 
d="M38 433v131l61 137h63l-47 -125h51v-143h-128z" />
    <glyph glyph-name="quoteright" unicode="&#x2019;" horiz-adv-x="204" 
d="M42 433l47 125h-50v143h127v-131l-61 -137h-63z" />
    <glyph glyph-name="quotesinglbase" unicode="&#x201a;" horiz-adv-x="204" 
d="M42 -125l47 125h-50v143h127v-131l-61 -137h-63z" />
    <glyph glyph-name="quotedblleft" unicode="&#x201c;" horiz-adv-x="393" 
d="M38 433v131l61 137h63l-47 -125h51v-143h-128zM227 433v131l61 137h63l-47 -125h51v-143h-128z" />
    <glyph glyph-name="quotedblright" unicode="&#x201d;" horiz-adv-x="393" 
d="M42 433l47 125h-50v143h127v-131l-61 -137h-63zM231 433l47 125h-50v143h127v-131l-61 -137h-63z" />
    <glyph glyph-name="quotedblbase" unicode="&#x201e;" horiz-adv-x="393" 
d="M42 -125l47 125h-50v143h127v-131l-61 -137h-63zM231 -125l47 125h-50v143h127v-131l-61 -137h-63z" />
    <glyph glyph-name="dagger" unicode="&#x2020;" horiz-adv-x="376" 
d="M137 -156v610h-109v94h108v152h103v-152h110v-94h-110l1 -610h-103z" />
    <glyph glyph-name="daggerdbl" unicode="&#x2021;" horiz-adv-x="376" 
d="M137 -156v173h-109v94h109v343h-109v94h109v152h102v-152h110v-94h-110v-343h110v-94h-109v-173h-103z" />
    <glyph glyph-name="bullet" unicode="&#x2022;" horiz-adv-x="327" 
d="M294 303q0 -52 -39 -91.5t-93 -39.5q-56 0 -92.5 39t-36.5 91q0 57 39.5 94.5t91.5 37.5q57 0 93.5 -39t36.5 -92z" />
    <glyph glyph-name="ellipsis" unicode="&#x2026;" horiz-adv-x="636" 
d="M42 0v143h128v-143h-128zM254 0v143h128v-143h-128zM466 0v143h128v-143h-128z" />
    <glyph glyph-name="perthousand" unicode="&#x2030;" horiz-adv-x="772" 
d="M133 377q-46 0 -73 24.5t-27 63.5v146q0 44 26 70t74 26t74 -25t26 -67v-150q0 -37 -27.5 -62.5t-72.5 -25.5zM133 442q23 0 23 27v147q0 26 -23 26t-23 -26v-147q0 -27 23 -27zM398 -9q-45 0 -72.5 24.5t-27.5 64.5v141q0 44 26 70t74 26t74.5 -25t26.5 -67v-145
q0 -38 -28 -63.5t-73 -25.5zM398 56q24 0 24 27v144q0 25 -24 25q-23 0 -23 -25v-144q0 -27 23 -27zM639 -9q-45 0 -72.5 24.5t-27.5 64.5v141q0 44 26.5 70t73.5 26q48 0 74.5 -25t26.5 -67v-145q0 -38 -28 -63.5t-73 -25.5zM639 56q24 0 24 27v144q0 25 -24 25
q-23 0 -23 -25v-144q0 -27 23 -27zM146 -11l-48 15l289 708l46 -15z" />
    <glyph glyph-name="guilsinglleft" unicode="&#x2039;" horiz-adv-x="227" 
d="M94 140l-72 142v17l74 142h108l-75 -151l72 -150h-107z" />
    <glyph glyph-name="guilsinglright" unicode="&#x203a;" horiz-adv-x="227" 
d="M27 140l71 150l-76 151h108l75 -142v-17l-71 -142h-107z" />
    <glyph glyph-name="fraction" unicode="&#x2044;" horiz-adv-x="308" 
d="M37 -11l-48 15l289 708l46 -15z" />
    <glyph glyph-name="uni2070" unicode="&#x2070;" horiz-adv-x="268" 
d="M135 392q-55 0 -85.5 25t-30.5 68v219q0 44 33 70t81 26q51 0 83.5 -24t32.5 -68v-223q0 -41 -31.5 -67t-82.5 -26zM134 469q10 0 16.5 6t6.5 16v211q0 10 -7 16t-17 6q-22 0 -22 -22v-211q0 -9 6.5 -15.5t16.5 -6.5z" />
    <glyph glyph-name="uni2074" unicode="&#x2074;" horiz-adv-x="268" 
d="M136 400v94h-119v62l100 238h103v-229h30v-71h-30v-94h-84zM86 565h50v115h-3z" />
    <glyph glyph-name="uni2075" unicode="&#x2075;" horiz-adv-x="268" 
d="M132 392q-108 0 -108 93v33h85v-29q0 -27 23 -27q21 0 21 29v63q0 26 -23 26q-17 0 -25 -23h-79l9 235h202l-4 -85h-123l-3 -86q21 28 58 28q80 0 80 -75v-84q0 -50 -34 -74t-79 -24z" />
    <glyph glyph-name="uni2076" unicode="&#x2076;" horiz-adv-x="268" 
d="M135 392q-63 0 -89.5 27.5t-26.5 67.5v209q0 47 29.5 75.5t85.5 28.5q51 0 81 -24.5t30 -68.5v-30h-86v19q0 27 -23 27q-25 0 -25 -29v-73q20 20 53 20q41 0 62.5 -19.5t21.5 -51.5v-82q0 -39 -28.5 -67.5t-84.5 -28.5zM134 465q22 0 22 24v68q0 21 -19 21
q-12 0 -19 -8.5t-7 -19.5v-61q0 -24 23 -24z" />
    <glyph glyph-name="uni2077" unicode="&#x2077;" horiz-adv-x="268" 
d="M45 400l101 309h-124v83h223v-63l-97 -329h-103z" />
    <glyph glyph-name="uni2078" unicode="&#x2078;" horiz-adv-x="268" 
d="M133 392q-49 0 -81 23.5t-32 70.5v33q0 50 35 77q-32 18 -32 68v39q0 46 31 71.5t79 25.5q49 0 79.5 -25t30.5 -73v-38q0 -50 -31 -67q35 -21 35 -77v-29q0 -48 -32 -73.5t-82 -25.5zM133 466q22 0 22 21v58q0 8 -6 14t-16 6q-21 0 -21 -22v-56q0 -21 21 -21zM134 627
q19 0 19 24v51q0 20 -20 20t-20 -20v-51q0 -24 21 -24z" />
    <glyph glyph-name="uni2079" unicode="&#x2079;" horiz-adv-x="268" 
d="M133 392q-51 0 -81 24.5t-30 68.5v31h86v-21q0 -26 23 -26q25 0 25 29v70q-21 -19 -52 -19q-40 0 -62.5 19.5t-22.5 51.5v84q0 39 28 67t85 28q63 0 89.5 -27.5t26.5 -67.5v-208q0 -47 -29.5 -75.5t-85.5 -28.5zM131 612q12 0 18.5 8.5t6.5 18.5v59q0 23 -23 23
q-22 0 -22 -23v-65q0 -21 20 -21z" />
    <glyph glyph-name="uni207A" unicode="&#x207a;" horiz-adv-x="268" 
d="M109 504v81h-77v48h77v81h49v-81h77v-48h-77v-81h-49z" />
    <glyph glyph-name="uni207B" unicode="&#x207b;" horiz-adv-x="268" 
d="M32 585v48h203v-48h-203z" />
    <glyph glyph-name="uni207C" unicode="&#x207c;" horiz-adv-x="268" 
d="M32 539v49h203v-49h-203zM32 633v49h203v-49h-203z" />
    <glyph glyph-name="uni207D" unicode="&#x207d;" horiz-adv-x="176" 
d="M112 323q-78 109 -78 258q0 144 78 255l43 -16q-43 -115 -43 -233q0 -141 43 -248z" />
    <glyph glyph-name="uni207E" unicode="&#x207e;" horiz-adv-x="176" 
d="M65 323l-44 16q44 109 44 248q0 116 -44 233l44 16q78 -114 78 -255q0 -147 -78 -258z" />
    <glyph glyph-name="uni2080" unicode="&#x2080;" horiz-adv-x="268" 
d="M135 -115q-55 0 -85.5 25t-30.5 68v219q0 44 33 70t81 26q51 0 83.5 -24t32.5 -68v-223q0 -41 -31.5 -67t-82.5 -26zM134 -38q10 0 16.5 6t6.5 16v211q0 10 -7 16t-17 6q-22 0 -22 -22v-211q0 -9 6.5 -15.5t16.5 -6.5z" />
    <glyph glyph-name="uni2081" unicode="&#x2081;" horiz-adv-x="268" 
d="M100 -107v299h-27v66q38 0 44 29h77v-394h-94z" />
    <glyph glyph-name="uni2082" unicode="&#x2082;" horiz-adv-x="268" 
d="M35 -107v63q74 109 96 151.5t22 69.5q0 13 -1 20t-6.5 13t-15.5 6q-23 0 -23 -34v-20h-85v27q0 104 114 104q54 0 81 -28t27 -72v-3q0 -44 -19.5 -83t-79.5 -131h99v-83h-209z" />
    <glyph glyph-name="uni2083" unicode="&#x2083;" horiz-adv-x="268" 
d="M130 -118q-58 0 -83 28.5t-25 72.5v28h85v-26q0 -31 25 -31q23 0 23 34v29q0 39 -35 39h-40v68h39q21 0 28 8t7 30v21q0 32 -25 32q-23 0 -23 -31v-24h-81v32q0 46 28.5 72.5t74.5 26.5q53 0 82 -27t29 -73v-5q0 -70 -54 -91v-2q60 -17 60 -91v-3q0 -62 -33.5 -89.5
t-81.5 -27.5z" />
    <glyph glyph-name="uni2084" unicode="&#x2084;" horiz-adv-x="268" 
d="M136 -107v94h-119v62l100 238h103v-229h30v-71h-30v-94h-84zM86 58h50v115h-3z" />
    <glyph glyph-name="uni2085" unicode="&#x2085;" horiz-adv-x="268" 
d="M132 -115q-108 0 -108 93v33h85v-29q0 -27 23 -27q21 0 21 29v63q0 26 -23 26q-17 0 -25 -23h-79l9 235h202l-4 -85h-123l-3 -86q21 28 58 28q80 0 80 -75v-84q0 -50 -34 -74t-79 -24z" />
    <glyph glyph-name="uni2086" unicode="&#x2086;" horiz-adv-x="268" 
d="M135 -115q-63 0 -89.5 27.5t-26.5 67.5v209q0 47 29.5 75.5t85.5 28.5q51 0 81 -24.5t30 -68.5v-30h-86v19q0 27 -23 27q-25 0 -25 -29v-73q20 20 53 20q41 0 62.5 -19.5t21.5 -51.5v-82q0 -39 -28.5 -67.5t-84.5 -28.5zM134 -42q22 0 22 24v68q0 21 -19 21
q-12 0 -19 -8.5t-7 -19.5v-61q0 -24 23 -24z" />
    <glyph glyph-name="uni2087" unicode="&#x2087;" horiz-adv-x="268" 
d="M45 -107l101 309h-124v83h223v-63l-97 -329h-103z" />
    <glyph glyph-name="uni2088" unicode="&#x2088;" horiz-adv-x="268" 
d="M133 -115q-49 0 -81 23.5t-32 70.5v33q0 50 35 77q-32 18 -32 68v39q0 46 31 71.5t79 25.5q49 0 79.5 -25t30.5 -73v-38q0 -50 -31 -67q35 -21 35 -77v-29q0 -48 -32 -73.5t-82 -25.5zM133 -41q22 0 22 21v58q0 8 -6 14t-16 6q-21 0 -21 -22v-56q0 -21 21 -21zM134 120
q19 0 19 24v51q0 20 -20 20t-20 -20v-51q0 -24 21 -24z" />
    <glyph glyph-name="uni2089" unicode="&#x2089;" horiz-adv-x="268" 
d="M133 -115q-51 0 -81 24.5t-30 68.5v31h86v-21q0 -26 23 -26q25 0 25 29v70q-21 -19 -52 -19q-40 0 -62.5 19.5t-22.5 51.5v84q0 39 28 67t85 28q63 0 89.5 -27.5t26.5 -67.5v-208q0 -47 -29.5 -75.5t-85.5 -28.5zM131 105q12 0 18.5 8.5t6.5 18.5v59q0 23 -23 23
q-22 0 -22 -23v-65q0 -21 20 -21z" />
    <glyph glyph-name="uni208A" unicode="&#x208a;" horiz-adv-x="268" 
d="M109 -3v81h-77v48h77v81h49v-81h77v-48h-77v-81h-49z" />
    <glyph glyph-name="uni208B" unicode="&#x208b;" horiz-adv-x="268" 
d="M32 78v48h203v-48h-203z" />
    <glyph glyph-name="uni208C" unicode="&#x208c;" horiz-adv-x="268" 
d="M32 32v49h203v-49h-203zM32 126v49h203v-49h-203z" />
    <glyph glyph-name="uni208D" unicode="&#x208d;" horiz-adv-x="176" 
d="M112 -184q-78 109 -78 258q0 144 78 255l43 -16q-43 -115 -43 -233q0 -141 43 -248z" />
    <glyph glyph-name="uni208E" unicode="&#x208e;" horiz-adv-x="176" 
d="M65 -184l-44 16q44 109 44 248q0 116 -44 233l44 16q78 -114 78 -255q0 -147 -78 -258z" />
    <glyph glyph-name="Euro" unicode="&#x20ac;" horiz-adv-x="475" 
d="M261 -12q-92 0 -140 48.5t-48 140.5v75h-47v73h47v50h-47v72h47v70q0 96 53.5 145.5t141.5 49.5q82 0 127 -50t45 -138v-25h-129v24q0 60 -49 60q-51 0 -51 -60v-76h166l-25 -72h-141v-50h130l-25 -73h-105v-74q0 -61 49 -61q51 0 51 60v24h129v-28q0 -85 -47.5 -135
t-131.5 -50z" />
    <glyph glyph-name="uni2117" unicode="&#x2117;" horiz-adv-x="669" 
d="M335 -38q-81 0 -140.5 29t-92.5 81.5t-48.5 117t-15.5 144.5q0 78 17 144t52 118t93 81.5t135 29.5q79 0 138 -29t92.5 -81.5t49.5 -118t16 -144.5t-16.5 -144t-50.5 -117.5t-92.5 -81.5t-136.5 -29zM335 19q126 0 180.5 79.5t54.5 235.5q0 318 -235 318
q-126 0 -180.5 -80.5t-54.5 -237.5q0 -155 56.5 -235t178.5 -80zM201 95v477h147q89 0 129 -40t40 -121v-6q0 -78 -40.5 -124t-119.5 -46h-34v-140h-122zM323 325h25q43 0 43 45v61q0 45 -43 45h-25v-151z" />
    <glyph glyph-name="trademark" unicode="&#x2122;" horiz-adv-x="406" 
d="M175 454v246h80l20 -149q5 29 11.5 83t8.5 66h82v-246h-53v186h-1l-28 -186h-46l-28 186h-2v-186h-44zM63 454v197h-41v49h135v-49h-40v-197h-54z" />
    <glyph glyph-name="Omega" unicode="&#x2126;" horiz-adv-x="445" 
d="M38 0v124l96 -6v10q-42 32 -72 101t-31 181q0 151 45.5 226.5t145.5 75.5q103 0 147.5 -76.5t45.5 -225.5q0 -110 -31 -182.5t-71 -99.5v-10l95 6v-124h-172v125q35 86 35 230v163q0 65 -49 65q-48 0 -48 -64v-163q0 -59 5.5 -104t11.5 -67.5t19 -59.5v-125h-172z" />
    <glyph glyph-name="onethird" unicode="&#x2153;" horiz-adv-x="612" 
d="M458 -11q-58 0 -83 28.5t-25 72.5v28h85v-26q0 -31 25 -31q23 0 23 34v29q0 39 -35 39h-40v68h39q21 0 28 8.5t7 29.5v21q0 32 -25 32q-23 0 -23 -31v-24h-81v32q0 46 28.5 72.5t74.5 26.5q53 0 82 -27t29 -73v-5q0 -70 -54 -91v-2q60 -17 60 -91v-3q0 -62 -33.5 -89.5
t-81.5 -27.5zM75 312v299h-27v66q38 0 44 29h77v-394h-94zM168 -11l-48 15l289 708l46 -15z" />
    <glyph glyph-name="twothirds" unicode="&#x2154;" horiz-adv-x="612" 
d="M470 -11q-58 0 -83 28.5t-25 72.5v28h85v-26q0 -31 25 -31q23 0 23 34v29q0 39 -35 39h-40v68h39q21 0 28 8.5t7 29.5v21q0 32 -25 32q-23 0 -23 -31v-24h-81v32q0 46 28.5 72.5t74.5 26.5q53 0 82 -27t29 -73v-5q0 -70 -54 -91v-2q60 -17 60 -91v-3q0 -62 -33.5 -89.5
t-81.5 -27.5zM33 312v63q74 109 96 151.5t22 69.5q0 13 -1 20t-6.5 13t-15.5 6q-23 0 -23 -34v-20h-85v27q0 104 114 104q54 0 81 -28t27 -72v-3q0 -44 -19.5 -83t-79.5 -131h99v-83h-209zM190 -11l-48 15l289 708l46 -15z" />
    <glyph glyph-name="uni2155" unicode="&#x2155;" horiz-adv-x="612" 
d="M75 312v299h-27v66q38 0 44 29h77v-394h-94zM460 -8q-108 0 -108 93v33h85v-29q0 -27 23 -27q21 0 21 29v63q0 26 -23 26q-17 0 -25 -23h-79l9 235h202l-4 -85h-123l-3 -86q21 28 58 28q80 0 80 -75v-84q0 -50 -34 -74t-79 -24zM168 -11l-48 15l289 708l46 -15z" />
    <glyph glyph-name="uni2156" unicode="&#x2156;" horiz-adv-x="612" 
d="M25 312v63q74 109 96 151.5t22 69.5q0 13 -1 20t-6.5 13t-15.5 6q-23 0 -23 -34v-20h-85v27q0 104 114 104q54 0 81 -28t27 -72v-3q0 -44 -19.5 -83t-79.5 -131h99v-83h-209zM473 -8q-108 0 -108 93v33h85v-29q0 -27 23 -27q21 0 21 29v63q0 26 -23 26q-17 0 -25 -23h-79
l9 235h202l-4 -85h-123l-3 -86q21 28 58 28q80 0 80 -75v-84q0 -50 -34 -74t-79 -24zM183 -11l-48 15l289 708l46 -15z" />
    <glyph glyph-name="uni2157" unicode="&#x2157;" horiz-adv-x="612" 
d="M130 301q-58 0 -83 28.5t-25 72.5v28h85v-26q0 -31 25 -31q23 0 23 34v29q0 39 -35 39h-40v68h39q21 0 28 8.5t7 29.5v21q0 32 -25 32q-23 0 -23 -31v-24h-81v32q0 46 28.5 72.5t74.5 26.5q53 0 82 -27t29 -73v-5q0 -70 -54 -91v-2q60 -18 60 -91v-3q0 -62 -33.5 -89.5
t-81.5 -27.5zM478 -8q-108 0 -108 93v33h85v-29q0 -27 23 -27q21 0 21 29v63q0 26 -23 26q-17 0 -25 -23h-79l9 235h202l-4 -85h-123l-3 -86q21 28 58 28q80 0 80 -75v-84q0 -50 -34 -74t-79 -24zM184 -11l-48 15l289 708l46 -15z" />
    <glyph glyph-name="uni2158" unicode="&#x2158;" horiz-adv-x="612" 
d="M478 -8q-108 0 -108 93v33h85v-29q0 -27 23 -27q21 0 21 29v63q0 26 -23 26q-17 0 -25 -23h-79l9 235h202l-4 -85h-123l-3 -86q21 28 58 28q80 0 80 -75v-84q0 -50 -34 -74t-79 -24zM184 -11l-48 15l289 708l46 -15zM136 312v94h-119v62l100 238h103v-229h30v-71h-30v-94
h-84zM86 477h50v115h-3z" />
    <glyph glyph-name="uni2159" unicode="&#x2159;" horiz-adv-x="612" 
d="M75 312v299h-27v66q38 0 44 29h77v-394h-94zM463 -8q-63 0 -89.5 27.5t-26.5 67.5v209q0 47 29.5 75.5t85.5 28.5q51 0 81 -24.5t30 -68.5v-30h-86v19q0 27 -23 27q-25 0 -25 -29v-73q20 20 53 20q41 0 62.5 -19.5t21.5 -51.5v-82q0 -39 -28.5 -67.5t-84.5 -28.5zM462 65
q22 0 22 24v68q0 21 -19 21q-12 0 -19 -8.5t-7 -19.5v-61q0 -24 23 -24zM168 -11l-48 15l289 708l46 -15z" />
    <glyph glyph-name="uni215A" unicode="&#x215a;" horiz-adv-x="612" 
d="M132 304q-108 0 -108 93v33h85v-29q0 -27 23 -27q21 0 21 29v63q0 26 -23 26q-17 0 -25 -23h-79l9 235h202l-4 -85h-123l-3 -86q21 28 58 28q80 0 80 -75v-84q0 -50 -34 -74t-79 -24zM469 -8q-63 0 -89.5 27.5t-26.5 67.5v209q0 47 29.5 75.5t85.5 28.5q51 0 81 -24.5
t30 -68.5v-30h-86v19q0 27 -23 27q-25 0 -25 -29v-73q20 20 53 20q41 0 62.5 -19.5t21.5 -51.5v-82q0 -39 -28.5 -67.5t-84.5 -28.5zM468 65q22 0 22 24v68q0 21 -19 21q-12 0 -19 -8.5t-7 -19.5v-61q0 -24 23 -24zM176 -11l-48 15l289 708l46 -15z" />
    <glyph glyph-name="oneeighth" unicode="&#x215b;" horiz-adv-x="612" 
d="M75 312v299h-27v66q38 0 44 29h77v-394h-94zM461 -8q-49 0 -81 23.5t-32 70.5v33q0 50 35 77q-32 18 -32 68v39q0 46 31 71.5t79 25.5q49 0 79.5 -25t30.5 -73v-38q0 -50 -31 -67q35 -21 35 -77v-29q0 -48 -32 -73.5t-82 -25.5zM461 66q22 0 22 21v58q0 8 -6 14t-16 6
q-21 0 -21 -22v-56q0 -21 21 -21zM462 227q19 0 19 24v51q0 20 -20 20t-20 -20v-51q0 -24 21 -24zM168 -11l-48 15l289 708l46 -15z" />
    <glyph glyph-name="threeeighths" unicode="&#x215c;" horiz-adv-x="612" 
d="M119 301q-58 0 -83 28.5t-25 72.5v28h85v-26q0 -31 25 -31q23 0 23 34v29q0 39 -35 39h-40v68h39q21 0 28 8.5t7 29.5v21q0 32 -25 32q-23 0 -23 -31v-24h-81v32q0 46 28.5 72.5t74.5 26.5q53 0 82 -27t29 -73v-5q0 -70 -54 -91v-2q60 -18 60 -91v-3q0 -62 -33.5 -89.5
t-81.5 -27.5zM461 -8q-49 0 -81 23.5t-32 70.5v33q0 50 35 77q-32 18 -32 68v39q0 46 31 71.5t79 25.5q49 0 79.5 -25t30.5 -73v-38q0 -50 -31 -67q35 -21 35 -77v-29q0 -48 -32 -73.5t-82 -25.5zM461 66q22 0 22 21v58q0 8 -6 14t-16 6q-21 0 -21 -22v-56q0 -21 21 -21z
M462 227q19 0 19 24v51q0 20 -20 20t-20 -20v-51q0 -24 21 -24zM168 -11l-48 15l289 708l46 -15z" />
    <glyph glyph-name="fiveeighths" unicode="&#x215d;" horiz-adv-x="612" 
d="M461 -8q-49 0 -81 23.5t-32 70.5v33q0 50 35 77q-32 18 -32 68v39q0 46 31 71.5t79 25.5q49 0 79.5 -25t30.5 -73v-38q0 -50 -31 -67q35 -21 35 -77v-29q0 -48 -32 -73.5t-82 -25.5zM461 66q22 0 22 21v58q0 8 -6 14t-16 6q-21 0 -21 -22v-56q0 -21 21 -21zM462 227
q19 0 19 24v51q0 20 -20 20t-20 -20v-51q0 -24 21 -24zM121 304q-108 0 -108 93v33h85v-29q0 -27 23 -27q21 0 21 29v63q0 26 -23 26q-17 0 -25 -23h-79l9 235h202l-4 -85h-123l-3 -86q21 28 58 28q80 0 80 -75v-84q0 -50 -34 -74t-79 -24zM168 -11l-48 15l289 708l46 -15z
" />
    <glyph glyph-name="seveneighths" unicode="&#x215e;" horiz-adv-x="612" 
d="M461 -8q-49 0 -81 23.5t-32 70.5v33q0 50 35 77q-32 18 -32 68v39q0 46 31 71.5t79 25.5q49 0 79.5 -25t30.5 -73v-38q0 -50 -31 -67q35 -21 35 -77v-29q0 -48 -32 -73.5t-82 -25.5zM461 66q22 0 22 21v58q0 8 -6 14t-16 6q-21 0 -21 -22v-56q0 -21 21 -21zM462 227
q19 0 19 24v51q0 20 -20 20t-20 -20v-51q0 -24 21 -24zM43 312l101 309h-124v83h223v-63l-97 -329h-103zM168 -11l-48 15l289 708l46 -15z" />
    <glyph glyph-name="uni2190" unicode="&#x2190;" horiz-adv-x="402" 
d="M191 197l-149 161l149 160l51 -41l-82 -86l200 8v-84l-200 10l83 -86z" />
    <glyph glyph-name="uni2191" unicode="&#x2191;" horiz-adv-x="402" 
d="M159 198l9 200l-86 -83l-42 51l161 150l160 -149l-41 -52l-86 83l8 -200h-83z" />
    <glyph glyph-name="uni2192" unicode="&#x2192;" horiz-adv-x="402" 
d="M211 197l-52 41l83 86l-200 -9v84l200 -9l-83 86l51 42l150 -161z" />
    <glyph glyph-name="uni2193" unicode="&#x2193;" horiz-adv-x="402" 
d="M200 197l-160 149l41 52l86 -83l-9 200h84l-9 -200l86 83l42 -52z" />
    <glyph glyph-name="uni2196" unicode="&#x2196;" horiz-adv-x="402" 
d="M272 224l-135 149l-2 -120l-66 7l8 219l219 8l8 -65l-121 -2l148 -136z" />
    <glyph glyph-name="uni2197" unicode="&#x2197;" horiz-adv-x="402" 
d="M129 230l-60 60l149 134l-120 2l8 66l219 -7l7 -220l-64 -7l-3 120z" />
    <glyph glyph-name="uni2198" unicode="&#x2198;" horiz-adv-x="402" 
d="M105 232l-8 65l121 3l-149 136l60 59l135 -148l2 120l66 -7l-7 -219z" />
    <glyph glyph-name="uni2199" unicode="&#x2199;" horiz-adv-x="402" 
d="M296 238l-219 7l-8 220l64 7l3 -120l136 148l60 -60l-149 -134l120 -2z" />
    <glyph glyph-name="partialdiff" unicode="&#x2202;" horiz-adv-x="407" 
d="M203 -12q-84 0 -128.5 45t-44.5 122v209q0 69 40 112.5t107 51.5h4l-101 172h142l130 -246q25 -37 25 -88v-204q0 -82 -46 -128t-128 -46zM203 98q41 0 41 42v238q0 19 -11 30.5t-30 11.5q-40 0 -40 -43v-237q0 -19 10.5 -30.5t29.5 -11.5z" />
    <glyph glyph-name="Delta" unicode="&#x2206;" horiz-adv-x="493" 
d="M27 0v73l138 628h158l143 -627v-74h-439zM167 124h149l-73 368h-4z" />
    <glyph glyph-name="product" unicode="&#x220f;" horiz-adv-x="528" 
d="M83 -107v692h-61v116h484v-116h-58v-692h-133v692h-99v-692h-133z" />
    <glyph glyph-name="summation" unicode="&#x2211;" horiz-adv-x="408" 
d="M30 -107v110l152 303l-156 294v101h353v-117h-188l140 -256v-35l-148 -284h196v-116h-349z" />
    <glyph glyph-name="minus" unicode="&#x2212;" 
d="M41 318v83h338v-83h-338z" />
    <glyph glyph-name="radical" unicode="&#x221a;" horiz-adv-x="435" 
d="M122 -108l-107 578h119l62 -387l5 -1l114 618h107l-177 -808h-123z" />
    <glyph glyph-name="infinity" unicode="&#x221e;" horiz-adv-x="660" 
d="M477 165q-88 0 -153 89q-73 -84 -147 -84q-67 0 -107 43t-40 110q0 70 42.5 114.5t106.5 44.5q87 0 154 -87q71 81 151 81q62 0 104 -38.5t42 -106.5q0 -74 -42.5 -120t-110.5 -46zM179 247q54 0 110 77q-18 33 -46 58.5t-57 25.5t-49 -22.5t-20 -53.5q0 -36 17 -60.5
t45 -24.5zM471 243q31 0 51.5 23.5t20.5 57.5q0 35 -16 56.5t-49 21.5q-42 0 -107 -81q49 -78 100 -78z" />
    <glyph glyph-name="integral" unicode="&#x222b;" horiz-adv-x="301" 
d="M87 -164q-26 0 -51 8v105q10 -2 19 -2q27 0 27 39v573q0 73 29.5 111t98.5 38q26 0 51 -8v-104q-5 1 -19 1q-27 0 -27 -38v-569q0 -154 -128 -154z" />
    <glyph glyph-name="approxequal" unicode="&#x2248;" 
d="M116 369l-91 14q10 113 111 113q24 0 76 -11.5t72 -11.5q18 0 20 30l93 -13q-8 -114 -103 -114q-26 0 -78.5 13t-73.5 13t-26 -33zM116 209l-91 14q10 113 111 113q24 0 76 -11.5t72 -11.5q18 0 20 30l93 -13q-8 -114 -103 -114q-26 0 -78.5 13t-73.5 13t-26 -33z" />
    <glyph glyph-name="notequal" unicode="&#x2260;" 
d="M41 393v83h176l22 70h66l-21 -70h95v-83h-119l-22 -76h141v-82h-165l-22 -75h-68l22 75h-105v82h129l23 76h-152z" />
    <glyph glyph-name="lessequal" unicode="&#x2264;" 
d="M41 103v83h338v-83h-338zM333 226l-286 151v61l288 149l40 -72l-213 -108l211 -109z" />
    <glyph glyph-name="greaterequal" unicode="&#x2265;" 
d="M41 103v83h338v-83h-338zM88 226l-41 72l212 109l-213 108l40 72l287 -149v-61z" />
    <glyph glyph-name="uni22A0" unicode="&#x22a0;" horiz-adv-x="747" 
d="M50 0v701h647v-701h-647zM154 607v-513h438v513h-438zM250 156l-71 70l125 123l-125 124l69 69l123 -124l125 124l69 -69l-125 -124l125 -123l-69 -70l-124 125z" />
    <glyph glyph-name="uni25A0" unicode="&#x25a0;" horiz-adv-x="689" 
d="M44 0v701h601v-701h-601z" />
    <glyph glyph-name="uni25A1" unicode="&#x25a1;" horiz-adv-x="689" 
d="M44 0v701h601v-701h-601zM150 97h389v508h-389v-508z" />
    <glyph glyph-name="uni25AA" unicode="&#x25aa;" horiz-adv-x="548" 
d="M44 0v527h460v-527h-460z" />
    <glyph glyph-name="uni25AB" unicode="&#x25ab;" horiz-adv-x="548" 
d="M44 0v527h460v-527h-460zM136 85h276v358h-276v-358z" />
    <glyph glyph-name="uni25B2" unicode="&#x25b2;" 
d="M35 216v10l170 274h10l169 -274v-10h-349z" />
    <glyph glyph-name="uni25BA" unicode="&#x25ba;" 
d="M68 183v349h10l274 -169v-10l-274 -170h-10z" />
    <glyph glyph-name="uni25BC" unicode="&#x25bc;" 
d="M204 216l-169 274v10h349v-10l-170 -274h-10z" />
    <glyph glyph-name="uni25C4" unicode="&#x25c4;" 
d="M342 183l-274 170v10l274 169h10v-349h-10z" />
    <glyph glyph-name="lozenge" unicode="&#x25ca;" horiz-adv-x="425" 
d="M177 -3l-152 337v16l152 357h71l152 -357v-16l-152 -337h-71zM216 131l87 207l-94 220l-86 -211z" />
    <glyph glyph-name="uni25E2" unicode="&#x25e2;" 
d="M379 176l-314 74l-7 8l247 246l7 -7l74 -314z" />
    <glyph glyph-name="uni25E3" unicode="&#x25e3;" 
d="M65 176l-7 7l74 314l7 7l247 -246l-7 -8z" />
    <glyph glyph-name="uni25E4" unicode="&#x25e4;" 
d="M139 176l-7 7l-74 314l7 7l314 -74l7 -8z" />
    <glyph glyph-name="uni25E5" unicode="&#x25e5;" 
d="M305 176l-247 246l7 8l314 74l7 -7l-74 -314z" />
    <glyph glyph-name="exclamdown.case" horiz-adv-x="262" 
d="M62 0v245l29 250h80l29 -250v-245h-138zM67 557v143h128v-143h-128z" />
    <glyph glyph-name="questiondown.case" horiz-adv-x="384" 
d="M191 -11q-75 0 -118.5 45t-43.5 117q0 54 18 96.5t39 65t39 51.5t18 60v71h112v-80q0 -45 -15.5 -81.5t-33.5 -57t-33.5 -51t-15.5 -63.5q0 -18 1.5 -28.5t11 -21.5t27.5 -11q37 0 37 49v46h124v-43q0 -76 -44.5 -120t-122.5 -44zM134 557v143h128v-143h-128z" />
    <glyph glyph-name="f_i" horiz-adv-x="479" 
d="M311 0v518h133v-518h-133zM311 566v134h133v-134h-133zM66 0v405h-49v110h49v57q0 135 130 135q44 0 70 -7v-101q-26 2 -39 2q-28 0 -28 -33v-53h59v-110h-59v-405h-133z" />
    <glyph glyph-name="f_l" horiz-adv-x="479" 
d="M311 0v700h133v-700h-133zM66 0v405h-49v110h49v57q0 135 130 135q44 0 70 -7v-101q-26 2 -39 2q-28 0 -28 -33v-53h59v-110h-59v-405h-133z" />
    <glyph glyph-name="hyphen.case" horiz-adv-x="275" 
d="M23 281v107h230v-107h-230z" />
    <glyph glyph-name="emdash.case" horiz-adv-x="673" 
d="M0 295v83h673v-83h-673z" />
    <glyph glyph-name="endash.case" horiz-adv-x="346" 
d="M0 295v83h346v-83h-346z" />
    <glyph glyph-name="guilsinglleft.case" horiz-adv-x="227" 
d="M94 202l-72 142v17l74 142h108l-75 -151l72 -150h-107z" />
    <glyph glyph-name="guilsinglright.case" horiz-adv-x="227" 
d="M27 202l71 150l-76 151h108l75 -142v-17l-71 -142h-107z" />
    <glyph glyph-name="guillemotleft.case" horiz-adv-x="402" 
d="M94 202l-72 142v17l74 142h108l-75 -151l72 -150h-107zM269 202l-72 142v17l74 142h108l-75 -151l72 -150h-107z" />
    <glyph glyph-name="guillemotright.case" horiz-adv-x="402" 
d="M26 202l72 150l-75 151h108l74 -142v-17l-72 -142h-107zM201 202l72 150l-75 151h108l74 -142v-17l-72 -142h-107z" />
    <glyph glyph-name="slash.case" horiz-adv-x="279" 
d="M-8 -94l161 794h102l-159 -794h-104z" />
    <glyph glyph-name="bar.case" horiz-adv-x="248" 
d="M76 -16v716h96v-716h-96z" />
    <glyph glyph-name="parenleft.case" horiz-adv-x="252" 
d="M155 -103q-60 76 -90.5 191.5t-30.5 223.5q0 112 29.5 222.5t91.5 187.5l93 -14q-39 -99 -52.5 -140.5t-24 -106t-10.5 -150.5q0 -106 21 -197.5t66 -203.5z" />
    <glyph glyph-name="parenright.case" horiz-adv-x="252" 
d="M97 -103l-93 13q45 112 66 203.5t21 197.5q0 86 -10.5 150.5t-24 106t-52.5 140.5l93 14q62 -77 91.5 -187.5t29.5 -222.5q0 -108 -30.5 -223.5t-90.5 -191.5z" />
    <glyph glyph-name="bracketleft.case" horiz-adv-x="252" 
d="M47 -94v794h185v-80h-69v-635h69v-79h-185z" />
    <glyph glyph-name="bracketright.case" horiz-adv-x="252" 
d="M20 -94v80h69v635h-69v79h185v-794h-185z" />
    <glyph glyph-name="braceleft.case" horiz-adv-x="259" 
d="M158 -94q-46 0 -73.5 30.5t-27.5 90.5v182q0 38 -9 54.5t-35 20.5v74q29 6 36.5 17t7.5 41v161q0 61 27.5 92t73.5 31h79v-78h-42q-24 0 -24 -27v-153q0 -50 -13 -77t-46 -40v-6q36 -14 47.5 -37.5t11.5 -77.5v-194q0 -26 23 -26h43v-78h-79z" />
    <glyph glyph-name="braceright.case" horiz-adv-x="259" 
d="M23 -94v78h42q24 0 24 26v194q0 54 11.5 77.5t47.5 37.5v6q-33 13 -46 40t-13 77v153q0 27 -24 27h-42v78h79q46 0 73 -30.5t27 -92.5v-161q0 -30 8 -41t37 -17v-74q-26 -4 -35.5 -20t-9.5 -55v-182q0 -60 -27.5 -90.5t-73.5 -30.5h-78z" />
    <glyph glyph-name="bullet.case" horiz-adv-x="327" 
d="M294 365q0 -52 -39 -91.5t-93 -39.5q-56 0 -92.5 39t-36.5 91q0 57 39.5 94.5t91.5 37.5q57 0 93.5 -39t36.5 -92z" />
    <glyph glyph-name="plus.osf" 
d="M169 120v128h-128v83h128v129h82v-129h128v-83h-128v-128h-82z" />
    <glyph glyph-name="multiply.osf" 
d="M105 123l-60 59l107 105l-107 107l59 58l105 -106l107 106l59 -58l-107 -107l107 -105l-59 -59l-106 106z" />
    <glyph glyph-name="minus.osf" 
d="M41 248v83h338v-83h-338z" />
    <glyph glyph-name="divide.osf" 
d="M162 100v96h97v-96h-97zM41 248v83h338v-83h-338zM160 384v96h98v-96h-98z" />
    <glyph glyph-name="equal.osf" 
d="M41 165v82h338v-82h-338zM41 323v83h338v-83h-338z" />
    <glyph glyph-name="less.osf" 
d="M333 103l-286 151v61l288 149l40 -72l-213 -108l211 -109z" />
    <glyph glyph-name="greater.osf" 
d="M88 103l-41 72l212 109l-213 108l40 72l287 -149v-61z" />
    <glyph glyph-name="notequal.osf" 
d="M41 323v83h176l22 70h66l-21 -70h95v-83h-119l-22 -76h141v-82h-165l-22 -75h-68l22 75h-105v82h129l23 76h-152z" />
    <glyph glyph-name="plusminus.osf" 
d="M169 195v128h-128v83h128v129h82v-129h128v-83h-128v-128h-82zM41 55v83h338v-83h-338z" />
    <glyph glyph-name="approxequal.osf" 
d="M116 311l-91 14q10 113 111 113q24 0 76 -11.5t72 -11.5q18 0 20 30l93 -13q-8 -114 -103 -114q-26 0 -78.5 13t-73.5 13t-26 -33zM116 151l-91 14q10 113 111 113q24 0 76 -11.5t72 -11.5q18 0 20 30l93 -13q-8 -114 -103 -114q-26 0 -78.5 13t-73.5 13t-26 -33z" />
    <glyph glyph-name="lessequal.osf" 
d="M41 55v83h338v-83h-338zM333 178l-286 151v61l288 149l40 -72l-213 -108l211 -109z" />
    <glyph glyph-name="greaterequal.osf" 
d="M41 55v83h338v-83h-338zM88 178l-41 72l212 109l-213 108l40 72l287 -149v-61z" />
    <glyph glyph-name="zero.osf" horiz-adv-x="429" 
d="M216 -12q-86 0 -133.5 43t-47.5 119v239q0 77 50.5 122t126.5 45q81 0 131.5 -42.5t50.5 -118.5v-244q0 -72 -49 -117.5t-129 -45.5zM215 101q19 0 30 12.5t11 32.5v254q0 19 -12 31t-31 12t-29.5 -12t-10.5 -32v-253q0 -19 12 -32t30 -13z" />
    <glyph glyph-name="one.osf" horiz-adv-x="305" 
d="M100 0v387h-49v106q69 0 78 51h109v-544h-138z" />
    <glyph glyph-name="two.osf" horiz-adv-x="414" 
d="M43 0v96l52.5 59.5t57 66l44 56t36.5 57.5t11 42q0 35 -9 50t-37 15q-41 0 -41 -60v-41h-127v48q0 77 45 122t132 45q88 0 130.5 -42.5t42.5 -118.5v-12q0 -39 -24.5 -84t-51 -73.5t-61.5 -61.5t-39 -38h172v-126h-333z" />
    <glyph glyph-name="three.osf" horiz-adv-x="418" 
d="M208 -170q-95 0 -135 50.5t-40 128.5v41h132v-44q0 -61 44 -61q26 0 35 16.5t9 51.5v55q0 74 -60 74h-64v116h61q35 0 48 16.5t13 56.5v51q0 59 -45 59q-42 0 -42 -57v-44h-127v44q0 81 46 126.5t122 45.5q87 0 132.5 -47.5t45.5 -129.5v-8q0 -55 -21.5 -100t-66.5 -62
v-4q100 -31 100 -161v-6q0 -110 -54.5 -159t-132.5 -49z" />
    <glyph glyph-name="four.osf" 
d="M214 -156v170h-191v105l165 425h157v-410h51v-120h-50v-170h-132zM129 134h85v213h-5z" />
    <glyph glyph-name="five.osf" horiz-adv-x="421" 
d="M211 -168q-85 0 -131 42t-46 122v60h133v-58q0 -53 44 -53q40 0 40 58v134q0 25 -10 37t-33 12q-32 0 -45 -41h-125l14 399h316l-6 -122h-191l-6 -165q38 40 95 40q129 0 129 -134v-155q0 -90 -52 -133t-126 -43z" />
    <glyph glyph-name="six.osf" horiz-adv-x="429" 
d="M216 -12q-98 0 -139.5 48t-41.5 119v376q0 82 46 131.5t134 49.5q81 0 127 -43.5t46 -119.5v-52h-128v51q0 51 -43 51q-44 0 -44 -56v-149q15 18 42 28.5t52 10.5q65 0 96 -34.5t31 -92.5v-149q0 -70 -44 -119.5t-134 -49.5zM214 102q42 0 42 46v136q0 41 -36 41
q-22 0 -34.5 -16t-12.5 -37v-124q0 -46 41 -46z" />
    <glyph glyph-name="seven.osf" horiz-adv-x="381" 
d="M50 -156l180 578h-208v122h337v-107l-162 -593h-147z" />
    <glyph glyph-name="eight.osf" horiz-adv-x="429" 
d="M213 -12q-78 0 -128 40.5t-50 120.5v68q0 93 64 139q-57 30 -57 120v69q0 80 47.5 123.5t123.5 43.5q78 0 126 -42.5t48 -124.5v-71q0 -40 -15 -72.5t-46 -45.5q33 -17 50.5 -54.5t17.5 -79.5v-63q0 -83 -50 -127t-131 -44zM214 96q42 0 42 48v117q0 20 -11.5 31.5
t-31.5 11.5q-40 0 -40 -48v-112q0 -48 41 -48zM215 401q39 0 39 53v105q0 45 -41 45q-38 0 -38 -46v-104q0 -23 10.5 -38t29.5 -15z" />
    <glyph glyph-name="nine.osf" horiz-adv-x="429" 
d="M214 -168q-82 0 -128 43t-46 120v56h129v-55q0 -51 43 -51q44 0 44 56v150q-36 -36 -85 -36q-66 0 -101 35.5t-35 91.5v147q0 70 44.5 118.5t134.5 48.5q98 0 139 -47.5t41 -118.5v-377q0 -82 -46.5 -131.5t-133.5 -49.5zM211 223q22 0 33.5 15.5t11.5 35.5v123
q0 45 -41 45q-42 0 -42 -44v-134q0 -41 38 -41z" />
    <glyph glyph-name="zero.tosf" 
d="M211 -12q-86 0 -133.5 43t-47.5 119v239q0 77 50.5 122t126.5 45q81 0 131.5 -42.5t50.5 -118.5v-244q0 -72 -49 -117.5t-129 -45.5zM210 101q19 0 30 12.5t11 32.5v254q0 19 -12 31t-31 12t-29.5 -12t-10.5 -32v-253q0 -19 12 -32t30 -13z" />
    <glyph glyph-name="one.tosf" 
d="M144 0v387h-49v106q69 0 78 51h109v-544h-138z" />
    <glyph glyph-name="two.tosf" 
d="M48 0v96l52.5 59.5t57 66l44 56t36.5 57.5t11 42q0 35 -9 50t-37 15q-41 0 -41 -60v-41h-127v48q0 77 45 122t132 45q88 0 130.5 -42.5t42.5 -118.5v-12q0 -39 -24.5 -84t-51 -73.5t-61.5 -61.5t-39 -38h172v-126h-333z" />
    <glyph glyph-name="three.tosf" 
d="M204 -170q-95 0 -135 50.5t-40 128.5v41h132v-44q0 -61 44 -61q26 0 35 16.5t9 51.5v55q0 74 -60 74h-64v116h61q35 0 48 16.5t13 56.5v51q0 59 -45 59q-42 0 -42 -57v-44h-127v44q0 81 46 126.5t122 45.5q87 0 132.5 -47.5t45.5 -129.5v-8q0 -55 -21.5 -100t-66.5 -62
v-4q100 -31 100 -161v-6q0 -110 -54.5 -159t-132.5 -49z" />
    <glyph glyph-name="four.tosf" 
d="M214 -156v170h-191v105l165 425h157v-410h51v-120h-50v-170h-132zM129 134h85v213h-5z" />
    <glyph glyph-name="five.tosf" 
d="M209 -168q-85 0 -131 42t-46 122v60h133v-58q0 -53 44 -53q40 0 40 58v134q0 25 -10 37t-33 12q-32 0 -45 -41h-125l14 399h316l-6 -122h-191l-6 -165q38 40 95 40q129 0 129 -134v-155q0 -90 -52 -133t-126 -43z" />
    <glyph glyph-name="six.tosf" 
d="M211 -12q-98 0 -139.5 48t-41.5 119v376q0 82 46 131.5t134 49.5q81 0 127 -43.5t46 -119.5v-52h-128v51q0 51 -43 51q-44 0 -44 -56v-149q15 18 42 28.5t52 10.5q65 0 96 -34.5t31 -92.5v-149q0 -70 -44 -119.5t-134 -49.5zM209 102q42 0 42 46v136q0 41 -36 41
q-22 0 -34.5 -16t-12.5 -37v-124q0 -46 41 -46z" />
    <glyph glyph-name="seven.tosf" 
d="M69 -156l180 578h-208v122h337v-107l-162 -593h-147z" />
    <glyph glyph-name="eight.tosf" 
d="M208 -12q-78 0 -128 40.5t-50 120.5v68q0 93 64 139q-57 30 -57 120v69q0 80 47.5 123.5t123.5 43.5q78 0 126 -42.5t48 -124.5v-71q0 -40 -15 -72.5t-46 -45.5q33 -17 50.5 -54.5t17.5 -79.5v-63q0 -83 -50 -127t-131 -44zM209 96q42 0 42 48v117q0 20 -11.5 31.5
t-31.5 11.5q-40 0 -40 -48v-112q0 -48 41 -48zM210 401q39 0 39 53v105q0 45 -41 45q-38 0 -38 -46v-104q0 -23 10.5 -38t29.5 -15z" />
    <glyph glyph-name="nine.tosf" 
d="M209 -168q-82 0 -128 43t-46 120v56h129v-55q0 -51 43 -51q44 0 44 56v150q-36 -36 -85 -36q-66 0 -101 35.5t-35 91.5v147q0 70 44.5 118.5t134.5 48.5q98 0 139 -47.5t41 -118.5v-377q0 -82 -46.5 -131.5t-133.5 -49.5zM206 223q22 0 33.5 15.5t11.5 35.5v123
q0 45 -41 45q-42 0 -42 -44v-134q0 -41 38 -41z" />
    <glyph glyph-name="zero.tf" 
d="M212 -12q-86 0 -133.5 43t-47.5 119v395q0 77 50.5 122t126.5 45q81 0 131.5 -42.5t50.5 -118.5v-400q0 -72 -49 -117.5t-129 -45.5zM211 101q19 0 30 12.5t11 32.5v410q0 19 -12 31t-31 12t-29.5 -12t-10.5 -32v-409q0 -19 12 -32t30 -13z" />
    <glyph glyph-name="one.tf" 
d="M142 0v543h-49v106q69 0 78 51h109v-700h-138z" />
    <glyph glyph-name="two.tf" 
d="M48 0v96q117 199 159 288t42 138q0 37 -9 56.5t-37 19.5q-41 0 -41 -60v-41h-127v48q0 77 45 122t132 45t130 -47.5t43 -124.5v-12q0 -17 -2.5 -34.5t-5 -31.5t-10 -34.5t-11.5 -33.5t-17 -38l-19 -37t-23.5 -43l-25.5 -44.5l-30 -51.5t-32 -54h172v-126h-333z" />
    <glyph glyph-name="three.tf" 
d="M205 -14q-95 0 -135 50.5t-40 128.5v41h132v-44q0 -61 44 -61q26 0 35 16.5t9 51.5v55q0 74 -60 74h-64v116h61q35 0 48 16.5t13 56.5v51q0 59 -45 59q-42 0 -42 -57v-44h-127v44q0 81 46 126.5t122 45.5q87 0 132.5 -47.5t45.5 -129.5v-8q0 -55 -21.5 -100t-66.5 -62v-4
q100 -31 100 -161v-6q0 -110 -54.5 -159t-132.5 -49z" />
    <glyph glyph-name="four.tf" 
d="M214 0v170h-191v105l165 425h157v-410h51v-120h-50v-170h-132zM129 290h85v213h-5z" />
    <glyph glyph-name="five.tf" 
d="M210 -12q-85 0 -131 42t-46 122v60h133v-58q0 -53 44 -53q40 0 40 58v134q0 25 -10 37t-33 12q-32 0 -45 -41h-125l14 399h316l-6 -122h-191l-6 -165q38 40 95 40q129 0 129 -134v-155q0 -90 -52 -133t-126 -43z" />
    <glyph glyph-name="six.tf" 
d="M212 -12q-98 0 -139.5 48t-41.5 119v376q0 82 46 131.5t134 49.5q81 0 127 -43.5t46 -119.5v-52h-128v51q0 51 -43 51q-44 0 -44 -56v-149q15 18 42 28.5t52 10.5q65 0 96 -34.5t31 -92.5v-149q0 -70 -44 -119.5t-134 -49.5zM210 102q42 0 42 46v136q0 41 -36 41
q-22 0 -34.5 -16t-12.5 -37v-124q0 -46 41 -46z" />
    <glyph glyph-name="seven.tf" 
d="M70 0l180 578h-208v122h337v-107l-162 -593h-147z" />
    <glyph glyph-name="eight.tf" 
d="M209 -12q-78 0 -128 40.5t-50 120.5v68q0 93 64 139q-57 30 -57 120v69q0 80 47.5 123.5t123.5 43.5q78 0 126 -42.5t48 -124.5v-71q0 -40 -15 -72.5t-46 -45.5q33 -17 50.5 -54.5t17.5 -79.5v-63q0 -83 -50 -127t-131 -44zM210 96q42 0 42 48v117q0 20 -11.5 31.5
t-31.5 11.5q-40 0 -40 -48v-112q0 -48 41 -48zM211 401q39 0 39 53v105q0 45 -41 45q-38 0 -38 -46v-104q0 -23 10.5 -38t29.5 -15z" />
    <glyph glyph-name="nine.tf" 
d="M210 -12q-82 0 -128 43t-46 120v56h129v-55q0 -51 43 -51q44 0 44 56v150q-36 -36 -85 -36q-66 0 -101 35.5t-35 91.5v147q0 70 44.5 118.5t134.5 48.5q98 0 139 -47.5t41 -118.5v-377q0 -82 -46.5 -131.5t-133.5 -49.5zM207 379q22 0 33.5 15.5t11.5 35.5v123
q0 45 -41 45q-42 0 -42 -44v-134q0 -41 38 -41z" />
    <glyph glyph-name="Euro.tf" 
d="M237 -12q-89 0 -135.5 48.5t-46.5 140.5v75h-46v73h46v50h-46v72h46v70q0 97 52 146t137 49q80 0 123.5 -50t43.5 -138v-25h-125v24q0 27 -12 43.5t-36 16.5q-49 0 -49 -60v-76h161l-25 -72h-136v-50h126l-24 -73h-102v-74q0 -61 47 -61q50 0 50 60v24h125v-28
q0 -85 -46 -135t-128 -50z" />
    <glyph glyph-name="yen.tf" 
d="M142 0v211h-109v73h105l-13 43h-92v75h69l-93 298h142l69 -250h1l66 250h123l-89 -299l66 1v-75h-89l-13 -43h102v-73h-106v-211h-139z" />
    <glyph glyph-name="dollar.tf" 
d="M182 -70v84q-65 5 -108 46t-43 127v31h129v-18q0 -74 47 -74q42 0 42 60q0 45 -51 86l-62 51q-22 18 -35 30.5t-31.5 36.5t-27.5 54.5t-9 67.5v4q0 73 40.5 120.5t108.5 57.5v74h63v-75q66 -8 102.5 -51.5t36.5 -118.5v-31h-128v32q0 58 -49 58q-23 0 -35 -16.5
t-12 -39.5q0 -8 2 -16t7.5 -16.5t10 -14.5t13.5 -14.5l13 -12.5t14.5 -12.5t12.5 -10.5l59 -52q94 -79 94 -181v-3q0 -73 -36 -120.5t-105 -57.5v-85h-63z" />
    <glyph glyph-name="cent.tf" 
d="M182 -82v83q-141 17 -141 162v214q0 67 39.5 110t101.5 52v86h64v-86q61 -8 97 -44t36 -99v-65h-124v54q0 20 -11 34t-30 14q-18 0 -29 -13.5t-11 -30.5v-236q0 -43 41 -43q16 0 28 11.5t12 27.5v62h124v-62q0 -65 -36.5 -102t-96.5 -45v-84h-64z" />
    <glyph glyph-name="sterling.tf" 
d="M16 0v115h51v199h-50v74h50v138q0 93 49 139.5t130 46.5q76 0 116 -44.5t40 -125.5v-48h-119v59q0 47 -42 47q-41 0 -41 -47v-165h141v-74h-141v-199h203l-24 -115h-363z" />
    <glyph glyph-name="florin.tf" 
d="M139 -167q-26 0 -51 8v105q10 -2 19 -2q27 0 27 39v398h-49v109h49v82q0 135 131 135q43 0 69 -7v-101q-26 2 -39 2q-28 0 -28 -33v-78h58v-109h-58v-394q0 -154 -128 -154z" />
    <glyph glyph-name="numbersign.tf" 
d="M68 0l15 156h-62l10 81h60l22 228h-67l9 81h65l14 154h75l-15 -154h68l15 154h74l-14 -154h62l-7 -81h-63l-22 -228h67l-6 -81h-69l-16 -156h-73l16 156h-70l-16 -156h-72zM165 237h69l21 228h-69z" />
    <glyph glyph-name="zero.numr" horiz-adv-x="268" 
d="M135 302q-55 0 -85.5 25t-30.5 68v219q0 44 33 70t81 26q51 0 83.5 -24t32.5 -68v-223q0 -41 -31.5 -67t-82.5 -26zM134 379q10 0 16.5 6t6.5 16v211q0 10 -7 16t-17 6q-22 0 -22 -22v-211q0 -9 6.5 -15.5t16.5 -6.5z" />
    <glyph glyph-name="one.numr" horiz-adv-x="268" 
d="M97 310v299h-27v66q38 0 44 29h77v-394h-94z" />
    <glyph glyph-name="two.numr" horiz-adv-x="268" 
d="M35 310v63q74 109 96 151.5t22 69.5q0 13 -1 20t-6.5 13t-15.5 6q-23 0 -23 -34v-20h-85v27q0 104 114 104q54 0 81 -28t27 -72v-3q0 -44 -19.5 -83t-79.5 -131h99v-83h-209z" />
    <glyph glyph-name="three.numr" horiz-adv-x="268" 
d="M130 299q-58 0 -83 28.5t-25 72.5v28h85v-26q0 -31 25 -31q23 0 23 34v29q0 39 -35 39h-40v68h39q21 0 28 8.5t7 29.5v21q0 32 -25 32q-23 0 -23 -31v-24h-81v32q0 46 28.5 72.5t74.5 26.5q53 0 82 -27t29 -73v-5q0 -70 -54 -91v-2q60 -18 60 -91v-3q0 -62 -33.5 -89.5
t-81.5 -27.5z" />
    <glyph glyph-name="four.numr" horiz-adv-x="268" 
d="M136 310v94h-119v62l100 238h103v-229h30v-71h-30v-94h-84zM86 475h50v115h-3z" />
    <glyph glyph-name="five.numr" horiz-adv-x="268" 
d="M132 302q-108 0 -108 93v33h85v-29q0 -27 23 -27q21 0 21 29v63q0 26 -23 26q-17 0 -25 -23h-79l9 235h202l-4 -85h-123l-3 -86q21 28 58 28q80 0 80 -75v-84q0 -50 -34 -74t-79 -24z" />
    <glyph glyph-name="six.numr" horiz-adv-x="268" 
d="M135 302q-63 0 -89.5 27.5t-26.5 67.5v209q0 47 29.5 75.5t85.5 28.5q51 0 81 -24.5t30 -68.5v-30h-86v19q0 27 -23 27q-25 0 -25 -29v-73q20 20 53 20q41 0 62.5 -19.5t21.5 -51.5v-82q0 -39 -28.5 -67.5t-84.5 -28.5zM134 375q22 0 22 24v68q0 21 -19 21
q-12 0 -19 -8.5t-7 -19.5v-61q0 -24 23 -24z" />
    <glyph glyph-name="seven.numr" horiz-adv-x="268" 
d="M45 310l101 309h-124v83h223v-63l-97 -329h-103z" />
    <glyph glyph-name="eight.numr" horiz-adv-x="268" 
d="M133 302q-49 0 -81 23.5t-32 70.5v33q0 50 35 77q-32 18 -32 68v39q0 46 31 71.5t79 25.5q49 0 79.5 -25t30.5 -73v-38q0 -50 -31 -67q35 -21 35 -77v-29q0 -48 -32 -73.5t-82 -25.5zM133 376q22 0 22 21v58q0 8 -6 14t-16 6q-21 0 -21 -22v-56q0 -21 21 -21zM134 537
q19 0 19 24v51q0 20 -20 20t-20 -20v-51q0 -24 21 -24z" />
    <glyph glyph-name="nine.numr" horiz-adv-x="268" 
d="M133 302q-51 0 -81 24.5t-30 68.5v31h86v-21q0 -26 23 -26q25 0 25 29v70q-21 -19 -52 -19q-40 0 -62.5 19.5t-22.5 51.5v84q0 39 28 67t85 28q63 0 89.5 -27.5t26.5 -67.5v-208q0 -47 -29.5 -75.5t-85.5 -28.5zM131 522q12 0 18.5 8.5t6.5 18.5v59q0 23 -23 23
q-22 0 -22 -23v-65q0 -21 20 -21z" />
    <glyph glyph-name="zero.dnom" horiz-adv-x="268" 
d="M135 -8q-55 0 -85.5 25t-30.5 68v219q0 44 33 70t81 26q51 0 83.5 -24t32.5 -68v-223q0 -41 -31.5 -67t-82.5 -26zM134 69q10 0 16.5 6t6.5 16v211q0 10 -7 16t-17 6q-22 0 -22 -22v-211q0 -9 6.5 -15.5t16.5 -6.5z" />
    <glyph glyph-name="one.dnom" horiz-adv-x="268" 
d="M100 0v299h-27v66q38 0 44 29h77v-394h-94z" />
    <glyph glyph-name="two.dnom" horiz-adv-x="268" 
d="M35 0v63q74 109 96 151.5t22 69.5q0 13 -1 20t-6.5 13t-15.5 6q-23 0 -23 -34v-20h-85v27q0 104 114 104q54 0 81 -28t27 -72v-3q0 -44 -19.5 -83t-79.5 -131h99v-83h-209z" />
    <glyph glyph-name="three.dnom" horiz-adv-x="268" 
d="M130 -11q-58 0 -83 28.5t-25 72.5v28h85v-26q0 -31 25 -31q23 0 23 34v29q0 39 -35 39h-40v68h39q21 0 28 8.5t7 29.5v21q0 32 -25 32q-23 0 -23 -31v-24h-81v32q0 46 28.5 72.5t74.5 26.5q53 0 82 -27t29 -73v-5q0 -70 -54 -91v-2q60 -18 60 -91v-3q0 -62 -33.5 -89.5
t-81.5 -27.5z" />
    <glyph glyph-name="four.dnom" horiz-adv-x="268" 
d="M136 0v94h-119v62l100 238h103v-229h30v-71h-30v-94h-84zM86 165h50v115h-3z" />
    <glyph glyph-name="five.dnom" horiz-adv-x="268" 
d="M132 -8q-108 0 -108 93v33h85v-29q0 -27 23 -27q21 0 21 29v63q0 26 -23 26q-17 0 -25 -23h-79l9 235h202l-4 -85h-123l-3 -86q21 28 58 28q80 0 80 -75v-84q0 -50 -34 -74t-79 -24z" />
    <glyph glyph-name="six.dnom" horiz-adv-x="268" 
d="M135 -8q-63 0 -89.5 27.5t-26.5 67.5v209q0 47 29.5 75.5t85.5 28.5q51 0 81 -24.5t30 -68.5v-30h-86v19q0 27 -23 27q-25 0 -25 -29v-73q20 20 53 20q41 0 62.5 -19.5t21.5 -51.5v-82q0 -39 -28.5 -67.5t-84.5 -28.5zM134 65q22 0 22 24v68q0 21 -19 21q-12 0 -19 -8.5
t-7 -19.5v-61q0 -24 23 -24z" />
    <glyph glyph-name="seven.dnom" horiz-adv-x="268" 
d="M45 0l101 309h-124v83h223v-63l-97 -329h-103z" />
    <glyph glyph-name="eight.dnom" horiz-adv-x="268" 
d="M133 -8q-49 0 -81 23.5t-32 70.5v33q0 50 35 77q-32 18 -32 68v39q0 46 31 71.5t79 25.5q49 0 79.5 -25t30.5 -73v-38q0 -50 -31 -67q35 -21 35 -77v-29q0 -48 -32 -73.5t-82 -25.5zM133 66q22 0 22 21v58q0 8 -6 14t-16 6q-21 0 -21 -22v-56q0 -21 21 -21zM134 227
q19 0 19 24v51q0 20 -20 20t-20 -20v-51q0 -24 21 -24z" />
    <glyph glyph-name="nine.dnom" horiz-adv-x="268" 
d="M133 -8q-51 0 -81 24.5t-30 68.5v31h86v-21q0 -26 23 -26q25 0 25 29v70q-21 -19 -52 -19q-40 0 -62.5 19.5t-22.5 51.5v84q0 39 28 67t85 28q63 0 89.5 -27.5t26.5 -67.5v-208q0 -47 -29.5 -75.5t-85.5 -28.5zM131 212q12 0 18.5 8.5t6.5 18.5v59q0 23 -23 23
q-22 0 -22 -23v-65q0 -21 20 -21z" />
    <glyph glyph-name="i.latn_TRK" horiz-adv-x="203" 
d="M35 0v518h133v-518h-133zM35 566v134h133v-134h-133z" />
    <glyph glyph-name="acutecomb.case" horiz-adv-x="1" 
d="M-232 739l72 145h122l-105 -145h-89z" />
    <glyph glyph-name="gravecomb.case" horiz-adv-x="1" 
d="M-127 739l-105 145h122l72 -145h-89z" />
    <glyph glyph-name="uni0302.case" horiz-adv-x="1" 
d="M-314 739l92 145h95l91 -145h-97l-42 66l-41 -66h-98z" />
    <glyph glyph-name="tildecomb.case" horiz-adv-x="1" 
d="M-130 739q-24 0 -62 16t-49 16q-19 0 -26 -39l-80 15q8 57 29.5 84t62.5 27q21 0 59 -14t48 -14q17 0 23 32l81 -13q-6 -110 -86 -110z" />
    <glyph glyph-name="uni0304.case" horiz-adv-x="1" 
d="M-285 749v87h246v-87h-246z" />
    <glyph glyph-name="uni0306.case" horiz-adv-x="1" 
d="M-147 737q-53 0 -88 36t-35 103h72q5 -32 16.5 -50.5t38.5 -18.5q45 0 50 69h71q-1 -71 -36.5 -105t-88.5 -34z" />
    <glyph glyph-name="uni0307.case" horiz-adv-x="1" 
d="M-165 747v129h111v-129h-111z" />
    <glyph glyph-name="uni0308.case" horiz-adv-x="1" 
d="M-324 747v129h111v-129h-111zM-167 747v129h110v-129h-110z" />
    <glyph glyph-name="uni030A.case" horiz-adv-x="1" 
d="M-120 733q-38 0 -62.5 24.5t-24.5 59.5q0 34 25.5 58.5t61.5 24.5q37 0 62.5 -24t25.5 -58q0 -36 -25.5 -60.5t-62.5 -24.5zM-120 779q16 0 25.5 11t9.5 27t-9 26.5t-26 10.5q-33 0 -33 -37q0 -17 9 -27.5t24 -10.5z" />
    <glyph glyph-name="uni030B.case" horiz-adv-x="1" 
d="M-325 738l49 145h104l-71 -145h-82zM-183 738l56 145h104l-79 -145h-81z" />
    <glyph glyph-name="uni030C.case" horiz-adv-x="1" 
d="M-241 739l-91 145h97l42 -66l41 66h98l-92 -145h-95z" />
    <glyph glyph-name="period.sups" horiz-adv-x="166" 
d="M37 400v105h92v-105h-92z" />
    <glyph glyph-name="comma.sups" horiz-adv-x="166" 
d="M42 304l34 96h-39v105h92v-95l-41 -106h-46z" />
    <glyph glyph-name="period.numr" horiz-adv-x="166" 
d="M37 310v105h92v-105h-92z" />
    <glyph glyph-name="comma.numr" horiz-adv-x="166" 
d="M42 214l34 96h-39v105h92v-95l-41 -106h-46z" />
    <glyph glyph-name="plus.numr" horiz-adv-x="268" 
d="M109 414v81h-77v48h77v81h49v-81h77v-48h-77v-81h-49z" />
    <glyph glyph-name="minus.numr" horiz-adv-x="268" 
d="M32 495v48h203v-48h-203z" />
    <glyph glyph-name="equal.numr" horiz-adv-x="268" 
d="M32 449v49h203v-49h-203zM32 543v49h203v-49h-203z" />
    <glyph glyph-name="parenleft.numr" horiz-adv-x="176" 
d="M112 233q-78 109 -78 258q0 144 78 255l43 -16q-43 -115 -43 -233q0 -141 43 -248z" />
    <glyph glyph-name="parenright.numr" horiz-adv-x="176" 
d="M65 233l-44 16q44 109 44 248q0 116 -44 233l44 16q78 -114 78 -255q0 -147 -78 -258z" />
    <glyph glyph-name="period.dnom" horiz-adv-x="166" 
d="M37 0v105h92v-105h-92z" />
    <glyph glyph-name="comma.dnom" horiz-adv-x="166" 
d="M42 -96l34 96h-39v105h92v-95l-41 -106h-46z" />
    <glyph glyph-name="plus.dnom" horiz-adv-x="268" 
d="M109 104v81h-77v48h77v81h49v-81h77v-48h-77v-81h-49z" />
    <glyph glyph-name="minus.dnom" horiz-adv-x="268" 
d="M32 185v48h203v-48h-203z" />
    <glyph glyph-name="equal.dnom" horiz-adv-x="268" 
d="M32 139v49h203v-49h-203zM32 233v49h203v-49h-203z" />
    <glyph glyph-name="parenleft.dnom" horiz-adv-x="176" 
d="M112 -77q-78 109 -78 258q0 144 78 255l43 -16q-43 -115 -43 -233q0 -141 43 -248z" />
    <glyph glyph-name="parenright.dnom" horiz-adv-x="176" 
d="M65 -77l-44 16q44 109 44 248q0 116 -44 233l44 16q78 -114 78 -255q0 -147 -78 -258z" />
    <glyph glyph-name="period.subs" horiz-adv-x="166" 
d="M37 -107v105h92v-105h-92z" />
    <glyph glyph-name="comma.subs" horiz-adv-x="166" 
d="M42 -203l34 96h-39v105h92v-95l-41 -106h-46z" />
    <glyph glyph-name="orn001" horiz-adv-x="1251" 
d="M837 663l-12 -32q234 -96 234 -344q0 -210 -110 -309t-325 -99q-88 0 -166 23.5t-139 68.5t-96.5 117t-35.5 162q0 187 94.5 291t283.5 104q185 0 185 -79q0 -47 -70 -47l-213 -2q-72 0 -118.5 -38.5t-57.5 -114.5l30 -6q13 64 46.5 96.5t113.5 32.5h75l-8 -115
q-113 0 -154 -26.5t-52 -120.5l31 -2q3 29 8.5 49.5t17 33.5t22 20.5t33 11t40 4t51.5 0.5l-10 -142q-3 -52 -28.5 -86t-69.5 -34q-51 0 -87 30l-19 -30q36 -33 108 -33q56 0 92 40t41 120l9 135h184v-1q-21 -10 -31.5 -33t-16.5 -73l-3 -24h-94l-5 -30h96l-15 -174l-76 -2
l-2 -29h191l1 29h-80l17 176h168l5 30h-170l3 28q2 24 5 38t11 31t23.5 25t39.5 9l36 1q40 1 59 12.5t19 42.5q0 18 -13 36.5t-42 30.5l-15 -29q14 -6 24.5 -18t10.5 -19q0 -15 -13.5 -21t-47.5 -6h-266l8 115h79q114 0 114 80q0 108 -223 108q-201 0 -306 -106.5
t-105 -321.5q0 -188 132 -295t336 -107q236 0 357 107.5t121 336.5q0 138 -67.5 232t-192.5 142zM56 269q0 107 33 196t99.5 158t177.5 107.5t257 38.5q143 0 254.5 -39t179.5 -108.5t103 -159.5t35 -196q0 -233 -144 -368t-428 -135q-277 0 -422 135.5t-145 370.5z" />
    <glyph glyph-name="accentwidth" horiz-adv-x="0" 
 />
    </font>
</defs>
</svg>
